<svg width="98" height="118" viewBox="0 0 98 118" fill="none" xmlns="http://www.w3.org/2000/svg">
<path fill-rule="evenodd" clip-rule="evenodd" d="M67.5792 14.6144C69.1152 12.7093 70.1548 10.3744 69.9811 7.75822C69.4805 0.220138 59.5505 1.87842 57.6189 5.68299C55.6873 9.48757 55.9168 19.1382 58.4132 19.8182C59.4088 20.0893 61.5296 19.4251 63.6882 18.0502L62.3333 28.1791H70.3333L67.5792 14.6144Z" fill="#915B3C"/>
<path fill-rule="evenodd" clip-rule="evenodd" d="M68.1939 16.3113C69.198 11.5909 72.0585 8.37321 71.6216 6.26341C71.3304 4.85687 70.5541 3.98219 69.2929 3.63938C68.6406 0.850833 66.5368 -0.335244 62.9815 0.0811475C57.6485 0.705734 54.3935 3.04608 55.7992 8.19585C57.0913 8.19585 58.6512 7.70205 60.8081 8.54809C61.4925 8.81653 61.9821 9.649 62.2767 11.0455H63.2514C64.1974 9.38824 65.1302 8.77924 66.0497 9.21851C66.9693 9.65777 67.1783 10.7247 66.6768 12.4194L67.157 16.3113H68.1939Z" fill="#191847"/>
<path fill-rule="evenodd" clip-rule="evenodd" d="M92.6667 72.209H54.3333C51.3878 72.209 49 74.7322 49 77.8448V110.251C49 113.363 51.3878 115.887 54.3333 115.887H92.6667C95.6122 115.887 98 113.363 98 110.251V77.8448C98 74.7322 95.6122 72.209 92.6667 72.209ZM87.3333 82.0716C88.0697 82.0716 88.6667 82.7025 88.6667 83.4806V104.615C88.6667 105.393 88.0697 106.024 87.3333 106.024H59.6667C58.9303 106.024 58.3333 105.393 58.3333 104.615V83.4806C58.3333 82.7025 58.9303 82.0716 59.6667 82.0716H87.3333Z" fill="#C5CFD6"/>
<path fill-rule="evenodd" clip-rule="evenodd" d="M15.947 114.125C22.519 105.645 26.9657 99.3579 29.2872 95.2643C33.2623 88.2551 36.5156 82.0181 37.5423 79.6357C39.9906 73.9544 31.906 71.294 30.0763 73.944C27.307 77.9548 21.3927 90.5757 12.3333 111.807L15.947 114.125Z" fill="#B28B67"/>
<path fill-rule="evenodd" clip-rule="evenodd" d="M29.4141 111.66L41.6449 79.1258C44.2609 73.1951 31.6281 69.2967 29.7056 72.0567C25.3409 78.3229 14.9671 103.042 13.6667 104.909L29.4141 111.66Z" fill="#2F3676"/>
<path fill-rule="evenodd" clip-rule="evenodd" d="M61.989 105.135C59.6065 101.463 50.9405 89.1074 46.2203 83.9952C44.864 82.5262 43.5405 81.1162 42.2887 79.8023C38.568 75.8968 31.1588 82.4611 34.8726 86.0183C44.1215 94.8773 57.6163 106.836 58.7438 107.903C60.324 109.397 63.4863 107.443 61.989 105.135Z" fill="#915B3C"/>
<path fill-rule="evenodd" clip-rule="evenodd" d="M61.4318 103.476C62.2525 104.19 62.7864 104.773 63.0335 105.226C63.3341 105.776 63.6859 106.631 64.0891 107.793C63.4852 108.161 58.0579 111.472 47.8073 117.726C46.5766 116.506 46.3848 115.559 47.232 114.885C48.0792 114.211 48.7784 113.643 49.3294 113.18L54.9493 104.998C55.0574 104.84 55.2658 104.805 55.4148 104.92C55.4174 104.922 55.4199 104.924 55.4224 104.926L56.5901 105.876C57.6613 105.777 58.4607 105.567 58.9883 105.245C59.417 104.983 59.909 104.439 60.4645 103.612L60.4645 103.612C60.6776 103.295 61.0938 103.22 61.394 103.446C61.4069 103.455 61.4195 103.466 61.4318 103.476Z" fill="#E4E4E4"/>
<path fill-rule="evenodd" clip-rule="evenodd" d="M18.774 112.858C19.1469 113.91 19.3333 114.697 19.3333 115.219C19.3333 115.854 19.2332 116.781 19.0329 118C18.3356 118 12.0687 118 0.232325 118C-0.256237 116.293 0.0257893 115.372 1.0784 115.236C2.13101 115.1 3.00544 114.977 3.70167 114.867L12.44 110.751C12.6082 110.671 12.8052 110.751 12.8802 110.929C12.8815 110.932 12.8827 110.935 12.8839 110.938L13.4456 112.378C14.42 112.858 15.2119 113.098 15.8211 113.098C16.3161 113.098 16.9997 112.887 17.8719 112.465L17.8718 112.465C18.2065 112.303 18.6023 112.458 18.7557 112.812C18.7623 112.827 18.7684 112.842 18.774 112.858Z" fill="#E4E4E4"/>
<path fill-rule="evenodd" clip-rule="evenodd" d="M46.046 80.7508C56.2116 79.0007 63.0206 77.8041 66.4732 77.1608C76.3142 75.3271 79.1839 69.7311 77.4872 57.5214H59.3552C56.9558 58.2536 46.9299 62.7822 29.2775 71.1071C26.1015 72.7731 26.693 77.6854 27.2735 79.3038C27.2972 79.3698 32.6513 89.0647 43.3359 108.388L58.1686 98.4034L46.0181 81.9274C45.6972 81.2444 45.7065 80.8522 46.046 80.7508Z" fill="#5C63AB"/>
<path fill-rule="evenodd" clip-rule="evenodd" d="M44.7396 52.9103L34.1068 61.161C31.223 61.9833 28.8137 63.0064 26.8788 64.2302C26.4218 64.6703 25.8694 65.5616 27.7649 65.4075C29.6604 65.2535 31.6607 65.1816 31.9222 65.8648C32.1838 66.5479 31.0367 67.365 31.5654 68.2868C31.9179 68.9013 33.583 67.3604 36.5609 63.664L47.0901 59.0502L44.7396 52.9103ZM85.564 53.1951L78.5982 53.224C82.8993 67.896 85.2212 75.6809 85.564 76.5787C86.3353 78.5986 84.7031 81.6749 84.0051 83.3281C86.2785 84.4031 86.0363 80.4221 88.904 81.8319C91.5216 83.1188 93.5128 85.4505 96.537 83.4786C96.9088 83.2362 97.3162 82.3234 96.3318 81.6101C93.8792 79.833 90.3449 76.7228 89.8673 75.699C89.2161 74.3029 87.7817 66.8016 85.564 53.1951Z" fill="#915B3C"/>
<path fill-rule="evenodd" clip-rule="evenodd" d="M65.7683 22.308L62.886 21.7856C52.1915 31.548 47.7989 50.3028 34.6902 60.238L37.8453 64.3708C60.5866 61.3954 66.2233 38.519 65.7683 22.308Z" fill="#E87613"/>
<path fill-rule="evenodd" clip-rule="evenodd" d="M78.3333 60.5851C66.7761 60.5851 58.2748 60.5851 52.8295 60.5851C51.6641 60.5851 51.8837 58.8068 52.0522 57.9095C53.9965 47.5536 61.5862 36.3903 61.5862 21.6488L68.9427 20.4298C75.0275 30.771 77.1317 43.5031 78.3333 60.5851Z" fill="#DDE3E9"/>
<path fill-rule="evenodd" clip-rule="evenodd" d="M78.1284 30.5947C79.1968 30.2702 80.0429 29.5133 80.6667 28.3239C83.3555 23.1971 82.3844 20.3743 79.5109 19.4465C76.6374 18.5187 74.0749 20.4299 69.4966 20.4299C69.2476 20.4299 69.0196 20.4464 68.8124 20.4793L66.5095 20.6182C59.902 44.2818 58.0797 60.0697 61.0426 67.9821H81.1161C82.3054 70.9127 83.4435 73.3783 84.5303 75.3791H90C90.5148 57.7908 86.5576 42.8627 78.1284 30.5947Z" fill="#FF9B21"/>
<path fill-rule="evenodd" clip-rule="evenodd" d="M76.7449 55.829C76.1136 61.4107 75.0875 65.4617 73.6667 67.9821H81.1161C79.7287 64.5636 78.2717 60.5126 76.7449 55.829Z" fill="black" fill-opacity="0.1"/>
</svg>
