<svg width="24" height="24" viewBox="0 0 24 24" fill="none" xmlns="http://www.w3.org/2000/svg">
<g clip-path="url(#clip0)">
<path d="M6.93455 2.53672V3.61341L5.87798 3.86112L4.78336 3.61341V2.53672C4.78336 2.40651 4.88892 2.3009 5.01917 2.3009H6.69879C6.82899 2.3009 6.93455 2.40647 6.93455 2.53672Z" fill="#5A5A5A"/>
<path d="M6.93455 2.53686V3.61341L6.40626 3.86112L6.11393 3.61341V2.53686C6.11393 2.40651 6.00832 2.3009 5.87798 2.3009H6.69859C6.82894 2.3009 6.93455 2.40651 6.93455 2.53686Z" fill="#444444"/>
<path d="M21.5867 2.53672V3.61341L20.4868 3.81355L19.4355 3.61341V2.53672C19.4355 2.40651 19.541 2.3009 19.6713 2.3009H21.3509C21.4811 2.3009 21.5867 2.40647 21.5867 2.53672Z" fill="#5A5A5A"/>
<path d="M21.5867 2.53686V3.61341L21.0536 3.71041L20.7566 3.61341V2.53686C20.7566 2.40651 20.6509 2.3009 20.5206 2.3009H21.3507C21.4811 2.3009 21.5867 2.40651 21.5867 2.53686Z" fill="#444444"/>
<path d="M24 4.66022V16.4599C24 17.0381 23.5313 17.5068 22.9532 17.5068H21.836L19.9191 17.1971L18.0022 17.5068H3.59311C2.91759 17.5068 2.37004 16.9587 2.37004 16.2837V4.83648C2.37004 4.16143 2.91759 3.6134 3.59311 3.6134H22.9532C23.5313 3.6134 24 4.08208 24 4.66022Z" fill="#DDEAFB"/>
<path d="M24 4.65998V16.4602C24 17.0382 23.5314 17.5068 22.9529 17.5068H21.9406C22.5186 17.5068 22.9877 17.0382 22.9877 16.4602V4.65998C22.9877 4.08199 22.5186 3.6134 21.9406 3.6134H22.9529C23.5314 3.6134 24 4.08199 24 4.65998Z" fill="#CBE2FF"/>
<path d="M21.836 16.1812V17.5067H18.0021V16.1812C18.0021 15.9703 18.1731 15.7993 18.384 15.7993H21.454C21.665 15.7993 21.836 15.9703 21.836 16.1812Z" fill="#528FD8"/>
<path d="M21.836 16.1813V17.5067H20.8688V16.1813C20.8688 15.9701 20.6976 15.7993 20.4868 15.7993H21.454C21.6652 15.7993 21.836 15.9701 21.836 16.1813Z" fill="#0473CE"/>
<path d="M17.0669 12.613L16.0226 12.2557L15.5032 11.0493L16.184 10.3682L16.7786 9.94387C16.8607 9.75539 17.0669 12.613 17.0669 12.613Z" fill="#FFCEBF"/>
<path d="M17.2691 9.94948L17.0669 12.613L16.4134 12.3894L16.3233 11.8695L16.4253 10.5253C16.4351 10.3961 16.2983 10.307 16.184 10.3682L16.8124 9.73969C16.9879 9.56415 17.2876 9.70163 17.2691 9.94948Z" fill="#FFB09E"/>
<path d="M17.0664 12.6126L14.7734 15.406C14.3629 15.906 13.8073 16.2661 13.1831 16.4364L9.51429 17.4397C9.36938 17.4793 9.26891 17.611 9.26891 17.7612V21.3421H1.77492V19.091C1.77492 18.4597 1.84675 17.8327 1.98852 17.2219C2.1298 16.6111 2.34055 16.0159 2.61837 15.4489C2.96992 14.7315 3.6992 14.2762 4.49841 14.2762H10.5105C12.0267 14.2762 13.4609 13.5893 14.4105 12.4081L15.5032 11.0494L16.3233 11.8696L17.0664 12.6126Z" fill="#82AEE3"/>
<path d="M17.0664 12.6126L14.7734 15.406C14.3629 15.906 13.8073 16.2661 13.1831 16.4364L9.51428 17.4397C9.36938 17.4793 9.26891 17.6109 9.26891 17.7612V21.3421H8.06534V17.7612C8.06534 17.611 8.16581 17.4793 8.31071 17.4397L11.9796 16.4364C12.6037 16.2661 13.1593 15.906 13.5699 15.406L16.3233 11.8695L17.0664 12.6126Z" fill="#528FD8"/>
<path d="M8.21694 10.5026V12.316C8.21694 13.3988 7.33886 14.2764 6.25598 14.2764C6.21502 14.2764 6.17407 14.2754 6.13363 14.2722C5.10746 14.2092 4.29555 13.3579 4.29555 12.316V10.5026H8.21694Z" fill="#FFCEBF"/>
<path d="M13.9361 7.03652H12.4338C12.3121 7.03652 12.2134 6.93786 12.2134 6.81617V5.94399C12.2134 5.8223 12.3121 5.72363 12.4338 5.72363H13.9361C14.0578 5.72363 14.1565 5.8223 14.1565 5.94399V6.81617C14.1565 6.93786 14.0579 7.03652 13.9361 7.03652Z" fill="#528FD8"/>
<path d="M13.9361 9.69936H12.4338C12.3121 9.69936 12.2134 9.6007 12.2134 9.47901V8.60683C12.2134 8.48514 12.3121 8.38647 12.4338 8.38647H13.9361C14.0578 8.38647 14.1565 8.48514 14.1565 8.60683V9.47901C14.1565 9.6007 14.0579 9.69936 13.9361 9.69936Z" fill="#528FD8"/>
<path d="M8.21709 10.5028V12.3158C8.21709 13.399 7.33891 14.2762 6.25618 14.2762C6.21479 14.2762 6.17388 14.2752 6.13344 14.2724C5.99549 14.2638 5.86133 14.2415 5.73289 14.2053C4.90371 13.977 4.29575 13.2182 4.29575 12.3158V10.5028H8.21709Z" fill="#FFCEBF"/>
<path d="M8.21709 10.5028V12.3158C8.21709 13.399 7.33891 14.2762 6.25617 14.2762C6.21478 14.2762 6.17387 14.2752 6.13343 14.2724C5.99548 14.2638 5.86132 14.2415 5.73288 14.2053C6.56158 13.9765 7.1705 13.2177 7.1705 12.3158V10.5028H8.21709Z" fill="#FFB09E"/>
<path d="M9.86213 9.24779C9.86213 10.0242 9.23323 10.6531 8.45686 10.6531H5.92223V12.5978C5.92223 13.4912 4.96366 13.779 4.39375 13.417C4.16397 13.2709 3.99747 13.0198 3.98225 12.6606C3.98082 12.6306 3.98035 12.5997 3.98035 12.5693V9.89525C3.98035 9.27158 4.48508 8.76637 5.10875 8.76637H6.08921C6.78747 8.76637 7.04835 8.21477 7.6215 7.9624C7.88157 7.84918 8.1759 7.82916 8.45686 7.84205C9.23323 7.84205 9.86213 8.47142 9.86213 9.24779Z" fill="#5A5A5A"/>
<path d="M4.20441 9.21983C4.22581 9.19082 4.24865 9.16275 4.27339 9.13611C4.24913 9.16275 4.22629 9.19082 4.20441 9.21983Z" fill="#444444"/>
<path d="M5.58305 10.6532H5.92224V12.5979C5.92224 13.4913 4.96366 13.7791 4.39375 13.4171C4.64636 13.2611 4.82808 12.9871 4.82808 12.5979V11.4082C4.82808 10.991 5.16584 10.6532 5.58305 10.6532Z" fill="#444444"/>
<path d="M9.86212 9.24791C9.86212 10.0243 9.23322 10.6532 8.45685 10.6532H7.33083C8.10339 10.6532 8.76749 10.0214 8.76797 9.24886C8.76844 8.61711 8.35219 8.0824 7.77895 7.90496C7.97809 7.84354 8.23945 7.83288 8.45685 7.84216C9.23322 7.84216 9.86212 8.47154 9.86212 9.24791Z" fill="#444444"/>
<path d="M10.5975 20.9855H0.356789C0.159746 20.9855 0 21.1452 0 21.3423C0 21.5393 0.159746 21.6991 0.356789 21.6991H10.5975C10.7945 21.6991 10.9543 21.5393 10.9543 21.3423C10.9543 21.1452 10.7945 20.9855 10.5975 20.9855Z" fill="#0067C5"/>
<path d="M21.836 6.73677H15.503C15.306 6.73677 15.1462 6.57703 15.1462 6.37998C15.1462 6.18294 15.306 6.02319 15.503 6.02319H21.836C22.0331 6.02319 22.1928 6.18294 22.1928 6.37998C22.1928 6.57703 22.0331 6.73677 21.836 6.73677Z" fill="#FFF9DF"/>
<path d="M17.0664 9.39961H15.503C15.306 9.39961 15.1462 9.23987 15.1462 9.04282C15.1462 8.84578 15.306 8.68604 15.503 8.68604H17.0664C17.2635 8.68604 17.4232 8.84578 17.4232 9.04282C17.4232 9.23987 17.2635 9.39961 17.0664 9.39961Z" fill="#FFF9DF"/>
</g>
<defs>
<clipPath id="clip0">
<rect width="24" height="24" fill="white"/>
</clipPath>
</defs>
</svg>
