<svg width="24" height="24" viewBox="0 0 24 24" fill="none" xmlns="http://www.w3.org/2000/svg">
<path d="M11.9992 23.9993C18.6262 23.9993 23.9984 18.627 23.9984 12.0001C23.9984 5.37308 18.6262 0.000854492 11.9992 0.000854492C5.37223 0.000854492 0 5.37308 0 12.0001C0 18.627 5.37223 23.9993 11.9992 23.9993Z" fill="#65B1EF"/>
<path d="M6.1678 22.0688C6.16555 22.0734 6.16255 22.0764 6.16029 22.0809C6.17832 22.0854 6.19559 22.0914 6.21362 22.0951L6.1678 22.0688Z" fill="#E9EFF4"/>
<path d="M5.41298 5.15685L5.38895 5.10803C5.58948 5.07799 5.603 4.93678 5.75547 4.88496C5.92897 4.82788 5.86963 4.89022 6.04013 4.88496C6.17833 4.87895 6.26245 4.97959 6.42017 4.90599C6.38187 4.97359 6.31953 5.02015 6.25719 5.06597C6.12725 5.15835 5.99431 5.25299 5.83959 5.28904C5.68487 5.32434 5.50311 5.28679 5.41298 5.15685Z" fill="#E9EFF4"/>
<path d="M7.81342 15.8523C7.81042 15.9582 7.74808 16.0505 7.694 16.1399C7.45291 16.5335 7.30645 16.9894 7.27415 17.4513C7.24185 17.8937 7.26138 18.439 6.87608 18.6568C6.65601 18.7792 6.34657 18.7574 6.20011 18.964C6.1543 19.0263 6.13251 19.1052 6.11073 19.1788C6.0161 19.5235 5.92071 19.8683 5.82607 20.213C5.70365 20.2025 5.57897 20.189 5.4573 20.1755C5.6015 20.2213 5.7014 20.4166 5.61502 20.5502C5.47682 20.4774 5.29506 20.5638 5.21845 20.7027C5.1456 20.8409 5.15611 21.0092 5.19667 21.1616C5.3221 21.6123 5.7074 21.9758 6.16106 22.0839C6.08219 22.2334 5.8411 22.1681 5.69389 22.0682C4.64313 21.3577 3.84999 20.2754 3.48797 19.0594C3.36029 18.6305 3.27842 18.1746 3.02831 17.8058C2.81951 17.4941 2.50406 17.2658 2.29526 16.9541C2.00234 16.5065 1.94751 15.9259 1.60803 15.5165C1.41801 15.2829 1.12433 14.996 1.29258 14.7459C1.36017 14.643 1.50438 14.5454 1.4473 14.4365C1.42852 14.4012 1.39022 14.3794 1.36017 14.3494C1.24601 14.2269 1.32487 14.0347 1.38195 13.8769C1.47659 13.6028 1.47659 13.3099 1.43603 13.0169C1.15062 12.7616 0.925299 12.4446 0.784097 12.0886C0.699976 11.8716 0.588066 11.6004 0.355232 11.5974C0.295146 11.4292 0.232806 11.2609 0.17272 11.0927C0.150939 11.1528 0.091604 11.1903 0.0262604 11.1986C0.206519 8.4489 1.31511 5.95382 3.04033 4.02055C3.07864 4.00403 3.11619 3.98225 3.15449 3.96047C3.56383 3.72162 3.8898 3.36336 4.28562 3.10274C4.36673 3.04866 4.45912 2.99684 4.55976 3.00735C4.6574 3.01561 4.74978 3.1155 4.71448 3.20789C4.70096 3.24619 4.66867 3.27624 4.63562 3.30027C4.1722 3.69459 3.66448 4.03933 3.12445 4.32474C3.05986 4.35703 2.99151 4.39534 2.96222 4.46068C2.90739 4.57184 2.99977 4.71004 3.11694 4.7506C3.23336 4.79116 3.36405 4.76712 3.48347 4.74008C3.38282 4.88354 3.35278 5.07657 3.4046 5.24481C3.51576 5.25532 3.55106 5.10361 3.58411 4.9977C3.7193 4.5771 4.39002 4.40585 4.34645 3.96272C4.52821 4.05736 4.71298 3.84555 4.82414 3.67205C4.9353 3.49555 5.1824 3.32205 5.31835 3.47677C5.32586 3.56315 5.33637 3.65027 5.34463 3.7374C5.58348 3.67731 5.82532 3.61497 6.06417 3.55488C5.92822 3.65027 5.88241 3.85381 5.96052 4.00027C6.03938 4.14673 6.23466 4.22034 6.38938 4.16025C6.38713 4.28794 6.27297 4.38558 6.16932 4.46143C5.90644 4.65972 5.62403 4.86326 5.3176 4.9609L5.3882 5.10736C5.38069 5.11036 5.37242 5.11337 5.36416 5.11337C5.16888 5.13215 4.96234 4.99169 4.75354 5.01873C4.62585 5.03526 4.46888 5.03526 4.39527 5.16519C4.38476 5.18172 4.33894 5.40929 4.37124 5.39052C4.4854 5.32517 4.59882 5.25983 4.71073 5.19524C4.74528 5.28762 4.75354 5.39052 4.73476 5.49116C4.87296 5.47764 5.01717 5.50693 5.13959 5.58054C5.01191 5.87646 4.68369 6.07475 4.36072 6.04996C4.35772 5.95232 4.35246 5.85468 4.34946 5.75704C4.08358 5.73526 3.86652 5.96359 3.73358 6.19192C3.59838 6.4225 3.49548 6.68612 3.27241 6.83258C3.13722 6.92497 2.97123 6.96027 2.82477 7.03613C2.68132 7.11499 2.54838 7.26445 2.57842 7.42443C2.59194 7.50029 2.64076 7.57089 2.6385 7.64976C2.63024 7.79622 2.45975 7.86456 2.34559 7.9592C2.15031 8.12218 2.10149 8.42111 1.89269 8.56457C1.74097 8.67047 1.53968 8.66822 1.36318 8.72229C1.18667 8.77637 1.01017 8.95287 1.08152 9.12412C0.994398 9.15416 0.888497 9.08882 0.880235 8.99644C0.568538 9.61007 0.362743 10.2778 0.278622 10.962C0.433344 11.0702 0.590319 10.8231 0.620362 10.636C0.652658 10.449 0.815642 10.2042 0.967359 10.3153C0.932059 10.5842 0.896758 10.8501 0.862209 11.119C0.853947 11.1708 0.848689 11.2249 0.873475 11.2707C0.903518 11.3278 0.968111 11.3518 1.01768 11.3924C1.15588 11.5118 1.1371 11.7236 1.14536 11.9054C1.15363 12.1277 1.22723 12.3447 1.34365 12.5348C1.33238 12.4965 1.32487 12.4589 1.31661 12.4206C1.52841 12.4476 1.74848 12.3793 1.90846 12.2381C1.99258 12.1622 2.06318 12.0646 2.16908 12.0263C2.27799 11.9857 2.39741 12.015 2.50857 12.0451C2.85331 12.1397 3.21984 12.2456 3.45042 12.5167C3.56684 12.6549 3.64044 12.8292 3.77939 12.9426C4.09409 13.2085 4.62661 13.0913 4.91427 13.3872C5.14485 13.6261 5.10204 14.0114 5.0397 14.3396C4.88197 14.2532 4.67092 14.4703 4.7633 14.625C4.84742 14.5326 4.94506 14.435 5.06749 14.435C5.19217 14.432 5.30107 14.6032 5.20869 14.6821C5.42575 14.4049 5.95751 14.5191 6.04163 14.8638C6.34582 14.8856 6.65226 14.9067 6.95645 14.9314C6.89786 15.3776 7.8322 15.4039 7.81342 15.8523Z" fill="#E9EFF4"/>
<path d="M5.96351 3.29502C5.84634 3.35286 5.68486 3.28751 5.6413 3.16434C5.59699 3.04116 5.68036 2.88869 5.80804 2.8594C5.8884 2.84062 6.00031 2.84963 6.0251 2.77077C6.03261 2.74674 6.0281 2.72045 6.0281 2.69566C6.0251 2.54695 6.15804 2.42377 6.3015 2.38622C6.44495 2.34942 6.59667 2.37796 6.74238 2.4065C6.7942 2.5139 6.80922 2.63858 6.78444 2.755C6.68455 2.75951 6.58465 2.76326 6.48476 2.76777C6.49377 2.93375 6.47725 3.14255 6.32328 3.20414C6.18508 3.25897 6.00482 3.15682 5.88991 3.24996" fill="#E9EFF4"/>
<path d="M7.519 1.63733C7.79164 1.50664 8.02222 1.30084 8.2911 1.16265C8.75377 0.925306 9.29379 0.904276 9.81354 0.887752C10.9965 0.850949 12.1794 0.814147 13.3624 0.777344C13.0882 0.927559 12.8141 1.07853 12.5392 1.22874C12.3154 1.35192 12.0608 1.4781 11.8152 1.40825C11.8099 1.60578 11.9894 1.78904 12.1877 1.78754C11.7017 2.08797 11.0273 1.78078 10.5143 2.03314C10.2995 2.13905 10.126 2.33883 9.8894 2.37639C9.7527 2.39817 9.61075 2.36137 9.4748 2.39141C9.24723 2.44098 9.10377 2.65654 8.93553 2.81727C8.74175 3.00279 8.45709 3.12972 8.20398 3.04109C7.95087 2.95246 7.81868 2.57617 8.02147 2.40042C8.12136 2.31405 8.26407 2.29978 8.38199 2.23894C8.4999 2.17885 8.59304 2.01737 8.50441 1.91898C8.46611 1.87617 8.40302 1.85965 8.36771 1.81383C8.32941 1.76426 8.33317 1.69366 8.30162 1.63958C8.18145 1.42853 7.84722 1.71243 7.61964 1.62756" fill="#E9EFF4"/>
<path d="M11.1114 2.63543C11.2714 2.59863 11.4103 2.50399 11.5598 2.43489C11.7093 2.36579 11.8873 2.32523 12.0337 2.39809C12.0773 2.50699 11.9519 2.60614 11.8415 2.64519C11.6297 2.71955 11.3998 2.73983 11.1783 2.70303" fill="#E9EFF4"/>
<path d="M20.783 3.82902C20.7394 3.83428 20.6936 3.83203 20.647 3.82076C20.4435 3.7772 20.2888 3.62022 20.1145 3.50606C19.7127 3.24018 19.1644 3.20563 18.7303 3.42269C18.8332 3.27322 18.885 3.08846 18.8738 2.9067L18.8114 2.92848C18.1001 2.51614 17.2665 2.08803 16.4906 2.36517C16.3111 2.43052 16.1489 2.52816 15.9671 2.5905C15.7741 2.65809 15.56 2.68588 15.3948 2.8053C15.2265 2.92472 15.1372 3.18835 15.2814 3.33181C15.4038 3.45423 15.5991 3.42119 15.7703 3.43771C15.9386 3.45423 16.1316 3.62172 16.0392 3.76593C15.2956 4.11368 14.5498 4.46443 13.8062 4.81519C14.148 4.92634 14.3741 5.3139 14.3005 5.66691C14.0503 5.71047 13.8092 5.55875 13.5569 5.54223C13.1904 5.52345 12.8404 5.84641 12.8328 6.21294C12.8223 6.57946 13.1588 6.9182 13.5253 6.91294C13.7995 6.90994 14.0684 6.7447 14.3343 6.81455C14.3448 6.56444 14.516 6.35264 14.6918 6.17388C15.0335 5.83139 15.5217 5.52195 15.9784 5.69019C16.1278 5.74427 16.2555 5.84491 16.3802 5.9448C16.6543 6.16187 16.9285 6.38118 17.2034 6.60125C17.2905 6.51187 17.3769 6.42174 17.464 6.33536C17.6135 6.49309 17.7629 6.65007 17.9146 6.81005C17.9905 6.75822 18.0694 6.7094 18.1452 6.65758C18.1993 6.79878 18.2564 6.93698 18.3112 7.07818C18.333 6.92346 18.3518 6.77174 18.3705 6.61927C18.55 6.62453 18.7401 6.62979 18.9023 6.54867C19.0653 6.46981 19.1847 6.27453 19.1164 6.10629C19.0811 6.01691 18.9969 5.94631 18.9804 5.85092C18.9451 5.6609 19.2162 5.53096 19.3928 5.61734C19.5662 5.70146 19.6534 5.89974 19.727 6.0815C19.7675 5.89674 19.8051 5.71498 19.8464 5.53021C20.0161 5.97635 20.261 6.39395 20.5652 6.76047C20.0086 6.65457 19.422 6.71541 18.9015 6.92947C19.0675 7.16305 19.3522 7.30125 19.6376 7.28998C19.7653 7.28698 19.9065 7.25769 20.0041 7.3388C20.0777 7.40114 20.0965 7.50179 20.11 7.59417C20.1536 7.85479 20.1972 8.11241 20.2377 8.37003C19.944 8.12894 19.5212 8.15598 19.1381 8.14846C18.7551 8.13795 18.3074 8.03205 18.1662 7.67679C18.0145 7.84803 17.9469 8.09213 17.9905 8.32046C17.5939 8.22582 17.138 8.07411 17.0239 7.6828C16.7144 7.79696 16.3291 7.59943 16.245 7.28172C16.2149 7.17056 16.2067 7.03462 16.109 6.97528C16.0497 6.93998 15.9731 6.94524 15.9025 6.9535C15.3137 7.02185 14.7271 7.08719 14.1412 7.15554C13.8213 7.19385 13.49 7.23215 13.2076 7.38913C12.9252 7.54385 12.7007 7.84803 12.733 8.16874C12.1929 8.48945 11.7348 8.95362 11.4253 9.49965C11.3277 9.66789 11.2436 9.86092 11.2819 10.0509C11.3089 10.1974 11.4066 10.3221 11.4366 10.4663C11.4884 10.7134 11.3472 10.9522 11.2879 11.1963C11.1196 11.8911 11.6469 12.5453 12.1359 13.071C12.3664 13.3151 12.6331 13.581 12.9695 13.5945C13.1783 13.6028 13.3766 13.5104 13.5719 13.4338C14.1307 13.2137 14.7391 13.1131 15.3384 13.1371C15.2025 13.243 15.3437 13.4736 15.5127 13.5089C15.6809 13.5442 15.8627 13.4894 16.0257 13.5465C16.3975 13.6794 16.3464 14.2247 16.1781 14.5807C16.2623 14.5642 16.3494 14.5476 16.4358 14.5319C16.3899 14.6513 16.3434 14.7707 16.2976 14.8871C16.8075 14.9517 17.0006 15.6224 16.8819 16.1242C16.7655 16.6266 16.4673 17.0878 16.459 17.6038C16.4568 17.8862 16.5432 18.1603 16.6303 18.4285C16.8481 19.1097 17.0652 19.7909 17.283 20.4744C17.8913 20.5472 18.2406 19.7736 18.8054 19.5318C19.0172 19.4394 19.2666 19.4206 19.4326 19.2629C19.5925 19.1112 19.5407 18.7552 19.3349 18.7552C19.6143 18.7251 19.8532 18.4698 19.8614 18.1874C19.8644 18.1085 19.8532 18.0296 19.8637 17.9515C19.8825 17.8404 19.9531 17.7427 20.0207 17.6473C20.4518 17.0284 20.7312 16.3194 21.0106 15.6194C21.0834 15.4317 21.157 15.2476 21.2299 15.0599C21.5063 14.3621 21.7804 13.6674 22.0568 12.9696C22.165 12.6955 22.2739 12.4243 22.382 12.1495C22.2326 12.3966 21.842 12.3643 21.6189 12.1795C21.3936 11.9955 21.2765 11.7153 21.0999 11.4847C20.9505 11.2865 20.7492 11.1107 20.6786 10.8689C20.638 10.7307 20.6455 10.5812 20.6215 10.437C20.5667 10.1245 20.3609 9.86468 20.2197 9.58227C20.0785 9.29987 20.0049 8.93409 20.2032 8.68624C20.774 9.68216 21.293 10.7074 21.7624 11.7581C21.8142 11.5952 21.9336 11.454 22.0854 11.3751C22.1965 11.315 22.3212 11.291 22.4384 11.2421C22.7478 11.1062 22.9619 10.778 22.9619 10.4415C22.9589 10.105 22.7448 9.7768 22.4324 9.64386C22.2776 9.57851 22.1011 9.55748 21.9547 9.46736C21.8082 9.38098 21.7023 9.1827 21.7947 9.03849C21.8811 8.90255 22.0906 8.90555 22.2341 8.98141C22.3783 9.06027 22.4842 9.19321 22.6194 9.28259C22.717 9.34793 22.8312 9.39075 22.9371 9.45083C23.5102 9.77905 23.6514 10.5256 23.7715 11.1768C23.8369 11.5268 23.9105 11.8746 23.9976 12.2163C24.0006 12.1427 23.9999 12.0668 23.9999 11.994C23.9969 8.83795 22.7764 5.96959 20.783 3.82902ZM21.8818 7.77217C21.803 7.76692 21.7301 7.71509 21.667 7.66627C21.5641 7.58516 21.4605 7.48977 21.4304 7.36209C21.3951 7.21037 21.468 7.03612 21.3869 6.90093C21.3486 6.83558 21.281 6.79502 21.2239 6.74921C21.0744 6.62979 20.9655 6.45854 20.9249 6.27453C20.8896 6.11154 20.9407 5.89448 21.1067 5.86744C21.1856 5.85392 21.2719 5.89749 21.3072 5.97034L21.1961 6.03043C21.3831 6.05221 21.4702 6.33461 21.3268 6.45629C21.308 6.47507 21.2832 6.49159 21.2832 6.51863C21.2832 6.53515 21.2937 6.55092 21.308 6.56219C21.4244 6.68987 21.5987 6.73569 21.7504 6.8168C21.9021 6.89567 22.0516 7.04213 22.0275 7.21037C21.9787 7.22915 21.9329 7.24567 21.8841 7.26445C21.8322 7.31627 21.8736 7.40865 21.9276 7.45973C21.9817 7.5108 22.0523 7.56262 22.0553 7.63848C22.0553 7.72035 21.9629 7.77743 21.8818 7.77217Z" fill="#E9EFF4"/>
<path d="M21.9599 16.1227L21.7639 16.2616C21.8322 16.502 21.6956 16.7836 21.4635 16.8775C21.341 16.9271 21.1781 16.9489 21.1368 17.0743C21.1022 17.1809 21.1848 17.2891 21.1961 17.4003C21.2141 17.585 21.0414 17.7232 20.9167 17.8607C20.792 17.9981 20.7259 18.2565 20.8919 18.3391C20.9302 18.3586 20.9745 18.3624 21.0173 18.3661C21.1976 18.3819 21.3951 18.3872 21.5423 18.282C21.9644 17.9808 21.5634 17.1637 21.9802 16.8542C22.0395 16.8107 22.1139 16.7791 22.1462 16.713C22.2446 16.5185 21.8818 16.3255 21.9599 16.1227Z" fill="#E9EFF4"/>
</svg>
