<svg width="414" height="725" viewBox="0 0 414 725" fill="none" xmlns="http://www.w3.org/2000/svg">
<g clip-path="url(#clip0)">
<rect width="414" height="725" fill="#FEFEFF"/>
<path fill-rule="evenodd" clip-rule="evenodd" d="M-153.051 -218.746C-97.2842 -254.3 -39.1408 -288.543 26.9832 -289.814C97.504 -291.17 178.046 -280.093 223.288 -225.98C267.565 -173.023 232.837 -92.8227 247.99 -25.4777C262.812 40.3966 339.985 101.176 310.576 161.956C280.752 223.593 185.784 205.174 123.077 232.678C72.466 254.877 34.6535 310.85 -20.489 307.165C-75.7546 303.471 -106.606 244.02 -153.287 214.207C-211.16 177.247 -297.858 174.414 -326.253 111.892C-354.882 48.8544 -322.445 -26.1866 -290.318 -87.5153C-260.207 -144.996 -207.766 -183.862 -153.051 -218.746Z" fill="#6C63FF"/>
</g>
<defs>
<clipPath id="clip0">
<rect width="414" height="725" fill="white"/>
</clipPath>
</defs>
</svg>
