<svg width="148" height="153" viewBox="0 0 148 153" fill="none" xmlns="http://www.w3.org/2000/svg">
<path fill-rule="evenodd" clip-rule="evenodd" d="M71.6859 17.046C88.5272 13.2948 103.711 -4.10617 119.876 1.95831C135.952 7.98966 141.73 28.2918 146.042 44.942C149.638 58.8287 142.342 72.3688 141.819 86.7023C141.219 103.146 151.97 121.236 142.76 134.85C133.505 148.529 114.13 152.096 97.6326 152.014C82.8113 151.94 72.0671 138.962 57.9488 134.43C40.5034 128.829 16.8907 137.016 5.68098 122.492C-5.30362 108.261 4.90371 87.6029 8.15714 69.9188C11.1988 53.3859 11.0224 34.0681 23.9243 23.3303C36.583 12.7949 55.6191 20.6247 71.6859 17.046Z" fill="#CE375C" fill-opacity="0.47"/>
</svg>
