<svg width="65" height="133" viewBox="0 0 65 133" fill="none" xmlns="http://www.w3.org/2000/svg">
<path fill-rule="evenodd" clip-rule="evenodd" d="M27.1251 18.407C26.2208 16.379 25.8364 14.1004 26.5554 11.8757C28.6269 5.46559 36.7945 9.33949 37.6249 13.1107C38.4553 16.882 36.1565 25.1894 33.8643 25.1661C32.9501 25.1568 31.2732 24.0607 29.7187 22.3395L28.6765 31.4502L21.8055 29.4871L27.1251 18.407Z" fill="#D4A181"/>
<path fill-rule="evenodd" clip-rule="evenodd" d="M29.6186 18.6271C28.3283 20.1276 26.8199 21.1042 25.6426 20.7678C23.4065 20.1289 22.6176 16.4868 23.4789 13.0593C23.5091 12.9389 23.5414 12.8199 23.5757 12.7024C20.7753 13.7574 18.095 16.6482 14.9651 15.754C10.7069 14.5374 11.3172 4.89613 17.2664 6.5959C21.3124 7.75187 23.1445 8.94949 24.6259 10.3697C25.2197 9.44944 25.9504 8.74186 26.7312 8.32503C26.9287 8.18625 27.2051 8.07845 27.5458 8.00265C27.7562 7.94803 27.968 7.91509 28.1796 7.90524C29.3159 7.79546 30.886 7.93763 32.5752 8.35347C32.8906 8.43112 33.1984 8.51541 33.4967 8.60524C33.9242 6.92511 35.5462 5.92926 37.1243 6.38015C38.7055 6.8319 39.6438 8.56485 39.2201 10.2508C38.8104 11.8813 37.2769 12.8707 35.7463 12.5254C34.8117 12.5628 33.6502 12.4545 32.3981 12.191C32.3972 12.704 32.3254 13.2665 32.1709 13.8813C32.0345 14.4241 31.8336 14.9837 31.5833 15.5387C31.4015 15.1243 31.1002 14.8018 30.7382 14.6983C29.7254 14.409 28.7972 15.0959 28.5601 16.0392C28.2593 17.2363 28.6898 18.2875 29.6186 18.6271Z" fill="#191847"/>
<path fill-rule="evenodd" clip-rule="evenodd" d="M13.0412 57.4254L23.8983 97.3179L29.0049 127.27H34.1304L29.0141 57.4254H13.0412Z" fill="#BA8B72"/>
<path fill-rule="evenodd" clip-rule="evenodd" d="M8.16195 57.4254C8.91952 78.1494 8.62075 89.4528 8.45119 91.3356C8.28164 93.2185 7.31907 105.829 0.759857 127.902H6.09084C14.7774 106.726 17.8099 94.1162 18.8061 91.3356C19.8024 88.555 22.7449 77.2516 27.0408 57.4254H8.16195Z" fill="#D4A181"/>
<path fill-rule="evenodd" clip-rule="evenodd" d="M12.8082 57.4254C15.6322 71.1525 20.5167 93.0645 27.4616 123.161H34.9582C35.5119 92.2698 33.1565 71.938 29.0774 57.4254H12.8082Z" fill="#69A1AC"/>
<path fill-rule="evenodd" clip-rule="evenodd" d="M8.12407 57.4254C8.86601 78.1494 6.94323 98.5664 0.987137 123.484H8.98564C17.6882 102.625 23.9256 82.3082 28.1885 57.4254H8.12407Z" fill="#89C5CC"/>
<path fill-rule="evenodd" clip-rule="evenodd" d="M0 132.01L0.294146 126.954C2.01633 127.491 4.1734 127.28 6.76535 126.322C9.55233 128.427 13.0608 129.864 17.2907 130.634C17.6134 130.693 17.8304 131.019 17.7753 131.363C17.7717 131.386 17.767 131.408 17.7613 131.429L17.3546 132.959H6.76535H0.588291L0 132.01Z" fill="#191847"/>
<path fill-rule="evenodd" clip-rule="evenodd" d="M27.8608 132.01L28.155 126.954C29.8771 127.491 32.0342 127.28 34.6262 126.322C37.4131 128.427 40.9216 129.864 45.1515 130.634C45.4742 130.693 45.6912 131.019 45.6361 131.363C45.6325 131.386 45.6278 131.408 45.6221 131.429L45.2154 132.959H34.6262H28.4491L27.8608 132.01Z" fill="#191847"/>
<path fill-rule="evenodd" clip-rule="evenodd" d="M34.2484 39.6589L45.3583 35.647C47.3958 33.8304 49.3298 32.4857 51.1602 31.6128C51.6966 31.4843 52.5926 31.514 51.5198 32.9069C50.4469 34.2997 49.3771 35.8162 49.7146 36.371C50.0521 36.9257 51.2003 36.4553 51.566 37.3403C51.8099 37.9303 49.8985 38.4305 45.832 38.841L37.2817 44.6441L34.2484 39.6589ZM49.2906 47.6343L54.1719 45.8642C55.2153 43.4481 56.1726 42.3137 57.0436 42.4611C57.7655 42.2555 56.0743 45.2385 57.3849 45.1987C58.6955 45.1588 62.187 43.2913 62.6367 43.8883C63.302 44.7715 62.227 46.8974 61.2146 47.8651C59.3225 49.6738 57.9245 50.1511 54.6073 50.4967C52.8729 50.6774 50.9226 51.3265 48.7565 52.444L49.2906 47.6343Z" fill="#D4A181"/>
<path fill-rule="evenodd" clip-rule="evenodd" d="M29.5323 37.4131C33.0876 38.0403 37.9519 38.1309 43.5663 35.6627L44.7695 40.7507C40.6772 43.7815 35.2792 45.8888 31.0184 44.9555C27.6607 44.22 26.6557 39.5435 29.5323 37.4131Z" fill="#2026A2"/>
<path fill-rule="evenodd" clip-rule="evenodd" d="M33.0602 45.8733C36.6618 47.5834 43.1748 47.5898 52.5991 45.8924C53.9963 51.1581 54.4411 54.8086 53.9334 56.8437C45.6254 59.6506 38.7929 60.3138 33.4005 59.4286C33.0092 62.8593 32.0865 66.0203 30.2946 68.7302C26.6107 74.3012 11.8521 65.7255 6.3939 65.8411C4.98217 53.7806 12.1382 50.3325 13.3537 43.0139C14.6849 34.9992 22.7613 23.796 23.6494 23.963L31.7484 25.4857C31.1829 31.6914 32.3165 38.861 33.0602 45.8733Z" fill="#1F28CF"/>
</svg>
