<svg height="512pt" viewBox="0 -85 512 512" width="512pt" xmlns="http://www.w3.org/2000/svg"><path d="m453.332031 0h-394.664062c-32.363281 0-58.667969 26.304688-58.667969 58.667969v224c0 32.363281 26.304688 58.664062 58.667969 58.664062h394.664062c32.363281 0 58.667969-26.300781 58.667969-58.664062v-224c0-32.363281-26.304688-58.667969-58.667969-58.667969zm0 0" fill="#4db6ac"/><g fill="#fafafa"><path d="m303.980469 277.332031c-3.117188 0-6.230469-.894531-9.003907-2.773437l-117.332031-80c-5.78125-3.964844-8.34375-11.21875-6.273437-17.941406 2.070312-6.71875 8.277344-11.285157 15.296875-11.285157h48c20.585937 0 37.332031-16.746093 37.332031-37.332031s-16.746094-37.332031-37.332031-37.332031h-48c-8.832031 0-16-7.167969-16-16s7.167969-16 16-16h48c38.226562 0 69.332031 31.101562 69.332031 69.332031 0 36.96875-29.097656 67.285156-65.601562 69.246094l74.625 50.882812c7.296874 4.96875 9.175781 14.933594 4.203124 22.226563-3.09375 4.523437-8.128906 6.976562-13.246093 6.976562zm0 0"/><path d="m325.332031 90.667969h-138.664062c-8.832031 0-16-7.167969-16-16s7.167969-16 16-16h138.664062c8.832031 0 16 7.167969 16 16s-7.167969 16-16 16zm0 0"/><path d="m325.332031 149.332031h-138.664062c-8.832031 0-16-7.167969-16-16s7.167969-16 16-16h138.664062c8.832031 0 16 7.167969 16 16s-7.167969 16-16 16zm0 0"/></g><path d="m133.332031 96h-53.332031c-8.832031 0-16-7.167969-16-16s7.167969-16 16-16h53.332031c8.832031 0 16 7.167969 16 16s-7.167969 16-16 16zm0 0" fill="#009688"/><path d="m432 277.332031h-53.332031c-8.832031 0-16-7.167969-16-16s7.167969-16 16-16h53.332031c8.832031 0 16 7.167969 16 16s-7.167969 16-16 16zm0 0" fill="#009688"/></svg>