<svg width="88" height="103" viewBox="0 0 88 103" fill="none" xmlns="http://www.w3.org/2000/svg">
<path fill-rule="evenodd" clip-rule="evenodd" d="M50.6179 20.2894C51.9301 18.7755 52.8183 16.9202 52.6699 14.8414C52.2423 8.85155 43.7583 10.1692 42.108 13.1924C40.4577 16.2155 40.6538 23.884 42.7867 24.4243C43.6373 24.6398 45.4493 24.1119 47.2935 23.0195L46.1359 31.0679H52.9709L50.6179 20.2894Z" fill="#B28B67"/>
<path fill-rule="evenodd" clip-rule="evenodd" d="M46.0038 9.7081C46.9046 9.56292 49.3301 9.4631 49.7774 9.46316C50.0633 9.46316 50.3731 9.52735 50.5424 9.26939C50.681 9.05815 50.6302 8.70089 50.6716 8.45576C50.7197 8.171 50.7879 7.88991 50.8569 7.60953C51.0534 6.81169 51.3504 6.05264 51.766 5.33999C52.5458 4.00297 53.6882 2.95568 55.1305 2.34627C56.7232 1.67338 58.5254 1.5193 60.2386 1.65578C62.0719 1.80181 63.7314 2.39659 65.4623 2.95633C67.1118 3.4897 68.8395 3.69965 70.5646 3.43918C72.3028 3.17678 73.6162 2.25089 75.0823 1.37212C76.5832 0.472459 78.2984 -0.115949 80.0728 0.0193121C81.729 0.145616 83.2556 0.817733 84.6251 1.71558C85.9065 2.55563 86.9639 3.56632 87.5608 4.98879C88.203 6.51893 88.2024 8.19851 87.1464 9.5508C85.6157 11.511 82.7741 12.0179 80.4101 11.9675C79.0426 11.9384 77.6997 11.6931 76.4087 11.2468C74.687 10.6516 73.1991 9.64289 71.5884 8.82443C70.8325 8.44036 70.0512 8.12492 69.2322 7.8977C68.4375 7.67712 67.6547 7.57595 66.9351 8.04779C66.1739 8.54694 65.4918 9.03727 64.621 9.34975C63.7856 9.64953 62.9007 9.8172 62.0107 9.81043C60.279 9.79729 58.5719 9.26701 56.89 8.91181C55.5185 8.62221 54.051 8.33358 52.6527 8.61197C52.0692 8.72815 51.217 8.968 51.0062 9.56395C54.5531 10.1957 55.9462 14.5068 54.9462 17.6716C54.4066 19.3797 51.1625 21.3765 49.9012 20.4785C49.1021 19.9096 49.5872 19.1627 49.9012 18.6697C50.5024 17.7255 50.7081 16.5127 49.5956 15.8553C48.6359 15.2883 47.6269 16.6347 47.6078 16.6332C47.3441 16.6128 45.065 15.346 43.4947 13.4975C41.9457 13.5878 41.7107 12.5839 42.0806 11.763C42.4504 10.942 44.7591 9.90883 46.0038 9.7081Z" fill="#191847"/>
<path d="M55.8188 103C43.7078 103 33.89 93.7896 33.89 82.428C33.89 71.0664 43.7078 61.856 55.8188 61.856C67.9297 61.856 77.7476 71.0664 77.7476 82.428C77.7476 93.7896 67.9297 103 55.8188 103Z" fill="#C5CFD6"/>
<path fill-rule="evenodd" clip-rule="evenodd" d="M14.3792 99.826C18.0282 91.8887 20.6671 84.9773 21.7263 81.3308C23.54 75.0872 24.9197 69.5931 25.2684 67.5414C26.1 62.6487 18.8715 62.3638 17.916 64.7954C16.4699 68.4756 13.9453 80.5674 10.9118 98.8317L14.3792 99.826ZM56.7049 74.9167C53.357 73.6161 41.6328 69.546 35.9783 68.3946C34.3534 68.0637 32.7785 67.7563 31.2978 67.4785C26.8967 66.6528 24.6165 74.456 28.8553 75.0555C39.4116 76.5487 54.3769 78.0906 55.6576 78.2636C57.4526 78.5062 58.809 75.7341 56.7049 74.9167Z" fill="#B28B67"/>
<path fill-rule="evenodd" clip-rule="evenodd" d="M28.5965 65.3312L46.7055 56.2712V54.2989H44.5519C27.0323 58.6864 18.0798 61.4982 17.6944 62.7342C17.6902 62.7475 17.6864 62.7609 17.683 62.7742C17.6741 62.7856 17.6655 62.797 17.657 62.8085C14.1849 67.5014 12.1056 90.4124 11.4231 92.1279L18.0762 93.1034C20.6213 83.8284 28.7638 77.367 28.5475 66.2584C28.6059 65.9325 28.6206 65.6235 28.5965 65.3312Z" fill="#1F28CF"/>
<path fill-rule="evenodd" clip-rule="evenodd" d="M45.2009 70.7119C46.8578 70.3859 48.3837 70.095 49.6893 69.8699C58.1229 68.4161 60.5822 63.9793 59.1282 54.2989H43.5894C41.0511 55.0155 27.8598 60.4523 21.0156 63.344C16.4857 65.2579 17.9137 72.1572 20.4789 73.9527C20.4929 74.0629 20.539 74.1377 20.6213 74.1712C34.4206 79.7922 45.3371 76.8429 48.9838 77.7852L50.6706 72.5558L45.2009 70.7119Z" fill="#2B44FF"/>
<path fill-rule="evenodd" clip-rule="evenodd" d="M55.5603 74.0855C56.4644 74.1705 57.1062 74.3039 57.4857 74.4859C57.9473 74.7071 58.5833 75.1056 59.3939 75.6812C59.1327 76.2074 56.7856 80.937 52.3525 89.8699C50.9292 89.6441 50.3652 89.1103 50.6606 88.2685C50.9559 87.4267 51.1941 86.7239 51.3752 86.1603L51.6565 78.1316C51.6619 77.9771 51.7938 77.8562 51.951 77.8615C51.9536 77.8616 51.9563 77.8617 51.959 77.8619L53.2157 77.9395C53.9298 77.3715 54.4009 76.8575 54.6291 76.3978C54.8145 76.0242 54.917 75.4347 54.9366 74.6293L54.9366 74.6293C54.9441 74.3203 55.2052 74.0757 55.5197 74.0831C55.5332 74.0834 55.5468 74.0842 55.5603 74.0855Z" fill="#E4E4E4"/>
<path fill-rule="evenodd" clip-rule="evenodd" d="M16.0399 98.3543C16.3585 99.1902 16.5178 99.8157 16.5178 100.231C16.5178 100.735 16.4322 101.472 16.2611 102.44C15.6654 102.44 10.3111 102.44 0.198475 102.44C-0.218937 101.084 0.0220165 100.352 0.921336 100.244C1.82066 100.136 2.56774 100.038 3.16258 99.9508L10.6283 96.6797C10.772 96.6168 10.9404 96.6802 11.0044 96.8214C11.0055 96.8238 11.0066 96.8263 11.0076 96.8287L11.4875 97.9728C12.32 98.3546 12.9965 98.5454 13.5171 98.5454C13.94 98.5454 14.524 98.3776 15.2691 98.0419L15.2691 98.0419C15.5551 97.913 15.8932 98.0364 16.0243 98.3175C16.0299 98.3296 16.0351 98.3419 16.0399 98.3543Z" fill="#E4E4E4"/>
<path fill-rule="evenodd" clip-rule="evenodd" d="M29.0485 46.6347L18.7293 42.1808C16.9216 40.4105 15.176 39.0649 13.4926 38.1442C12.9892 37.9867 12.1292 37.9391 13.0467 39.2562C13.9643 40.5734 14.8692 41.9994 14.5025 42.461C14.1359 42.9226 13.0738 42.4131 12.6542 43.1638C12.3745 43.6643 14.1648 44.2629 18.0251 44.9598L25.7535 50.7833L29.0485 46.6347ZM70.7679 47.8614L64.932 48.9994C70.801 59.7487 73.9484 65.4459 74.3742 66.0908C75.3324 67.542 74.4384 70.2016 74.1082 71.6022C76.18 72.0761 75.3629 69.0114 77.9848 69.6513C80.3779 70.2354 82.4069 71.7343 84.6384 69.7128C84.9127 69.4642 85.1136 68.6874 84.1782 68.289C81.8478 67.2963 78.4049 65.4376 77.8466 64.716C77.0853 63.7319 74.7257 58.1137 70.7679 47.8614Z" fill="#B28B67"/>
<path fill-rule="evenodd" clip-rule="evenodd" d="M49.0707 26.4027L46.6081 25.9876C41.2443 31.1012 39.0554 43.3866 35.4808 45.0128C32.1012 46.5503 27.3103 45.0625 21.6156 43.0536L19.8716 46.8831C25.0458 52.3846 36.0688 57.0326 40.5369 54.3791C47.6805 50.1369 49.3296 34.9846 49.0707 26.4027Z" fill="#DB2721"/>
<path fill-rule="evenodd" clip-rule="evenodd" d="M59.8058 56.8179C49.9317 56.8179 42.6684 56.8179 38.0162 56.8179C37.0205 56.8179 37.2081 55.405 37.352 54.692C39.0132 46.463 45.4976 37.5926 45.4976 25.879L51.7828 24.9103C56.9814 33.1275 58.7792 43.2445 59.8058 56.8179Z" fill="#DDE3E9"/>
<path fill-rule="evenodd" clip-rule="evenodd" d="M61.9791 48.4865C66.4211 56.3611 70.1548 62.0305 73.1803 65.4946L77.7476 64.6154C74.8055 46.6833 66.2857 33.4483 52.1882 24.9103H51.0538L49.6997 24.9103C44.0573 43.8133 42.5017 56.4085 45.0331 62.6957H64.6472C64.3369 58.0952 63.3419 53.2301 61.9791 48.4865H61.9791Z" fill="#FF4133"/>
</svg>
