<svg width="409" height="725" viewBox="0 0 409 725" fill="none" xmlns="http://www.w3.org/2000/svg">
<g clip-path="url(#clip0)">
<rect width="409" height="725" fill="#6C63FF"/>
<path fill-rule="evenodd" clip-rule="evenodd" d="M0 298.143L6.32667 360.393C12.1667 422.643 24.3333 547.143 36.5 547.143C48.6667 547.143 60.8333 422.643 73 378.179C85.1667 333.714 97.3333 369.286 109.5 431.536C121.667 493.786 133.833 582.714 146 627.179C158.167 671.643 170.333 671.643 182.5 636.071C194.667 600.5 206.833 529.357 219 520.464C231.167 511.571 243.333 564.929 255.5 582.714C267.667 600.5 279.833 582.714 292 529.357C304.167 476 316.333 387.071 328.5 324.821C340.667 262.571 352.833 227 365 227C377.167 227 389.333 262.571 401.5 289.25C413.667 315.929 425.833 333.714 438 387.071C450.167 440.429 462.333 529.357 474.5 591.607C486.667 653.857 498.833 689.429 511 698.321C523.167 707.214 535.333 689.429 547.5 689.429C559.667 689.429 571.833 707.214 578.16 716.107L584 725V725H578.16C571.833 725 559.667 725 547.5 725C535.333 725 523.167 725 511 725C498.833 725 486.667 725 474.5 725C462.333 725 450.167 725 438 725C425.833 725 413.667 725 401.5 725C389.333 725 377.167 725 365 725C352.833 725 340.667 725 328.5 725C316.333 725 304.167 725 292 725C279.833 725 267.667 725 255.5 725C243.333 725 231.167 725 219 725C206.833 725 194.667 725 182.5 725C170.333 725 158.167 725 146 725C133.833 725 121.667 725 109.5 725C97.3333 725 85.1667 725 73 725C60.8333 725 48.6667 725 36.5 725C24.3333 725 12.1667 725 6.32667 725H0V298.143Z" fill="#E3B34C"/>
<path fill-rule="evenodd" clip-rule="evenodd" d="M0 495.584L15.643 488.596C30.1687 481.608 61.4548 464.137 91.6235 488.596C121.792 509.56 151.961 565.465 183.247 600.405C213.416 638.84 243.584 652.816 273.753 631.852C305.039 607.393 335.208 551.489 365.377 537.512C395.545 523.536 426.831 551.489 441.357 565.465L457 579.441V838H441.357C426.831 838 395.545 838 365.377 838C335.208 838 305.039 838 273.753 838C243.584 838 213.416 838 183.247 838C151.961 838 121.792 838 91.6235 838C61.4548 838 30.1687 838 15.643 838H0V495.584Z" fill="#CE375C"/>
<path fill-rule="evenodd" clip-rule="evenodd" d="M11.4629 -250.834C85.2736 -253.92 163.736 -319.069 225.819 -279.027C287.394 -239.314 265.977 -143.697 286.59 -73.3858C306.355 -5.9664 375.167 61.0925 343.989 124.053C311.943 188.768 215.166 176.614 148.751 204.969C101.534 225.128 61.8707 256.282 11.4629 266.023C-49.6406 277.83 -121.758 305.171 -170.668 266.69C-219.727 228.092 -191.033 147.347 -213.434 89.0817C-237.915 25.4028 -311.302 -19.3277 -306.802 -87.402C-302.078 -158.871 -253.967 -228.91 -190.252 -261.628C-128.851 -293.158 -57.5005 -247.95 11.4629 -250.834Z" fill="#64C3EB"/>
<path fill-rule="evenodd" clip-rule="evenodd" d="M534.505 -36.6342C594.478 -52.7402 664.396 -116.836 712.06 -72.8177C760.755 -27.8481 713.328 63.958 719.792 134.478C724.375 184.474 749.468 229.037 744.303 278.96C738.221 337.76 723.258 396.181 688.161 440.269C647.461 491.395 595.328 537.408 534.505 542.503C471.896 547.747 412.911 510.762 363.285 467.48C314.846 425.233 275.424 369.401 259.626 302.761C244.333 238.257 248.695 166.428 278.179 108.499C305.101 55.6052 361.034 35.8539 409.417 8.4592C449.51 -14.2419 490.85 -24.9102 534.505 -36.6342Z" fill="#5BB483"/>
</g>
<defs>
<clipPath id="clip0">
<rect width="409" height="725" fill="white"/>
</clipPath>
</defs>
</svg>
