<svg width="72" height="122" viewBox="0 0 72 122" fill="none" xmlns="http://www.w3.org/2000/svg">
<path fill-rule="evenodd" clip-rule="evenodd" d="M37.7181 15.2936C36.7491 13.6175 36.1407 11.6152 36.3791 9.45361C37.066 3.22559 43.8158 5.21165 44.9704 8.48903C46.1249 11.7664 45.5283 19.7651 43.7815 20.1765C43.0849 20.3405 41.6573 19.6589 40.2363 18.385L40.7068 26.8779L35.2082 26.3871L37.7181 15.2936Z" fill="#915B3C"/>
<path fill-rule="evenodd" clip-rule="evenodd" d="M34.096 7.15622C33.9307 6.91571 33.8514 6.58639 33.7842 6.27443C33.7145 5.95036 33.6475 5.62325 33.6077 5.28887C33.5283 4.62076 33.5687 3.86418 33.9643 3.38621C34.2815 3.00293 34.734 2.8587 35.1444 2.85522C35.4179 2.85287 35.6946 2.92643 35.9494 3.05913C36.2021 3.19077 36.4133 3.42701 36.6567 3.58367C36.7051 2.87565 36.8409 2.14241 37.1558 1.56228C37.4588 1.00411 37.9089 0.715887 38.4059 0.673366C38.916 0.629735 39.4066 0.825188 39.8418 1.17779C39.9508 1.26609 40.0585 1.35802 40.1608 1.46032C40.2464 1.54599 40.3347 1.64783 40.4385 1.68882C40.5541 1.73456 40.6172 1.65307 40.6996 1.55039C40.7962 1.42999 40.9034 1.32591 41.0157 1.2352C41.5123 0.834149 42.1421 0.707238 42.6748 1.02175C42.9202 1.16666 43.154 1.39641 43.3094 1.69812C43.4479 1.96707 43.5345 2.38181 43.7352 2.57849C43.8203 2.66198 43.8889 2.56756 43.9743 2.50087C44.1025 2.40067 44.2257 2.28846 44.3552 2.19141C44.5372 2.05506 44.7314 1.95826 44.936 1.91678C45.2355 1.85604 45.6416 1.9128 45.6989 2.41306C45.7204 2.60097 45.6853 2.79675 45.6649 2.98232C45.6368 3.23713 45.6082 3.49179 45.5767 3.74592C45.5529 3.93887 45.5259 4.12488 45.4867 4.31296C45.4659 4.41322 45.4076 4.59839 45.4361 4.7032C45.4718 4.83421 45.6727 4.77947 45.7566 4.7914C45.9222 4.81499 46.087 4.86708 46.2357 4.97141C46.3509 5.05229 46.4704 5.16677 46.5111 5.34546C46.5362 5.45522 46.522 5.56441 46.5014 5.67319C46.4767 5.80375 46.4928 5.87561 46.4986 6.01009C46.7294 5.88974 47.5198 5.64712 47.5891 6.1663C47.6122 6.33917 47.5279 6.52466 47.4638 6.66298C47.3513 6.90561 47.2093 7.12387 47.065 7.33122C46.764 7.76379 46.4129 8.12873 46.0399 8.43435C46.4423 8.70711 46.5127 9.41198 46.1304 9.79408C45.9616 9.96278 45.7459 9.98444 45.5463 9.95486C45.4732 9.94404 45.3695 9.89864 45.3109 9.90979C45.2794 9.91578 45.2443 9.9464 45.2011 9.94631C44.9172 9.94579 44.6029 9.83039 44.331 9.72567C43.8465 9.53907 43.3967 9.19973 43.0409 8.7123C42.9497 8.58727 42.8727 8.51311 42.7412 8.50309C42.6259 8.4943 42.5107 8.52452 42.3955 8.51797C42.0905 8.50072 41.8264 8.28625 41.5507 8.13457C41.5067 8.6205 41.3685 9.14768 41.1883 9.57229C41.0413 9.91855 40.7724 9.94678 40.5093 9.95481C39.6679 9.9806 38.8351 9.79368 37.9981 9.72046C38.7955 10.0265 39.6274 10.1976 40.4154 10.5444C40.7716 10.7011 40.4773 10.9887 40.3102 11.1913C40.0351 11.525 39.8209 11.9497 39.6636 12.4033C39.3034 11.7084 38.6267 11.2113 37.9949 11.3585C37.2969 11.5211 36.7491 12.6618 37.141 13.552C37.3686 14.0688 37.8179 14.3006 38.1888 14.547C37.8687 14.9164 37.7644 15.495 37.5578 15.9717C37.4559 16.2067 37.3165 16.4704 37.1138 16.5374C37.0387 16.5622 36.9526 16.5572 36.8906 16.6283C36.8138 16.7163 36.791 16.8204 36.6951 16.8934C36.3123 17.1848 35.7435 17.1089 35.4431 16.6573C35.1714 16.2488 35.2807 15.6506 35.5463 15.2848C35.1687 15.0431 34.4746 14.7137 34.6715 13.9539C33.8326 13.8072 31.8817 11.8796 33.0828 10.7055C32.4865 10.2021 31.9761 9.05662 32.4277 8.12731C32.7755 7.41171 33.5079 7.14332 34.096 7.15622Z" fill="#191847"/>
<path fill-rule="evenodd" clip-rule="evenodd" d="M30.6948 51.932L47.7606 88.3518L60.5551 119.142H63.3109L41.8736 51.932L30.6948 51.932Z" fill="#784931"/>
<path fill-rule="evenodd" clip-rule="evenodd" d="M58.8701 117.72C58.6131 118.596 58.4847 119.251 58.4847 119.686C58.4847 120.214 58.5537 120.986 58.6916 122C59.1721 122 63.49 122 71.6453 122C71.9819 120.579 71.7876 119.812 71.0624 119.699C70.3371 119.586 69.7346 119.484 69.2549 119.392L63.2342 115.966C63.1183 115.9 62.9826 115.967 62.9309 116.115C62.93 116.117 62.9292 116.12 62.9283 116.122L62.5413 117.321C61.8699 117.72 61.3244 117.92 60.9046 117.92C60.5635 117.92 60.0926 117.745 59.4916 117.393L59.4916 117.393C59.261 117.258 58.9884 117.387 58.8827 117.682C58.8781 117.694 58.8739 117.707 58.8701 117.72Z" fill="#E4E4E4"/>
<path fill-rule="evenodd" clip-rule="evenodd" d="M57.0017 114.211L62.3162 112.159C59.9878 103.274 57.134 93.4955 53.7547 82.8247C50.3755 72.154 46.7464 61.8564 42.8673 51.932H27.8571C32.1698 64.4859 36.7419 75.8927 41.5733 86.1525C46.4047 96.4122 51.5475 105.765 57.0017 114.211Z" fill="#5C63AB"/>
<path fill-rule="evenodd" clip-rule="evenodd" d="M29.5733 51.932C27.9626 64.7301 24.856 81.0813 24.5628 81.5859C24.3674 81.9223 17.3311 84.932 3.45392 90.6151L4.04921 93.7171C20.5977 90.6693 29.3173 88.3046 30.2081 86.6231C31.5443 84.101 38.2161 64.1757 40.8002 51.932H29.5733Z" fill="#915B3C"/>
<path fill-rule="evenodd" clip-rule="evenodd" d="M8.33198 87.9336L9.38051 92.9297C21.7578 94.3154 29.3417 93.3141 32.1321 89.9258C34.9225 86.5376 38.1027 73.8729 41.6727 51.932H27.3596C25.0977 69.8987 23.8332 79.2591 23.566 80.0133C23.2988 80.7676 18.2208 83.4076 8.33198 87.9336Z" fill="#8991DC"/>
<path fill-rule="evenodd" clip-rule="evenodd" d="M4.13352 89.3227C3.41342 89.1518 2.8857 89.104 2.55035 89.1795C2.14248 89.2713 1.55929 89.492 0.800762 89.8416C0.884191 90.4456 1.63399 95.8736 3.05015 106.126C4.20455 106.302 4.76247 105.925 4.72392 104.993C4.68536 104.062 4.65965 103.287 4.64677 102.668L6.24458 94.5043C6.27532 94.3472 6.20049 94.1881 6.07743 94.1488C6.07532 94.1481 6.07321 94.1475 6.07109 94.1469L5.07936 93.8685C4.65428 93.0939 4.40529 92.4428 4.3324 91.9151C4.27317 91.4864 4.32703 90.8638 4.49397 90.0473L4.49398 90.0473C4.55804 89.7339 4.41099 89.4136 4.16552 89.3318C4.15494 89.3283 4.14427 89.3253 4.13352 89.3227Z" fill="#E4E4E4"/>
<path fill-rule="evenodd" clip-rule="evenodd" d="M51.1925 49.0428L57.4731 57.4295C59.3368 58.544 60.8557 59.7505 62.0301 61.0492C62.2903 61.4797 62.5642 62.2946 61.2955 61.8788C60.0268 61.4631 58.6777 61.0986 58.4228 61.6187C58.168 62.1387 58.8538 62.9836 58.3907 63.6584C58.082 64.1083 57.1266 62.5909 55.5245 59.1063L48.9025 53.7165L51.1925 49.0428ZM18.9326 38.8773L22.7888 40.6945C16.548 51.3646 13.2166 56.9991 12.7944 57.5981C11.8446 58.9459 12.2153 61.8429 12.2986 63.3459C10.587 63.5028 11.6316 60.4621 9.46045 60.7021C7.47872 60.9211 5.66955 62.1458 4.15125 59.6939C3.96459 59.3924 3.90435 58.5559 4.70079 58.2942C6.68502 57.6421 9.66692 56.2727 10.2044 55.6156C10.9374 54.7196 13.8468 49.1402 18.9326 38.8773Z" fill="#915B3C"/>
<path fill-rule="evenodd" clip-rule="evenodd" d="M52.7717 50.1563C53.7117 50.2802 54.6943 50.7038 55.7125 51.413C56.2136 51.762 56.3981 52.5635 56.1247 53.203C55.9659 53.5745 55.6875 53.8097 55.3839 53.8732C55.5644 54.1127 55.7469 54.3516 55.9314 54.5898L53.4561 58.9232C46.4704 52.3245 39.7793 47.0289 37.6106 38.2428C36.8827 35.2939 38.5227 26.2029 38.8787 22.8415L41.4726 22.1196C43.6156 31.776 47 41.339 52.7717 50.1563Z" fill="#69A1AC"/>
<path fill-rule="evenodd" clip-rule="evenodd" d="M26.0948 51.9609C33.0678 54.5585 38.6647 55.8183 42.8855 55.7402C43.4084 55.7305 43.7707 52.9419 43.6412 52.1288C41.6232 39.4676 40.4173 30.26 41.5531 22.0369C40.8211 22.333 39.6387 22.1359 38.006 21.4457C32.3313 28.9061 28.9179 38.1632 26.0948 51.9609Z" fill="#191847"/>
<path fill-rule="evenodd" clip-rule="evenodd" d="M24.5803 53.0633C24.3789 52.7189 24.313 52.2557 24.4368 51.8217L24.6724 50.9952C24.8321 50.4352 25.258 50.097 25.7014 50.1289C25.8371 49.7128 25.962 49.2973 26.075 48.8824C27.03 45.3773 26.7385 41.6641 27.255 38.1984C23.0709 41.3408 18.8635 47.4461 14.6328 56.5141L10.5826 53.9481C10.8524 53.2118 11.1267 52.4863 11.4055 51.7717C10.9618 51.3031 10.6121 49.5347 11.0646 49.3538C11.5319 49.167 12.0131 49.0697 12.5071 49.0599C18.5041 34.8822 26.4306 25.3105 36.2867 20.3446L37.0735 20.5217L38.8589 20.9236C36.3356 33.5378 42.9408 63.8038 36.0159 86.8237C29.0379 87.2264 20.2759 79.1146 10.2891 81.7719C11.9622 72.2505 20.474 62.5383 24.5803 53.0632L24.5803 53.0633Z" fill="#89C5CC"/>
<path fill-rule="evenodd" clip-rule="evenodd" d="M37.1809 20.8436L35.3813 25.1616L37.2568 29.1244L34.7604 31.3449L38.347 43.7308L33.6122 31.1096L36.0739 28.8581L34.4072 25.354L37.1809 20.8436Z" fill="black" fill-opacity="0.1"/>
<path fill-rule="evenodd" clip-rule="evenodd" d="M36.242 47.7225C35.7423 47.61 35.4087 47.0018 35.4968 46.3639C35.5849 45.7261 36.0613 45.3002 36.561 45.4127C37.0607 45.5252 37.3943 46.1334 37.3062 46.7712C37.2181 47.409 36.7416 47.8349 36.242 47.7225ZM36.4556 54.6175C35.9559 54.505 35.6223 53.8968 35.7104 53.259C35.7985 52.6212 36.275 52.1953 36.7746 52.3078C37.2743 52.4202 37.6079 53.0284 37.5198 53.6663C37.4317 54.3041 36.9552 54.73 36.4556 54.6175ZM35.7645 61.3089C35.2648 61.1965 34.9312 60.5882 35.0193 59.9504C35.1074 59.3126 35.5839 58.8867 36.0835 58.9992C36.5832 59.1116 36.9168 59.7199 36.8287 60.3577C36.7406 60.9955 36.2641 61.4214 35.7645 61.3089Z" fill="black" fill-opacity="0.4"/>
</svg>
