<svg width="24" height="24" viewBox="0 0 24 24" fill="none" xmlns="http://www.w3.org/2000/svg">
<g clip-path="url(#clip0)">
<path d="M14.2983 19.3395L9.00511 14.0463C8.67332 13.7145 8.67296 13.1778 9.00401 12.8467C9.13493 12.7158 9.29845 12.6365 9.46855 12.6098C9.72764 12.5679 10.0032 12.6472 10.2037 12.8477L8.84068 11.4848C8.67497 11.3189 8.59166 11.1019 8.59184 10.8851C8.59184 10.8401 8.59551 10.7947 8.60265 10.7495C8.62993 10.5792 8.70885 10.416 8.83977 10.2851C8.96941 10.1555 9.12999 10.0769 9.29771 10.0491C9.52623 10.011 9.76683 10.0667 9.95872 10.2163L9.43999 9.69752C9.27428 9.53181 9.19096 9.31391 9.19096 9.09711C9.19078 9.05116 9.19463 9.00465 9.20232 8.95924C9.22942 8.79023 9.30833 8.62782 9.4387 8.49744C9.56962 8.36652 9.73295 8.28742 9.90379 8.26051C10.1629 8.21876 10.4385 8.29804 10.639 8.49854L11.233 9.09254C11.0326 8.89222 10.9532 8.61646 10.9949 8.35737C11.0218 8.18726 11.1006 8.02412 11.2319 7.89283C11.5627 7.56214 12.1 7.56232 12.4316 7.89393L15.8714 11.3339L15.8811 11.3202C16.0554 11.1459 16.2608 11.0219 16.48 10.9479C17.0211 10.7658 17.6435 10.8903 18.075 11.3218L19.679 12.9259C19.9874 13.2342 20.1602 13.6519 20.161 14.0873L20.1619 15.0907C20.1623 15.5596 20.3488 16.0095 20.681 16.3417L21.0388 16.6993L16.9477 20.7902L16.4906 20.3332C16.1867 20.0292 15.7824 19.8461 15.3537 19.8181C14.9555 19.7919 14.5807 19.622 14.2983 19.3395Z" fill="#FECBAA"/>
<path d="M16.6818 21.0558L21.3252 16.4124C21.4782 16.2593 21.7263 16.2593 21.8792 16.4124L23.5331 18.066C23.6859 18.2191 23.6859 18.467 23.5331 18.6201L18.8895 23.2637C18.7364 23.4166 18.4885 23.4166 18.3354 23.2637L16.6818 21.6099C16.5287 21.457 16.5287 21.2089 16.6818 21.0558Z" fill="#FDD559"/>
<path d="M9.70094 19.3401L14.9941 14.0469C15.3259 13.7151 15.3261 13.1784 14.9951 12.8473C14.8641 12.7162 14.7006 12.6371 14.5307 12.6102C14.2714 12.5685 13.996 12.6477 13.7954 12.8482L15.1584 11.4852C15.3241 11.3195 15.4074 11.1023 15.4072 10.8855C15.4072 10.8405 15.4038 10.7951 15.3964 10.75C15.3691 10.5798 15.2902 10.4166 15.1593 10.2857C15.0299 10.156 14.8691 10.0775 14.7014 10.0497C14.4728 10.0116 14.2322 10.0672 14.0404 10.2167L14.5591 9.69791C14.7248 9.5322 14.8081 9.31449 14.8081 9.09769C14.8083 9.05155 14.8045 9.00523 14.7968 8.95982C14.7697 8.79081 14.6907 8.62821 14.5604 8.49802C14.4295 8.3671 14.2661 8.28782 14.0955 8.26109C13.8362 8.21934 13.5608 8.29844 13.3601 8.49894L12.7661 9.09293C12.9664 8.8928 13.0459 8.61704 13.0042 8.35777C12.9774 8.18784 12.8985 8.0247 12.7672 7.89341C12.4363 7.56254 11.8991 7.5629 11.5677 7.89433L8.12769 11.3343L8.11799 11.3208C7.94367 11.1465 7.73823 11.0225 7.51905 10.9485C6.97816 10.7662 6.3556 10.8908 5.92402 11.3224L4.3202 12.9264C4.01185 13.2348 3.83881 13.6524 3.83826 14.0879L3.83717 15.0913C3.83698 15.5604 3.6504 16.0101 3.31824 16.3423L2.96046 16.6999L7.0514 20.7908L7.50861 20.3338C7.81257 20.0298 8.21687 19.8467 8.64552 19.8187C9.04359 19.7925 9.4184 19.6224 9.70094 19.3401Z" fill="#FECBAA"/>
<path d="M7.31744 21.0563L2.67388 16.4128C2.52081 16.2597 2.2727 16.2597 2.1198 16.4128L0.465996 18.0666C0.313103 18.2195 0.313103 18.4676 0.465996 18.6207L5.10955 23.264C5.26263 23.4171 5.51055 23.4171 5.66363 23.264L7.31744 21.6104C7.47033 21.4573 7.47033 21.2092 7.31744 21.0563Z" fill="#FF84A7"/>
<path d="M15.385 6.6543V14.14C15.385 14.6093 15.0058 14.9889 14.5374 14.9889C14.3523 14.9889 14.1808 14.9294 14.0414 14.8281C13.8286 14.6743 13.6899 14.4236 13.6899 14.14V16.0676C13.6899 16.3019 13.5952 16.5143 13.4419 16.6676C13.4101 16.6995 13.3755 16.7289 13.3383 16.7557C13.1986 16.8569 13.0276 16.9164 12.8424 16.9164C12.6592 16.9164 12.49 16.8584 12.3515 16.7595C12.1631 16.6249 12.0324 16.4155 12.0024 16.174V16.9077C12.0024 17.142 11.9071 17.3548 11.7539 17.5081C11.7217 17.5408 11.686 17.5709 11.6484 17.5976C11.5096 17.6979 11.3391 17.7571 11.1548 17.7571C10.9696 17.7571 10.7981 17.6974 10.6584 17.5958C10.4456 17.442 10.3068 17.1913 10.3068 16.9077V16.0676C10.3068 16.3506 10.168 16.6021 9.95524 16.7557C9.81608 16.8569 9.64488 16.9164 9.45939 16.9164C8.99156 16.9164 8.6118 16.5363 8.6118 16.0676V11.2026L8.59532 11.2056C8.34886 11.2056 8.11577 11.1479 7.90867 11.0452C7.39726 10.7916 7.04515 10.2633 7.04515 9.65302V7.3847C7.04515 6.94873 7.21819 6.53107 7.52562 6.22253L8.23442 5.51245C8.56584 5.18048 8.75187 4.73041 8.75187 4.26074V3.755H14.5374V4.40137C14.5374 4.8313 14.694 5.24658 14.9771 5.56958C15.2402 5.86951 15.385 6.25494 15.385 6.6543Z" fill="#FEDFC5"/>
<path d="M14.995 12.8473C14.8641 12.7162 14.7006 12.6371 14.5307 12.6102C14.2714 12.5685 13.996 12.6478 13.7955 12.8483L15.1586 11.4852C15.3243 11.3195 15.4074 11.1023 15.4074 10.8855C15.4074 10.8405 15.4037 10.7951 15.3964 10.75C15.3693 10.5796 15.2904 10.4166 15.1595 10.2857C15.0298 10.156 14.8691 10.0775 14.7013 10.0497C14.473 10.0116 14.2324 10.0672 14.0405 10.2167L14.5592 9.69792C14.725 9.53221 14.8081 9.31449 14.8081 9.0977C14.8085 9.05155 14.8044 9.00523 14.7967 8.95982C14.7696 8.79081 14.6907 8.62821 14.5605 8.49803C14.4296 8.3671 14.2661 8.28782 14.0954 8.26109C13.8362 8.21934 13.5608 8.29844 13.3603 8.49894L12.7663 9.09294C12.9664 8.8928 13.0461 8.61704 13.0041 8.35777C12.9774 8.18784 12.8985 8.0247 12.7672 7.89341C12.4363 7.56254 11.8991 7.5629 11.5677 7.89433L8.12767 11.3343L8.11797 11.3208C7.94365 11.1465 7.7382 11.0225 7.51903 10.9485C7.25957 10.861 6.98125 10.8451 6.71428 10.8989C6.92943 11.2239 7.2299 11.4935 7.59648 11.6753C7.6981 11.7256 7.80229 11.7679 7.90849 11.8022V16.0676C7.90849 16.9235 8.60411 17.6196 9.45921 17.6196C9.56194 17.6196 9.66338 17.6097 9.76207 17.5901C9.87248 17.8157 10.0369 18.0142 10.2444 18.1642C10.3731 18.2579 10.5135 18.3297 10.6613 18.3795L14.9939 14.0467C15.3259 13.7151 15.3263 13.1784 14.995 12.8473Z" fill="#FFAE85"/>
<path d="M16.0876 14.1401V11.1465C16.0149 11.1974 15.9455 11.2554 15.8805 11.3204L15.871 11.334L12.431 7.89396C12.0996 7.56254 11.5622 7.56217 11.2315 7.89304C11.1002 8.02433 11.0213 8.1873 10.9944 8.3574C10.9526 8.61668 11.0323 8.89244 11.2324 9.09257L10.6384 8.49857C10.4379 8.29807 10.1625 8.21897 9.90324 8.26072C9.73259 8.28745 9.56907 8.36674 9.43815 8.49766C9.30797 8.62785 9.22905 8.79045 9.20177 8.95945C9.19426 9.00486 9.19023 9.05119 9.1906 9.09733C9.1906 9.31413 9.27373 9.53184 9.43962 9.69755L9.95836 10.2163C9.76628 10.0669 9.52568 10.0112 9.29735 10.0493C9.12962 10.0771 8.96886 10.1557 8.83922 10.2853C8.7083 10.4162 8.62938 10.5792 8.60228 10.7497C8.59496 10.7947 8.59129 10.8401 8.59129 10.8852C8.59129 11.102 8.67442 11.3191 8.84013 11.4848L10.2032 12.8479C10.0027 12.6474 9.72728 12.5681 9.468 12.6098C9.29808 12.6368 9.13457 12.7159 9.00365 12.8468C8.67259 13.178 8.67296 13.7147 9.00474 14.0465L12.5508 17.5925C12.646 17.6106 12.7434 17.6198 12.8421 17.6198C13.1706 17.6198 13.4848 17.518 13.7492 17.3263C13.8167 17.2776 13.8805 17.2232 13.9387 17.165C14.2315 16.8724 14.3926 16.4827 14.3926 16.0678V15.6857C14.4404 15.6901 14.4886 15.6923 14.5371 15.6923C15.392 15.6921 16.0876 14.9959 16.0876 14.1401Z" fill="#FFAE85"/>
<path d="M15.385 6.6543V14.14C15.385 14.6093 15.0058 14.9889 14.5374 14.9889C14.5248 14.9889 14.5113 14.9889 14.4975 14.988C14.3283 14.9801 14.1714 14.9224 14.0425 14.8287C14.042 14.8287 14.042 14.8281 14.0414 14.8281C13.8286 14.6743 13.6899 14.4236 13.6899 14.14V16.0676C13.6899 16.3019 13.5952 16.5143 13.4419 16.6676C13.4101 16.6995 13.3755 16.7289 13.3383 16.7557C13.1986 16.8569 13.0276 16.9164 12.8424 16.9164C12.6592 16.9164 12.49 16.8584 12.3515 16.7595C12.1631 16.6249 12.0324 16.4155 12.0024 16.174V16.9077C12.0024 17.142 11.9071 17.3548 11.7539 17.5081C11.7217 17.5408 11.686 17.5709 11.6484 17.5976C11.5096 17.6979 11.3391 17.7571 11.1548 17.7571C10.9696 17.7571 10.7981 17.6974 10.6584 17.5958C10.4456 17.442 10.3068 17.1913 10.3068 16.9077V16.0676C10.3068 16.3506 10.168 16.6021 9.95524 16.7557C9.81608 16.8569 9.64488 16.9164 9.45939 16.9164C8.99156 16.9164 8.6118 16.5363 8.6118 16.0676V11.2026L8.59532 11.2056C8.34886 11.2056 8.11577 11.1479 7.90867 11.0452C7.39726 10.7916 7.04515 10.2633 7.04515 9.65302V7.3847C7.04515 6.94873 7.21819 6.53107 7.52562 6.22253L8.23442 5.51245C8.43931 5.30701 8.58891 5.0567 8.67277 4.78387C8.72532 4.61523 8.75187 4.43744 8.75187 4.26074V3.755H14.5374V4.40137C14.5374 4.5462 14.5528 4.6991 14.5933 4.83881C14.6607 5.10742 14.792 5.35809 14.9771 5.56958C15.2378 5.86731 15.385 6.25769 15.385 6.6543Z" fill="#FEDFC5"/>
<path d="M15.385 6.6543V14.14C15.385 14.6093 15.0058 14.9889 14.5374 14.9889C14.5248 14.9889 14.5113 14.9889 14.4975 14.988C14.3283 14.9801 14.1714 14.9224 14.0425 14.8287L14.057 7.61523C14.057 7.57166 14.0471 7.50281 14.0288 7.4151C13.7054 5.83966 12.3755 4.78387 10.7671 4.78387H8.67278C8.72533 4.61523 8.75188 4.43744 8.75188 4.26074V3.755H14.5374V4.40137C14.5374 4.5462 14.5528 4.6991 14.5933 4.83881C14.6607 5.10742 14.792 5.35809 14.9771 5.56958C15.2378 5.86731 15.385 6.25769 15.385 6.6543Z" fill="#FECBAA"/>
<path d="M14.9134 3.75525H8.3463C8.13005 3.75525 7.95464 3.57983 7.95464 3.3634V1.02478C7.95464 0.80835 8.13005 0.632935 8.3463 0.632935H14.9134C15.1296 0.632935 15.3051 0.80835 15.3051 1.02478V3.3634C15.3051 3.57983 15.1296 3.75525 14.9134 3.75525Z" fill="#83D9FF"/>
<path d="M9.86058 21.276L9.79009 21.6204L9.85802 21.2756C9.66759 21.2381 9.48265 21.362 9.44512 21.5525C9.40758 21.7431 9.53154 21.9278 9.72215 21.9654C9.7227 21.9656 9.72801 21.9665 9.72856 21.9667C9.7509 21.9709 9.77306 21.9731 9.79503 21.9731C9.96037 21.9731 10.1078 21.8559 10.1398 21.6874C10.1764 21.4966 10.0514 21.3124 9.86058 21.276Z" fill="black"/>
<path d="M12.5486 21.3889L12.5835 21.7386L12.5475 21.3891C12.3543 21.4089 12.2138 21.5815 12.2338 21.7747C12.2523 21.9556 12.405 22.0904 12.583 22.0904C12.5951 22.0904 12.6073 22.0897 12.6194 22.0886L12.6291 22.0875C12.8214 22.0649 12.9578 21.8915 12.9364 21.6993C12.9148 21.5072 12.7408 21.3688 12.5486 21.3889Z" fill="black"/>
<path d="M11.2027 21.4333C11.2027 21.4333 11.1978 21.4331 11.1976 21.4331C11.0039 21.4243 10.842 21.5748 10.8332 21.7687C10.8246 21.9626 10.977 22.1269 11.1709 22.1357C11.1764 22.136 11.1817 22.136 11.1872 22.136C11.3739 22.136 11.5296 21.989 11.538 21.8004C11.5468 21.6065 11.3968 21.4421 11.2027 21.4333Z" fill="black"/>
<path d="M8.562 20.9187L8.55761 20.917C8.37487 20.8515 8.17565 20.9471 8.11009 21.1298C8.04436 21.3125 8.14141 21.5147 8.32415 21.5804C8.36351 21.5945 8.40362 21.6011 8.44298 21.6011C8.58709 21.6011 8.7224 21.5119 8.77386 21.3684C8.83959 21.1856 8.74474 20.9842 8.562 20.9187Z" fill="black"/>
<path d="M13.8753 21.1429L13.962 21.4837L13.8742 21.1433C13.6862 21.1916 13.573 21.3833 13.6214 21.5714C13.6622 21.73 13.805 21.8354 13.9616 21.8354C13.9907 21.8354 14.0202 21.8318 14.0497 21.8241C14.0511 21.8237 14.0574 21.8221 14.059 21.8217C14.2456 21.7708 14.3547 21.5791 14.3049 21.3921C14.2551 21.2054 14.0627 21.0942 13.8753 21.1429Z" fill="black"/>
<path d="M15.1463 20.6994L15.2856 21.0221L15.1452 20.6998C14.9672 20.7774 14.8857 20.9845 14.9632 21.1625C15.0208 21.2949 15.1501 21.3738 15.2858 21.3738C15.3325 21.3738 15.3803 21.3643 15.4259 21.3445C15.4273 21.3438 15.433 21.3414 15.4345 21.3407C15.6108 21.261 15.6886 21.0545 15.6099 20.8778C15.5312 20.7009 15.3235 20.6216 15.1463 20.6994Z" fill="black"/>
<path d="M7.2191 4.67335C7.2755 4.67335 7.33281 4.6598 7.38573 4.6316C7.55711 4.54023 7.62175 4.32728 7.53038 4.15589C7.43901 3.98469 7.22624 3.91969 7.05486 4.01124L7.05065 4.01344C6.87944 4.10481 6.81664 4.31666 6.90801 4.48804C6.971 4.60633 7.09331 4.67335 7.2191 4.67335Z" fill="black"/>
<path d="M3.15253 8.60013C3.20471 8.62741 3.26056 8.64041 3.31568 8.64041C3.4422 8.64041 3.56452 8.57193 3.62732 8.452L3.63355 8.43973C3.71924 8.26541 3.64747 8.05466 3.47315 7.96915C3.30011 7.88382 3.09101 7.95413 3.00421 8.12607C2.91449 8.29782 2.98078 8.51004 3.15253 8.60013Z" fill="black"/>
<path d="M2.65759 9.92278C2.69494 9.93542 2.73284 9.94146 2.77038 9.94146C2.91686 9.94146 3.05364 9.84899 3.10327 9.70251L3.10784 9.68859C3.16497 9.50311 3.06079 9.30627 2.87512 9.24932C2.6911 9.19256 2.49572 9.29473 2.43694 9.47784C2.37524 9.66149 2.47393 9.86071 2.65759 9.92278Z" fill="black"/>
<path d="M3.84613 7.37026C3.90857 7.41567 3.9809 7.43764 4.05267 7.43764C4.16125 7.43764 4.26855 7.38729 4.33722 7.2928L4.3418 7.28658C4.45459 7.12874 4.41778 6.90975 4.26031 6.79695C4.10266 6.68398 3.88293 6.72023 3.76978 6.8777L4.05304 7.08608L3.76868 6.87917C3.65442 7.03627 3.68921 7.25618 3.84613 7.37026Z" fill="black"/>
<path d="M6.02564 5.43272C6.09943 5.43272 6.17377 5.40946 6.23731 5.36112C6.39405 5.2465 6.42792 5.02659 6.3133 4.86985C6.19849 4.71311 5.97858 4.67924 5.82202 4.79386L5.81323 4.80027C5.65869 4.91764 5.62793 5.13865 5.7453 5.29337C5.81451 5.38456 5.91943 5.43272 6.02564 5.43272Z" fill="black"/>
<path d="M2.34375 15.2543C2.39025 15.4054 2.52905 15.5022 2.67919 15.5022C2.71343 15.5022 2.74841 15.4971 2.78283 15.4865C2.9674 15.4299 3.07159 15.2343 3.01629 15.0494C2.96337 14.8648 2.77203 14.7564 2.58581 14.8072C2.39849 14.8582 2.28808 15.0516 2.33917 15.2389C2.34027 15.2426 2.34265 15.2506 2.34375 15.2543Z" fill="black"/>
<path d="M4.96362 6.35923C5.05499 6.35923 5.14636 6.32389 5.21539 6.25358C5.35254 6.11625 5.35254 5.89359 5.21539 5.75644C5.07806 5.61911 4.85541 5.61911 4.71808 5.75644L4.71222 5.7623C4.57636 5.90091 4.5791 6.1232 4.71771 6.25907C4.78601 6.32609 4.87482 6.35923 4.96362 6.35923Z" fill="black"/>
<path d="M2.73228 13.7215C2.70756 13.5306 2.53306 13.3951 2.3419 13.4178C2.14928 13.4408 2.01158 13.6157 2.03447 13.8085L2.03648 13.8226C2.06212 13.9973 2.21208 14.1225 2.38365 14.1225C2.4005 14.1225 2.41771 14.1213 2.4351 14.1187C2.62645 14.0909 2.7592 13.9129 2.73228 13.7215Z" fill="black"/>
<path d="M2.29065 12.7147C2.29431 12.7147 2.29779 12.7148 2.30127 12.7148C2.4906 12.7148 2.64697 12.5641 2.65246 12.3735L2.65283 12.3585C2.65283 12.1642 2.49536 12.007 2.30127 12.007C2.10846 12.007 1.95208 12.1619 1.9497 12.3539C1.94458 12.5477 2.0971 12.709 2.29065 12.7147Z" fill="black"/>
<path d="M2.36773 11.3048C2.38879 11.3085 2.40948 11.3103 2.43017 11.3103C2.59717 11.3103 2.7453 11.1907 2.77588 11.0206C2.77679 11.0155 2.77753 11.0104 2.77826 11.0052C2.80664 10.8132 2.67389 10.6344 2.48163 10.6062C2.29175 10.578 2.11395 10.7086 2.08337 10.8979C2.05005 11.0887 2.17712 11.2706 2.36773 11.3048Z" fill="black"/>
<path d="M18.9516 7.4812C19.0197 7.58007 19.1292 7.63299 19.2409 7.63299C19.3095 7.63299 19.3791 7.61285 19.4399 7.57092C19.5998 7.46106 19.6402 7.24206 19.5304 7.08203L19.2381 7.27758L19.5293 7.08038C19.4201 6.91961 19.2015 6.87768 19.0409 6.98663C18.8802 7.09558 18.8382 7.31421 18.9472 7.47497L18.9516 7.4812Z" fill="black"/>
<path d="M20.7469 11.019C20.5539 11.0406 20.4151 11.2147 20.4369 11.4077L20.4387 11.4229C20.4638 11.5981 20.6143 11.7246 20.7865 11.7246C20.8029 11.7246 20.8198 11.7235 20.8366 11.7212C21.0273 11.6939 21.1602 11.5183 21.1355 11.3278C21.1133 11.1354 20.9386 10.9973 20.7469 11.019Z" fill="black"/>
<path d="M20.1537 10.0268L20.1551 10.0314C20.2002 10.1846 20.3402 10.2839 20.4922 10.2839C20.525 10.2839 20.5583 10.2793 20.5915 10.2694C20.7779 10.2146 20.8844 10.0193 20.8297 9.83286L20.8282 9.82829C20.7735 9.64188 20.5781 9.53532 20.3917 9.59025C20.2055 9.645 20.0989 9.84037 20.1537 10.0268Z" fill="black"/>
<path d="M19.6571 8.71241C19.7184 8.8371 19.8438 8.9098 19.9742 8.9098C20.026 8.9098 20.0788 8.89826 20.1284 8.87372C20.3025 8.78803 20.3748 8.57856 20.289 8.40424L19.9704 8.55274L20.2886 8.40351C20.2062 8.22773 19.9969 8.1521 19.8211 8.2345C19.6453 8.3169 19.5695 8.52619 19.6519 8.70197L19.6571 8.71241Z" fill="black"/>
<path d="M18.0661 6.3833C18.1349 6.45362 18.2259 6.48877 18.3171 6.48877C18.4059 6.48877 18.4947 6.45545 18.5632 6.38825C18.7009 6.25348 18.704 6.0332 18.5713 5.89441C18.4396 5.7525 18.2177 5.74389 18.0752 5.87536C17.9326 6.00702 17.9238 6.22949 18.0554 6.37213L18.0661 6.3833Z" fill="black"/>
<path d="M20.8612 12.4869C20.668 12.482 20.5063 12.6334 20.4995 12.8266C20.4907 13.019 20.6385 13.1829 20.8311 13.1937C20.8379 13.1941 20.8443 13.1943 20.8511 13.1943C21.0362 13.1943 21.1913 13.0494 21.2017 12.8621L21.2023 12.8477C21.2078 12.6537 21.0551 12.4926 20.8612 12.4869Z" fill="black"/>
<path d="M15.8179 4.65695L15.8263 4.66153C15.8787 4.68936 15.9349 4.70254 15.9902 4.70254C16.1153 4.70254 16.2363 4.63516 16.2998 4.51706C16.3914 4.34659 16.3269 4.13345 16.157 4.04117L15.9869 4.34878L16.1559 4.04043C15.9856 3.94705 15.7719 4.00949 15.6786 4.17978C15.5854 4.34988 15.6476 4.56375 15.8179 4.65695Z" fill="black"/>
<path d="M17.007 5.42801L17.0125 5.43222C17.076 5.48038 17.1505 5.50363 17.2247 5.50363C17.3309 5.50363 17.4358 5.45566 17.505 5.36447C17.6224 5.20975 17.592 4.98929 17.4375 4.87192L17.4351 4.87027C17.2811 4.75199 17.0605 4.78092 16.9422 4.93491C16.8239 5.0889 16.853 5.30972 17.007 5.42801Z" fill="black"/>
<path d="M23.783 17.8092L22.1327 16.1559C21.9922 16.0153 21.8057 15.9379 21.607 15.9379C21.4085 15.9379 21.2217 16.0153 21.0815 16.1559L21.0432 16.1942L20.9348 16.0858C20.801 15.9516 20.6973 15.7954 20.627 15.6253C20.6208 15.6028 20.6125 15.5808 20.6019 15.5601C20.5481 15.4089 20.5201 15.2479 20.5201 15.0826V14.6149C20.5521 14.6318 20.5871 14.644 20.6246 14.6505C20.6448 14.6539 20.6647 14.6556 20.6845 14.6556C20.8513 14.6556 20.9989 14.5366 21.0298 14.3674C21.0674 14.1773 20.9442 13.9926 20.7539 13.9545C20.6702 13.9378 20.5875 13.9523 20.5179 13.99C20.4963 13.4905 20.2921 13.0239 19.9369 12.668L18.3358 11.0641C17.9766 10.7043 17.4988 10.5062 16.9907 10.5062C16.5974 10.5062 16.2228 10.6254 15.9067 10.8461L15.7368 10.6752V6.65424C15.7368 6.16956 15.5609 5.7019 15.2415 5.33771C15.0143 5.0788 14.8892 4.74628 14.8892 4.40131V4.10669H14.9134C15.3232 4.10669 15.6566 3.77325 15.6566 3.36328V1.02466C15.6566 0.614685 15.3232 0.28125 14.9134 0.28125H8.34631C7.93652 0.28125 7.60309 0.614685 7.60309 1.02466V3.36328C7.60309 3.77325 7.93652 4.10669 8.34631 4.10669H8.40051V4.26086C8.40051 4.63989 8.25311 4.99622 7.9856 5.2641L7.27679 5.97418C6.9007 6.35101 6.6936 6.85181 6.6936 7.38464V9.65277C6.6936 9.96094 6.76758 10.2519 6.89777 10.5097C6.43158 10.5366 5.99707 10.7309 5.66418 11.0641L4.06311 12.668C3.68701 13.0448 3.47992 13.5458 3.47992 14.0784V15.0826C3.47992 15.4616 3.3327 15.8179 3.06519 16.0858L2.95807 16.1931C2.95752 16.1935 2.95715 16.1938 2.95679 16.1942L2.9187 16.1559C2.77826 16.0153 2.59167 15.9379 2.39301 15.9379C2.19452 15.9379 2.00775 16.0153 1.86749 16.1559L0.21698 17.8092C-0.0723267 18.0991 -0.0723267 18.5707 0.21698 18.8606L0.782227 19.4266C0.919373 19.5641 1.14203 19.5643 1.27936 19.4271C1.41669 19.2898 1.41705 19.0673 1.27972 18.9298L0.714661 18.3636C0.69873 18.3477 0.69873 18.3219 0.714661 18.306L2.36517 16.6527C2.38055 16.6373 2.40564 16.6371 2.42102 16.6527L2.70795 16.9402H2.70813L6.62604 20.8649L7.06494 21.3047C7.08087 21.3206 7.08087 21.3464 7.06494 21.3624L5.41461 23.0156C5.39905 23.0312 5.37396 23.0312 5.35858 23.0156L2.27509 19.9268C2.13794 19.7893 1.91528 19.7891 1.77795 19.9263C1.64044 20.0636 1.64026 20.2861 1.7774 20.4236L4.86108 23.5124C5.00134 23.653 5.18811 23.7305 5.38678 23.7305C5.58527 23.7305 5.77185 23.653 5.91229 23.5124L7.56262 21.8591C7.85193 21.5695 7.85193 21.0978 7.56262 20.8079L7.54468 20.79L7.75287 20.5814C7.99603 20.3377 8.31903 20.1912 8.66235 20.1691C9.14557 20.1378 9.60022 19.9316 9.94244 19.5886L11.4586 18.0692C11.8958 17.9544 12.2362 17.5983 12.3287 17.1522C12.4845 17.2264 12.6586 17.2681 12.8425 17.2681C13.5037 17.2681 14.0416 16.7296 14.0416 16.0675V15.2327C14.1929 15.3018 14.3608 15.3406 14.5377 15.3406C15.1989 15.3406 15.7366 14.8021 15.7366 14.14V11.6721L16.8181 12.7588C16.8867 12.8278 16.977 12.8622 17.0673 12.8622C17.157 12.8622 17.2467 12.8282 17.3154 12.7599C17.4529 12.6229 17.4534 12.4005 17.3165 12.2628L16.4149 11.3568C16.5894 11.2606 16.786 11.2094 16.9907 11.2094C17.3108 11.2094 17.6118 11.3342 17.8381 11.5611L19.4392 13.1647C19.6827 13.4088 19.817 13.7333 19.817 14.0784V15.0826C19.817 15.6493 20.0372 16.1819 20.4371 16.5826L20.5463 16.6919L20.0363 17.2028L16.9521 20.2923L16.7802 20.12C16.7783 20.1183 16.7767 20.1165 16.7748 20.1149L16.7446 20.0845C16.3806 19.7199 15.897 19.5007 15.3832 19.4674C15.0707 19.4471 14.7766 19.3138 14.5541 19.0911L13.3989 17.9421C13.2612 17.8052 13.0386 17.8057 12.9016 17.9434C12.7648 18.0811 12.7654 18.3038 12.9031 18.4406L14.0576 19.5886C14.3998 19.9316 14.8544 20.1378 15.3378 20.1691C15.681 20.1912 16.004 20.3377 16.2471 20.5812L16.2642 20.5983C16.2733 20.6087 16.283 20.6184 16.2933 20.6276L16.4553 20.7898L16.4374 20.8079C16.1481 21.0978 16.1481 21.5693 16.4374 21.8591L18.0877 23.5124C18.2281 23.653 18.4147 23.7305 18.6134 23.7305C18.8119 23.7305 18.9987 23.653 19.1391 23.5124L23.783 18.8604C24.0723 18.5706 24.0723 18.0991 23.783 17.8092ZM20.7557 14.3134L20.7491 14.3123L20.6851 14.2993L20.7557 14.3134ZM9.44476 19.0919C9.22339 19.3138 8.92932 19.4471 8.61694 19.4674C8.10297 19.5007 7.61938 19.7199 7.25537 20.0845L7.04791 20.2923L6.86115 20.1052C6.85876 20.1028 6.85638 20.1002 6.854 20.098L3.45374 16.6919L3.56287 16.5826C3.96277 16.1819 4.18304 15.6493 4.18304 15.0826V14.0784C4.18304 13.7333 4.31708 13.4088 4.56079 13.1647L6.16187 11.5611C6.38818 11.3342 6.68921 11.2094 7.00928 11.2094C7.21454 11.2094 7.41193 11.261 7.58698 11.3578L6.6839 12.2624C6.54675 12.3997 6.54694 12.6224 6.68427 12.7595C6.75293 12.828 6.84283 12.8622 6.93274 12.8622C7.02283 12.8622 7.11292 12.8278 7.18158 12.7592L8.26025 11.6785V16.0675C8.26025 16.7296 8.79822 17.2681 9.45941 17.2681C9.64581 17.2681 9.82233 17.2253 9.9798 17.1491C10.0512 17.4976 10.2739 17.7913 10.5756 17.9586L9.44476 19.0919ZM15.0337 14.1401C15.0337 14.4144 14.811 14.6376 14.5377 14.6376C14.2641 14.6376 14.0416 14.4144 14.0416 14.1401V10.2186C14.0416 10.0245 13.8843 9.867 13.6901 9.867C13.4958 9.867 13.3385 10.0245 13.3385 10.2186V16.0677C13.3385 16.342 13.116 16.565 12.8425 16.565C12.5969 16.565 12.3931 16.3852 12.3538 16.1499V10.2145C12.3538 10.0203 12.1965 9.86298 12.0022 9.86298C11.9398 9.86298 11.881 9.87946 11.8301 9.90802C11.7189 9.96716 11.6433 10.084 11.6433 10.2186V16.0675C11.6433 16.1122 11.6459 16.1559 11.6506 16.1993V16.9078C11.6506 17.1821 11.4282 17.4053 11.1546 17.4053C10.8812 17.4053 10.6588 17.1821 10.6588 16.9078V10.2103C10.6588 10.0162 10.5013 9.85876 10.3072 9.85876C10.1129 9.85876 9.95544 10.0162 9.95544 10.2103V16.0675C9.95544 16.3418 9.73297 16.565 9.45959 16.565C9.18604 16.565 8.96356 16.3418 8.96356 16.0675V9.52789C8.96356 9.33362 8.80609 9.17615 8.612 9.17615C8.41772 9.17615 8.26044 9.33362 8.26044 9.52789V10.7375C8.23096 10.747 8.20239 10.7604 8.17584 10.778C7.72119 10.6071 7.39673 10.1673 7.39673 9.65277V7.38464C7.39673 7.03949 7.53094 6.71503 7.77448 6.47095L8.48328 5.76086C8.88336 5.36023 9.10364 4.82758 9.10364 4.26086V4.10669H9.81042C10.0047 4.10669 10.162 3.94922 10.162 3.75513C10.162 3.56085 10.0047 3.40356 9.81042 3.40356H8.34631C8.32416 3.40356 8.30621 3.38544 8.30621 3.36328V1.02466C8.30621 1.0025 8.32416 0.984375 8.34631 0.984375H14.9132C14.9355 0.984375 14.9535 1.0025 14.9535 1.02466V3.36328C14.9535 3.38562 14.9355 3.40356 14.9132 3.40356H11.4609C11.2668 3.40356 11.1094 3.56085 11.1094 3.75513C11.1094 3.94922 11.2668 4.10669 11.4609 4.10669H14.1861V4.40131C14.1861 4.91693 14.373 5.41406 14.7127 5.80151C14.9196 6.03735 15.0337 6.34021 15.0337 6.65424V14.1401ZM23.2853 18.3636L18.6414 23.0156C18.6337 23.0235 18.6244 23.0273 18.6134 23.0273C18.6026 23.0273 18.5933 23.0235 18.5854 23.0156L16.9351 21.3624C16.9191 21.3464 16.9191 21.3206 16.9351 21.3047L17.2007 21.0385L17.2009 21.0383L19.8968 18.3378L21.579 16.6527C21.5944 16.6371 21.6194 16.6371 21.6348 16.6527L23.2853 18.306C23.3013 18.3219 23.3013 18.3477 23.2853 18.3636Z" fill="black"/>
<path d="M9.4594 1.81897C9.25304 1.81897 9.08513 1.98724 9.08513 2.19397C9.08513 2.40088 9.25304 2.56897 9.4594 2.56897C9.66594 2.56897 9.83385 2.40088 9.83385 2.19397C9.83385 1.98724 9.66594 1.81897 9.4594 1.81897Z" fill="black"/>
<path d="M21.7219 17.8447C21.5154 17.8447 21.3475 18.013 21.3475 18.2197C21.3475 18.4265 21.5154 18.5947 21.7219 18.5947C21.9283 18.5947 22.0962 18.4265 22.0962 18.2197C22.0962 18.013 21.9283 17.8447 21.7219 17.8447Z" fill="black"/>
<path d="M5.85863 21.4314C5.85863 21.2247 5.69073 21.0564 5.48437 21.0564C5.27782 21.0564 5.10992 21.2247 5.10992 21.4314C5.10992 21.6381 5.27782 21.8064 5.48437 21.8064C5.69073 21.8064 5.85863 21.6381 5.85863 21.4314Z" fill="black"/>
</g>
<defs>
<clipPath id="clip0">
<rect width="24" height="24" fill="white"/>
</clipPath>
</defs>
</svg>
