<svg width="24" height="24" viewBox="0 0 24 24" fill="none" xmlns="http://www.w3.org/2000/svg">
<g clip-path="url(#clip0)">
<path d="M14.4107 3.01877L15.7924 1.63727L18.3466 4.19119L15.2423 1.08716L13.8606 2.46866L15.5831 4.19119L14.4107 3.01877Z" fill="#D4E1F4"/>
<path d="M11.6585 1.20007L8.66724 4.19129H9.76746L12.2086 1.75018L11.6585 1.20007Z" fill="#D4E1F4"/>
<path d="M16.4204 4.85132H16.41L16.4152 4.85648L16.4204 4.85132Z" fill="#D4E1F4"/>
<path d="M9.10733 4.85132H9.09701L9.10217 4.85648L9.10733 4.85132Z" fill="#D4E1F4"/>
<path d="M4.38584 6.72169C4.38691 5.68916 5.22368 4.85261 6.25621 4.85132H5.15599C4.12346 4.85261 3.2867 5.68916 3.28562 6.72169V12.8803C3.65909 12.6504 4.02591 12.4099 4.38584 12.1589V6.72169Z" fill="#D4E1F4"/>
<path d="M11.6623 14.7836C11.6623 14.6519 11.5839 14.5326 11.4629 14.4804L11.4302 14.4664C9.70793 13.7253 8.07952 12.7823 6.5794 11.6576C6.46207 11.5695 6.30069 11.5695 6.18336 11.6576C6.06668 11.7449 5.94892 11.8304 5.83073 11.9155C7.23287 12.9274 8.74159 13.7826 10.33 14.4662L10.3625 14.4802C10.4837 14.5324 10.5621 14.6516 10.5621 14.7834V17.6556C10.5651 18.392 10.413 19.1206 10.1156 19.7943H11.2158C11.5132 19.1206 11.6653 18.392 11.6623 17.6556V14.7836Z" fill="#D4E1F4"/>
<path d="M18.7589 10.2526C18.1126 10.2521 17.5031 10.5538 17.1114 11.0683C16.7199 11.5825 16.5909 12.2504 16.7633 12.8733C17.0119 11.9762 17.8278 11.3543 18.7589 11.353H23.3399V10.2528L18.7589 10.2526Z" fill="#D4E1F4"/>
<path d="M23.67 9.59246H23.0896V6.72179C23.0879 5.32503 21.9558 4.19301 20.5591 4.19129H19.2801L15.4757 0.386943C15.3468 0.258226 15.1379 0.258226 15.009 0.386943L13.3939 2.00203L11.8918 0.500188C11.7629 0.371471 11.554 0.371471 11.4251 0.500188L7.73398 4.19151H5.15599C3.75901 4.19301 2.62698 5.32503 2.62548 6.72201V13.4632H3.28561V6.72179C3.28669 5.68927 4.12346 4.85271 5.15599 4.85142H7.99679L8.00195 4.85658L8.0071 4.85142H15.3098L15.315 4.85658L15.3201 4.85142H20.5591C21.5916 4.85271 22.4282 5.68927 22.4294 6.72179V9.59246H18.759C17.2556 9.59912 16.0406 10.8197 16.0406 12.323C16.0406 13.8262 17.2556 15.0467 18.759 15.0536H22.4294V17.924C22.4282 18.9566 21.5916 19.7933 20.5591 19.7944H9.58158V20.4545H20.5591C21.9558 20.453 23.0879 19.321 23.0896 17.924V15.0536H23.67C23.8522 15.0536 24 14.9057 24 14.7235V9.92253C24 9.7403 23.8522 9.59246 23.67 9.59246ZM15.2423 1.08726L18.3466 4.19129H15.5831L13.8606 2.46876L15.2423 1.08726ZM8.66724 4.19129L11.6585 1.20007L14.6497 4.19129H8.66724ZM23.3399 14.3935H18.759C17.6196 14.3874 16.6993 13.4624 16.6993 12.323C16.6993 11.1837 17.6196 10.2584 18.759 10.2526H23.3399V14.3935Z" fill="#0635C9"/>
<path d="M17.6188 12.3232C17.619 13.0027 18.1697 13.5534 18.8492 13.5532C19.5287 13.5532 20.0794 13.0023 20.0792 12.3228C20.0792 11.6433 19.5282 11.0926 18.849 11.0928C18.1697 11.0934 17.6194 11.644 17.6188 12.3232ZM18.849 11.7529C19.1638 11.7527 19.4191 12.008 19.4191 12.3228C19.4193 12.6376 19.164 12.8931 18.8492 12.8931C18.5344 12.8933 18.2791 12.638 18.2789 12.3232C18.2791 12.0084 18.5342 11.7533 18.849 11.7529Z" fill="#0635C9"/>
<path d="M10.3627 14.4804L10.33 14.4664C8.60771 13.7253 6.9793 12.7823 5.47917 11.6576C5.36185 11.5695 5.20047 11.5695 5.08314 11.6576C3.5828 12.7823 1.95439 13.7253 0.231862 14.4664L0.1992 14.4804C0.0784335 14.5326 0 14.6516 0 14.7834V17.6555C0 19.5137 0.887911 21.1457 2.56768 22.3755C3.33891 22.9385 4.19458 23.376 5.10269 23.6717C5.13278 23.6808 5.16394 23.6853 5.19531 23.6851C5.22561 23.6851 5.25569 23.681 5.28492 23.6728C6.21946 23.3791 7.10307 22.9426 7.90417 22.3788C9.64303 21.1494 10.5621 19.5163 10.5621 17.6558V14.7838C10.5621 14.6519 10.4837 14.5326 10.3627 14.4804ZM9.90197 17.6558C9.90197 18.9002 9.45199 20.0028 8.56172 20.9472C8.54689 20.7716 8.39669 20.6388 8.2207 20.6453C8.0447 20.6517 7.90481 20.7955 7.90288 20.9715V21.274C7.90288 21.3527 7.93081 21.4285 7.98196 21.4883C7.84164 21.6045 7.69379 21.718 7.53822 21.8286C6.81878 22.3326 6.03014 22.7301 5.19703 23.0088C4.39163 22.729 3.6318 22.3323 2.94201 21.8312C2.8047 21.7302 2.6734 21.6267 2.54834 21.5207C2.61882 21.4582 2.65922 21.3686 2.65922 21.2742V20.9717C2.65922 20.7895 2.51159 20.6416 2.32915 20.6416C2.14693 20.6416 1.99909 20.7895 1.99909 20.9717V20.9981C1.1101 20.0429 0.660131 18.9232 0.660131 17.656V15.0002C2.29348 14.2829 3.84303 13.3883 5.28105 12.3328C6.71907 13.3883 8.26883 14.2829 9.90197 15.0002V17.6558Z" fill="#1AE5BE"/>
<path d="M5.28104 20.6415C5.09882 20.6415 4.95098 20.7893 4.95098 20.9715V21.2741C4.95098 21.4565 5.09882 21.6042 5.28104 21.6042C5.46348 21.6042 5.61111 21.4565 5.61111 21.2741V20.9715C5.61111 20.7893 5.46348 20.6415 5.28104 20.6415Z" fill="#1AE5BE"/>
<path d="M6.26502 20.6415C6.08279 20.6415 5.93495 20.7893 5.93495 20.9715V21.2741C5.93495 21.4565 6.08279 21.6042 6.26502 21.6042C6.44745 21.6042 6.59508 21.4565 6.59508 21.2741V20.9715C6.59508 20.7893 6.44745 20.6415 6.26502 20.6415Z" fill="#1AE5BE"/>
<path d="M6.91893 20.9715V21.2741C6.91893 21.4565 7.06677 21.6042 7.24899 21.6042C7.43142 21.6042 7.57905 21.4565 7.57905 21.2741V20.9715C7.57905 20.7893 7.43142 20.6415 7.24899 20.6415C7.06677 20.6415 6.91893 20.7893 6.91893 20.9715Z" fill="#1AE5BE"/>
<path d="M4.29708 20.6415C4.11485 20.6415 3.96701 20.7893 3.96701 20.9715V21.2741C3.96701 21.4565 4.11485 21.6042 4.29708 21.6042C4.47952 21.6042 4.62714 21.4565 4.62714 21.2741V20.9715C4.62714 20.7893 4.47952 20.6415 4.29708 20.6415Z" fill="#1AE5BE"/>
<path d="M3.31311 20.6415C3.13089 20.6415 2.98305 20.7893 2.98305 20.9715V21.2741C2.98305 21.4565 3.13089 21.6042 3.31311 21.6042C3.49555 21.6042 3.64318 21.4565 3.64318 21.2741V20.9715C3.64318 20.7893 3.49555 20.6415 3.31311 20.6415Z" fill="#1AE5BE"/>
<path d="M3.96852 17.2695C3.83894 17.1444 3.63308 17.1461 3.50565 17.2735C3.37844 17.4007 3.37672 17.6066 3.50178 17.7362L4.62306 18.857C4.75199 18.986 4.96086 18.986 5.0898 18.857L7.06052 16.8865C7.18945 16.7576 7.18945 16.5485 7.06052 16.4196C6.9318 16.2906 6.72272 16.2906 6.59379 16.4196L4.85643 18.1569L3.96852 17.2695Z" fill="#1AE5BE"/>
</g>
<defs>
<clipPath id="clip0">
<rect width="24" height="24" fill="white"/>
</clipPath>
</defs>
</svg>
