<svg width="74" height="120" viewBox="0 0 74 120" fill="none" xmlns="http://www.w3.org/2000/svg">
<path fill-rule="evenodd" clip-rule="evenodd" d="M47.3485 5.5008C48.265 9.321 49.4594 17.9079 48.2406 19.2549H40.53C40.5292 19.2394 40.5285 19.224 40.5277 19.2086C37.6698 18.8508 35.4471 16.11 35.4471 12.782V6.46617C35.4471 2.895 38.0064 0 41.1635 0H41.6953C44.5624 0 46.9365 2.38753 47.3485 5.5008Z" fill="#191847"/>
<path fill-rule="evenodd" clip-rule="evenodd" d="M38.4415 11.576C37.2164 9.94928 36.3872 7.95575 36.5257 5.72194C36.925 -0.714297 44.8456 0.701593 46.3864 3.95005C47.9271 7.19851 47.744 15.4385 45.7528 16.0191C44.9587 16.2506 43.267 15.6834 41.5452 14.5096L42.6259 23.1579H36.2448L38.4415 11.576Z" fill="#D4A181"/>
<path fill-rule="evenodd" clip-rule="evenodd" d="M40.1665 10.4887C40.4605 14.061 40.3427 18.1405 39.4665 19.1089H31.7559C31.3263 10.6657 35.4783 13.9353 35.4783 5.9858C35.7371 5.69971 35.9817 5.41655 36.2238 5.17235L36.2152 4.93856C37.5504 1.84669 39.2443 0.300751 41.2969 0.300751C44.3758 0.300751 45.3476 1.9213 46.1751 3.29717C45.5563 5.6987 43.1551 6.05479 41.0215 7.55173C40.77 7.3206 40.4493 7.18208 40.1 7.18208C39.2924 7.18208 38.6377 7.92266 38.6377 8.83621C38.6377 9.74977 39.2924 10.4903 40.1 10.4903C40.1223 10.4903 40.1445 10.4898 40.1665 10.4887Z" fill="#191847"/>
<path fill-rule="evenodd" clip-rule="evenodd" d="M25.9838 77.6205C32.3621 79.6385 37.8651 80.6475 42.4929 80.6475C47.1206 80.6475 51.4191 79.0936 55.3883 75.9859C49.1465 73.9146 44.0061 72.879 39.9671 72.879C35.9281 72.879 31.267 74.4595 25.9838 77.6205Z" fill="#1F28CF"/>
<path fill-rule="evenodd" clip-rule="evenodd" d="M48.0145 83.5562C47.953 83.4516 47.901 83.3378 47.8598 83.2146C47.0073 80.6642 33.3511 53.1505 31.9906 48.1203H47.3655C48.3999 51.9449 53.0557 75.9458 53.7109 80.7343C55.7782 88.2877 60.0346 112.75 60.578 114.445C61.1496 116.228 57.9333 118.085 57.0762 115.893C55.7125 112.406 52.4632 102.756 51.0164 96.8644C49.66 91.3407 48.5555 86.3713 48.0145 83.5562Z" fill="#BA8B72"/>
<path fill-rule="evenodd" clip-rule="evenodd" d="M35.4357 86.9154C29.1923 88.7003 6.35531 91.9271 4.78814 92.4332C3.17601 92.9539 1.76248 89.1951 3.75516 88.3809C6.92585 87.0854 15.6625 84.0919 20.9596 82.8704C25.2203 81.8878 29.1082 81.0861 31.7184 80.6166C31.4973 72.3228 30.4864 52.4191 31.149 48.1203H44.7529C44.1176 52.2426 38.7467 82.3211 37.7484 85.3319C37.4316 86.4068 36.4864 86.8818 35.4357 86.9154Z" fill="#D4A181"/>
<path fill-rule="evenodd" clip-rule="evenodd" d="M3.89985 87.3801C3.06621 87.2047 2.45527 87.1557 2.06704 87.2331C1.59487 87.3273 0.919713 87.5537 0.0415822 87.9124C0.138167 88.532 1.00619 94.1004 2.64565 104.618C3.98208 104.799 4.62798 104.411 4.58335 103.456C4.53871 102.5 4.50894 101.705 4.49403 101.07L6.34378 92.6956C6.37938 92.5345 6.29274 92.3712 6.15028 92.331C6.14784 92.3303 6.14539 92.3296 6.14294 92.329L4.99483 92.0434C4.50272 91.2488 4.21447 90.5808 4.13009 90.0395C4.06153 89.5997 4.12388 88.9609 4.31714 88.1233L4.31715 88.1233C4.39131 87.8019 4.22107 87.4733 3.9369 87.3894C3.92466 87.3858 3.9123 87.3827 3.89985 87.3801Z" fill="#E4E4E4"/>
<path fill-rule="evenodd" clip-rule="evenodd" d="M56.1003 115.61C55.8028 116.508 55.6541 117.18 55.6541 117.626C55.6541 118.168 55.734 118.96 55.8937 120C56.4499 120 61.4487 120 70.89 120C71.2797 118.543 71.0547 117.756 70.2151 117.64C69.3755 117.524 68.678 117.419 68.1227 117.325L61.1526 113.81C61.0184 113.743 60.8612 113.811 60.8015 113.962C60.8004 113.965 60.7994 113.968 60.7985 113.97L60.3504 115.2C59.5732 115.61 58.9416 115.815 58.4556 115.815C58.0608 115.815 57.5156 115.635 56.8199 115.274L56.8199 115.274C56.5529 115.135 56.2373 115.268 56.1149 115.57C56.1096 115.583 56.1047 115.596 56.1003 115.61Z" fill="#E4E4E4"/>
<path fill-rule="evenodd" clip-rule="evenodd" d="M31.193 48.1203C37.1878 46.1802 42.8599 46.1802 48.2094 48.1203C50.0706 57.7256 54.593 61.5379 55.3883 76.2643C46.3483 81.3452 35.1812 72.6407 25.8753 77.5956C23.2165 70.665 26.9389 53.9743 31.193 48.1203Z" fill="#2B44FF"/>
<path fill-rule="evenodd" clip-rule="evenodd" d="M56.9835 36.1837L67.4813 34.564C69.5813 33.2427 71.5132 32.3483 73.277 31.8806C73.7733 31.8642 74.5629 32.0683 73.3866 33.1775C72.2104 34.2867 71.0169 35.5137 71.2265 36.1057C71.436 36.6977 72.5299 36.4774 72.7112 37.3879C72.832 37.9949 71.0566 38.0936 67.3851 37.6838L58.867 41.5038L56.9835 36.1837ZM24.0061 38.9322L29.8282 38.957C23.4441 55.2077 20.1153 63.7164 19.8419 64.4829C19.2267 66.2076 20.5286 68.8342 21.0853 70.2458C19.272 71.1636 19.4652 67.7645 17.1778 68.9683C15.0899 70.067 13.5016 72.0579 11.0894 70.3742C10.7928 70.1673 10.4678 69.3879 11.253 68.7789C13.2093 67.2615 16.0284 64.6059 16.4094 63.7318C16.9288 62.5398 19.4611 54.2733 24.0061 38.9322Z" fill="#D4A181"/>
<path fill-rule="evenodd" clip-rule="evenodd" d="M39.9537 18.0451L44.5122 18.3886C45.6349 29.8777 51.75 37.1347 65.4416 34.6779L67.2605 49.4733C54.4637 51.344 43.2409 45.5488 40.9409 29.8582C40.3455 25.7964 39.8753 21.5693 39.9537 18.0451Z" fill="#AFB9C5"/>
<path fill-rule="evenodd" clip-rule="evenodd" d="M37.7046 16.5461L44.6114 18.3354C44.6114 31.7728 48.3956 40.346 50.3365 50.2256H31.6832C31.4204 53.6394 31.259 57.1481 31.175 60.7519H17.208C20.373 41.7034 27.0532 26.9666 37.2487 16.5414H37.701L37.7046 16.5461Z" fill="#C5CFD6"/>
<path fill-rule="evenodd" clip-rule="evenodd" d="M34.6262 31.0554C34.1455 39.4287 34.4282 45.8188 35.4743 50.2256H31.6832C32.2037 43.4628 33.1222 37.0728 34.6262 31.0554V31.0554Z" fill="black" fill-opacity="0.1"/>
</svg>
