<svg width="24" height="24" viewBox="0 0 24 24" fill="none" xmlns="http://www.w3.org/2000/svg">
<path d="M8.90625 12C8.90625 12.4297 8.98438 12.832 9.14062 13.207C9.29688 13.582 9.51953 13.9102 9.80859 14.1914C10.0977 14.4727 10.4258 14.6914 10.793 14.8477C11.1602 15.0039 11.5625 15.0859 12 15.0938C12.2266 15.0938 12.4648 15.0625 12.7148 15C12.4336 15.4609 12.2148 15.9297 12.0586 16.4062H12C11.3906 16.4062 10.8203 16.293 10.2891 16.0664C9.75781 15.8398 9.28906 15.5234 8.88281 15.1172C8.47656 14.7109 8.16406 14.2461 7.94531 13.7227C7.72656 13.1992 7.60938 12.625 7.59375 12C7.59375 11.3906 7.70703 10.8203 7.93359 10.2891C8.16016 9.75781 8.47656 9.28906 8.88281 8.88281C9.28906 8.47656 9.75391 8.16406 10.2773 7.94531C10.8008 7.72656 11.375 7.60938 12 7.59375C12.6172 7.59375 13.1914 7.71094 13.7227 7.94531C14.2539 8.17969 14.7227 8.5 15.1289 8.90625C15.5352 9.3125 15.8477 9.78516 16.0664 10.3242C16.2852 10.8633 16.3984 11.4414 16.4062 12.0586C15.9297 12.2148 15.4609 12.4336 15 12.7148C15.0625 12.4648 15.0938 12.2266 15.0938 12C15.0938 11.5703 15.0156 11.168 14.8594 10.793C14.7031 10.418 14.4805 10.0898 14.1914 9.80859C13.9023 9.52734 13.5742 9.30859 13.207 9.15234C12.8398 8.99609 12.4375 8.91406 12 8.90625C11.5703 8.90625 11.168 8.98438 10.793 9.14062C10.418 9.29688 10.0898 9.51953 9.80859 9.80859C9.52734 10.0977 9.30859 10.4258 9.15234 10.793C8.99609 11.1602 8.91406 11.5625 8.90625 12ZM11.707 19.5586C11.7617 20.0195 11.8555 20.4648 11.9883 20.8945H11.8477C11.8008 20.8945 11.7578 20.8984 11.7188 20.9062H11.6484C11.625 20.9062 11.6016 20.9023 11.5781 20.8945L9.69141 23.9297L5.20312 22.0664L6 18.5859C5.79688 18.3984 5.60156 18.2031 5.41406 18L1.93359 18.7969L0.0703125 14.3086L3.10547 12.4219V12.2109C3.10547 12.1406 3.10156 12.0703 3.09375 12V11.7891C3.09375 11.7188 3.09766 11.6484 3.10547 11.5781L0.0703125 9.69141L1.93359 5.20312L5.41406 6C5.60156 5.79688 5.79688 5.60156 6 5.41406L5.20312 1.93359L9.69141 0.0703125L11.5781 3.10547H11.7891C11.8594 3.10547 11.9297 3.10156 12 3.09375H12.2109C12.2812 3.09375 12.3516 3.09766 12.4219 3.10547L14.3086 0.0703125L18.7969 1.93359L18 5.41406C18.2031 5.60156 18.3984 5.79688 18.5859 6L22.0664 5.20312L23.9297 9.69141L20.8945 11.5781V11.9883C20.457 11.8633 20.0117 11.7695 19.5586 11.707V11.4258C19.5586 11.3398 19.5547 11.25 19.5469 11.1562C19.5391 11.0625 19.5312 10.9727 19.5234 10.8867L22.2891 9.16406L21.2812 6.72656L18.1055 7.46484C17.8633 7.16797 17.6172 6.89453 17.3672 6.64453C17.1172 6.39453 16.8398 6.14453 16.5352 5.89453L17.2734 2.71875L14.8359 1.71094L13.1016 4.47656C12.9219 4.46094 12.7383 4.44531 12.5508 4.42969C12.3633 4.41406 12.1797 4.40625 12 4.40625C11.8125 4.40625 11.6289 4.41406 11.4492 4.42969C11.2695 4.44531 11.082 4.46094 10.8867 4.47656L9.16406 1.71094L6.72656 2.71875L7.46484 5.89453C7.16797 6.13672 6.89453 6.38281 6.64453 6.63281C6.39453 6.88281 6.14453 7.16016 5.89453 7.46484L2.71875 6.72656L1.71094 9.16406L4.47656 10.8984C4.46094 11.0859 4.44531 11.2695 4.42969 11.4492C4.41406 11.6289 4.40625 11.8164 4.40625 12.0117C4.40625 12.1914 4.41406 12.375 4.42969 12.5625C4.44531 12.75 4.46094 12.9336 4.47656 13.1133L1.71094 14.8359L2.71875 17.2734L5.89453 16.5352C6.13672 16.832 6.38281 17.1055 6.63281 17.3555C6.88281 17.6055 7.16016 17.8555 7.46484 18.1055L6.72656 21.2812L9.16406 22.2891L10.8984 19.5234C11.0391 19.5391 11.1719 19.5469 11.2969 19.5469C11.4219 19.5469 11.5586 19.5508 11.707 19.5586ZM22.5 13.5H24V18H19.5V16.5H21.7266C21.375 16.0312 20.9375 15.6641 20.4141 15.3984C19.8906 15.1328 19.3359 15 18.75 15C18.2891 15 17.8555 15.0781 17.4492 15.2344C17.043 15.3906 16.6719 15.6055 16.3359 15.8789C16 16.1523 15.7266 16.4844 15.5156 16.875C15.3047 17.2656 15.1562 17.6836 15.0703 18.1289L13.582 17.8711C13.6914 17.2383 13.9023 16.6562 14.2148 16.125C14.5273 15.5938 14.9102 15.1328 15.3633 14.7422C15.8164 14.3516 16.3359 14.0469 16.9219 13.8281C17.5078 13.6094 18.1172 13.5 18.75 13.5C19.4609 13.5 20.1406 13.6367 20.7891 13.9102C21.4375 14.1836 22.0078 14.582 22.5 15.1055V13.5ZM18.75 22.5C19.2031 22.5 19.6367 22.4219 20.0508 22.2656C20.4648 22.1094 20.8359 21.8945 21.1641 21.6211C21.4922 21.3477 21.7656 21.0156 21.9844 20.625C22.2031 20.2344 22.3516 19.8164 22.4297 19.3711L23.918 19.6289C23.8086 20.2617 23.5977 20.8438 23.2852 21.375C22.9727 21.9062 22.5898 22.3672 22.1367 22.7578C21.6836 23.1484 21.1641 23.4531 20.5781 23.6719C19.9922 23.8906 19.3828 24 18.75 24C18.0391 24 17.3594 23.8633 16.7109 23.5898C16.0625 23.3164 15.4922 22.918 15 22.3945V24H13.5V19.5H18V21H15.7734C16.125 21.4688 16.5625 21.8359 17.0859 22.1016C17.6094 22.3672 18.1641 22.5 18.75 22.5Z" fill="#2F3676"/>
</svg>
