<svg width="24" height="24" viewBox="0 0 24 24" fill="none" xmlns="http://www.w3.org/2000/svg">
<path d="M7.62891 10.5L11.625 22.5H9.99609L9 19.5H4.5L3.50391 22.5H1.875L5.87109 10.5H7.62891ZM8.49609 18L6.75 12.75L5.00391 18H8.49609ZM9.44531 6.375C9.45312 6.0625 9.45703 5.75391 9.45703 5.44922C9.45703 5.14453 9.45703 4.83594 9.45703 4.52344V3.84375C9.45703 3.61719 9.45312 3.39062 9.44531 3.16406C9.44531 3.125 9.45312 3.08203 9.46875 3.03516C9.53125 3.01953 9.58203 3.01172 9.62109 3.01172C9.94922 3.01953 10.2734 3.02734 10.5938 3.03516C10.9141 3.04297 11.2422 3.04688 11.5781 3.04688H14.8008V2.91797C14.8008 2.68359 14.7969 2.44531 14.7891 2.20312C14.7812 1.96094 14.75 1.72656 14.6953 1.5C15.2344 1.5 15.7695 1.52344 16.3008 1.57031C16.3477 1.57812 16.3945 1.58984 16.4414 1.60547C16.4883 1.62109 16.5156 1.66016 16.5234 1.72266C16.5234 1.76953 16.5117 1.81641 16.4883 1.86328C16.4648 1.91016 16.4453 1.95703 16.4297 2.00391C16.4141 2.04297 16.4023 2.10156 16.3945 2.17969C16.3867 2.25781 16.3789 2.34375 16.3711 2.4375C16.3633 2.53125 16.3594 2.61719 16.3594 2.69531C16.3594 2.77344 16.3594 2.83984 16.3594 2.89453V3.04688H19.8281C20.1562 3.04688 20.4805 3.04297 20.8008 3.03516C21.1211 3.02734 21.4492 3.01953 21.7852 3.01172C21.8398 3.01172 21.8906 3.02344 21.9375 3.04688C21.9609 3.08594 21.9727 3.125 21.9727 3.16406C21.9648 3.29688 21.957 3.43359 21.9492 3.57422C21.9414 3.71484 21.9375 3.85547 21.9375 3.99609V4.67578C21.9375 4.95703 21.9414 5.23828 21.9492 5.51953C21.957 5.80078 21.9648 6.08594 21.9727 6.375V6.45703C21.9727 6.48828 21.9609 6.51172 21.9375 6.52734C21.875 6.54297 21.8242 6.55078 21.7852 6.55078H21.4922C21.3359 6.55078 21.1758 6.55469 21.0117 6.5625C20.8633 6.5625 20.7305 6.55859 20.6133 6.55078C20.4961 6.54297 20.4297 6.53125 20.4141 6.51562C20.3984 6.45312 20.3906 6.35938 20.3906 6.23438C20.3906 6.10938 20.3867 5.96875 20.3789 5.8125C20.3789 5.55469 20.3828 5.28906 20.3906 5.01562C20.3984 4.74219 20.4023 4.53906 20.4023 4.40625H11.0039V4.86328C11.0039 4.98047 11.0078 5.10156 11.0156 5.22656C11.0234 5.35156 11.0234 5.48438 11.0156 5.625C11.0156 5.85156 11.0117 6.05469 11.0039 6.23438C10.9961 6.41406 10.9844 6.51562 10.9688 6.53906C10.9062 6.55469 10.8555 6.5625 10.8164 6.5625H9.62109C9.53516 6.5625 9.48438 6.55078 9.46875 6.52734C9.45312 6.50391 9.44531 6.45312 9.44531 6.375ZM14.3906 13.5117C14.5781 13.5117 14.7188 13.4844 14.8125 13.4297C14.9062 13.375 14.957 13.2422 14.9648 13.0312V10.8047H11.2266C10.9141 10.8047 10.6016 10.8086 10.2891 10.8164C9.97656 10.8242 9.66406 10.832 9.35156 10.8398C9.28906 10.8398 9.24219 10.8281 9.21094 10.8047C9.19531 10.7578 9.1875 10.7148 9.1875 10.6758V9.55078V9.46875C9.1875 9.4375 9.19922 9.41016 9.22266 9.38672C9.26953 9.37109 9.3125 9.36328 9.35156 9.36328L10.2891 9.38672C10.6016 9.39453 10.9141 9.39844 11.2266 9.39844H14.9648C14.9492 9.19531 14.9414 8.99219 14.9414 8.78906C14.9414 8.58594 14.918 8.37891 14.8711 8.16797C15.0273 8.18359 15.1797 8.19531 15.3281 8.20312C15.4766 8.21094 15.6328 8.22656 15.7969 8.25H15.832C15.8398 8.25 15.8555 8.25391 15.8789 8.26172C16.1523 8.06641 16.4141 7.85938 16.6641 7.64062C16.9141 7.42188 17.1641 7.19922 17.4141 6.97266H13.8047C13.4766 6.97266 13.1523 6.97656 12.832 6.98438C12.5117 6.99219 12.1836 7 11.8477 7.00781C11.7852 7.00781 11.7383 6.99609 11.707 6.97266C11.6914 6.92578 11.6836 6.88281 11.6836 6.84375V5.73047C11.6836 5.69922 11.6914 5.65234 11.707 5.58984C11.7695 5.57422 11.8164 5.56641 11.8477 5.56641C12.1758 5.57422 12.5 5.58203 12.8203 5.58984C13.1406 5.59766 13.4688 5.60156 13.8047 5.60156H18.1758C18.3008 5.60156 18.418 5.58594 18.5273 5.55469C18.6367 5.52344 18.7344 5.50391 18.8203 5.49609C18.8828 5.49609 18.9727 5.54297 19.0898 5.63672C19.207 5.73047 19.3242 5.83984 19.4414 5.96484C19.5586 6.08984 19.6602 6.21484 19.7461 6.33984C19.832 6.46484 19.8789 6.5625 19.8867 6.63281C19.8867 6.71094 19.8633 6.76953 19.8164 6.80859C19.7695 6.84766 19.7109 6.88672 19.6406 6.92578C19.5312 6.98047 19.4258 7.05078 19.3242 7.13672C19.2227 7.22266 19.125 7.30469 19.0312 7.38281C18.625 7.71875 18.2188 8.04297 17.8125 8.35547C17.4062 8.66797 16.9766 8.97266 16.5234 9.26953V9.39844H20.2852C20.5977 9.39844 20.9062 9.39453 21.2109 9.38672C21.5156 9.37891 21.8242 9.37109 22.1367 9.36328C22.1914 9.36328 22.2422 9.375 22.2891 9.39844C22.3047 9.46094 22.3125 9.51172 22.3125 9.55078V10.6758C22.3125 10.707 22.3047 10.7539 22.2891 10.8164C22.2266 10.832 22.1758 10.8398 22.1367 10.8398C21.8242 10.832 21.5156 10.8242 21.2109 10.8164C20.9062 10.8086 20.5977 10.8047 20.2852 10.8047H16.5234V11.1914C16.5234 11.5977 16.5273 12.0039 16.5352 12.4102C16.543 12.8164 16.5547 13.2227 16.5703 13.6289V13.6758C16.5703 13.8633 16.5352 14.0508 16.4648 14.2383C16.3945 14.4258 16.2812 14.5742 16.125 14.6836C16.0156 14.7617 15.8633 14.8203 15.668 14.8594C15.4727 14.8984 15.2578 14.9297 15.0234 14.9531C14.7891 14.9766 14.5703 14.9883 14.3672 14.9883C14.1641 14.9883 13.9922 14.9922 13.8516 15H13.6289C13.5273 15 13.457 14.9766 13.418 14.9297C13.3945 14.9062 13.3672 14.8438 13.3359 14.7422C13.3047 14.6406 13.2812 14.5703 13.2656 14.5312C13.2109 14.3281 13.1484 14.1406 13.0781 13.9688C13.0078 13.7969 12.9141 13.6172 12.7969 13.4297C13.0625 13.4609 13.3281 13.4805 13.5938 13.4883C13.8594 13.4961 14.125 13.5039 14.3906 13.5117ZM21.9727 17.0273L21 16.0664V18C21 18.4141 20.9219 18.8008 20.7656 19.1602C20.6094 19.5195 20.3945 19.8398 20.1211 20.1211C19.8477 20.4023 19.5312 20.6172 19.1719 20.7656C18.8125 20.9141 18.4219 20.9922 18 21H16.0664L17.0273 21.9727L15.9727 23.0273L13.1953 20.25L15.9727 17.4727L17.0273 18.5273L16.0664 19.5H18C18.2109 19.5 18.4062 19.4609 18.5859 19.3828C18.7656 19.3047 18.9219 19.1992 19.0547 19.0664C19.1875 18.9336 19.2969 18.7734 19.3828 18.5859C19.4688 18.3984 19.5078 18.2031 19.5 18V16.0664L18.5273 17.0273L17.4727 15.9727L20.25 13.1953L23.0273 15.9727L21.9727 17.0273Z" fill="#FF9B21"/>
</svg>
