<svg width="24" height="24" viewBox="0 0 24 24" fill="none" xmlns="http://www.w3.org/2000/svg">
<g clip-path="url(#clip0)">
<path d="M17.0429 0H4.38398C2.90491 0.000669643 1.70591 1.1995 1.70541 2.67857V3.83571H0.446481C0.150499 3.83571 -0.0892334 4.07561 -0.0892334 4.37143C-0.0892334 4.66724 0.150499 4.90714 0.446481 4.90714H1.69989V8.42143H0.446481C0.150499 8.42143 -0.0892334 8.66116 -0.0892334 8.95714C-0.0892334 9.25296 0.150499 9.49286 0.446481 9.49286H1.69989V13.0071H0.446481C0.150499 13.0071 -0.0892334 13.247 -0.0892334 13.5429C-0.0892334 13.8388 0.150499 14.0786 0.446481 14.0786H1.69989V17.5929H0.446481C0.150499 17.5929 -0.0892334 17.8328 -0.0892334 18.1286C-0.0892334 18.4244 0.150499 18.6643 0.446481 18.6643H1.69989V19.8214C1.70055 21.3005 2.89938 22.4993 4.37846 22.5H17.0374C18.5165 22.4993 19.7156 21.3005 19.716 19.8214V2.67857C19.7181 1.2005 18.521 0.00100446 17.0429 0ZM18.6501 19.8214C18.6474 20.7079 17.9293 21.4261 17.0429 21.4286H4.38398C3.49754 21.4261 2.77935 20.7079 2.77684 19.8214V18.6643H4.03024C4.32622 18.6643 4.56596 18.4244 4.56596 18.1286C4.56596 17.8328 4.32622 17.5929 4.03024 17.5929H2.77684V14.0786H4.03024C4.32622 14.0786 4.56596 13.8388 4.56596 13.5429C4.56596 13.247 4.32622 13.0071 4.03024 13.0071H2.77684V9.49286H4.03024C4.32622 9.49286 4.56596 9.25296 4.56596 8.95714C4.56596 8.66116 4.32622 8.42143 4.03024 8.42143H2.77684V4.90714H4.03024C4.32622 4.90714 4.56596 4.66724 4.56596 4.37143C4.56596 4.07561 4.32622 3.83571 4.03024 3.83571H2.77684V2.67857C2.77935 1.79213 3.49754 1.07394 4.38398 1.07143H17.0429C17.9293 1.07394 18.6474 1.79213 18.6501 2.67857V19.8214Z" fill="#A97729"/>
<path d="M10.7108 11.0946C12.1456 11.0946 13.309 9.93145 13.309 8.49641C13.309 7.06136 12.1456 5.89819 10.7108 5.89819C9.27572 5.89819 8.11255 7.06136 8.11255 8.49641C8.11389 9.93078 9.27622 11.0933 10.7108 11.0946ZM10.7108 6.96426C11.5538 6.96426 12.2375 7.64797 12.2375 8.49105C12.2375 9.33413 11.5538 10.0178 10.7108 10.0178C9.86752 10.0178 9.18398 9.33413 9.18398 8.49105C9.18548 7.64864 9.86802 6.96577 10.7108 6.96426Z" fill="#A97729"/>
<path d="M10.7108 11.957C8.48219 11.957 6.7356 13.7624 6.7356 16.0713C6.73643 16.3668 6.97583 16.6062 7.27131 16.607H14.15C14.4455 16.6062 14.6849 16.3668 14.6858 16.0713C14.6858 13.7624 12.9392 11.957 10.7108 11.957ZM7.84988 15.5356C8.08041 14.0731 9.23219 13.0285 10.7108 13.0285C12.1892 13.0285 13.3465 14.0731 13.5715 15.5356H7.84988Z" fill="#A97729"/>
</g>
<defs>
<clipPath id="clip0">
<rect width="24" height="24" fill="white"/>
</clipPath>
</defs>
</svg>
