<svg width="24" height="24" viewBox="0 0 24 24" fill="none" xmlns="http://www.w3.org/2000/svg">
<g clip-path="url(#clip0)">
<path d="M23.1892 23.9999H0.709138C0.570894 23.9999 0.477327 23.8589 0.530977 23.7315C2.40433 19.274 6.81113 16.1438 11.9493 16.1438C17.0874 16.1438 21.4942 19.274 23.3675 23.7315C23.421 23.8589 23.3274 23.9999 23.1892 23.9999Z" fill="#8CBAFA"/>
<path d="M23.3675 23.7316C21.4941 19.274 17.0873 16.144 11.9492 16.144C11.6978 16.144 11.4482 16.1517 11.2007 16.1666C16.0153 16.4537 20.0888 19.4921 21.8704 23.7316C21.9241 23.859 21.8303 24 21.6923 24H23.1891C23.3274 24 23.421 23.859 23.3675 23.7316Z" fill="#5692D8"/>
<path d="M16.7183 21.0054H21.7854C21.5946 20.7562 21.3945 20.5146 21.1857 20.281H16.4922C16.1664 19.3019 15.7896 18.4311 15.369 17.6921C15.0848 17.1931 14.7845 16.7623 14.4709 16.4012C14.0543 16.3151 13.6301 16.2498 13.1994 16.2065C14.1592 16.8828 15.0414 18.3119 15.7259 20.281H8.17279C8.85724 18.3117 9.73944 16.8828 10.6993 16.2065C10.2686 16.2499 9.84436 16.3151 9.4278 16.4012C9.11414 16.7623 8.81366 17.1931 8.52966 17.6921C8.10889 18.4311 7.73224 19.3019 7.40631 20.281H2.71295C2.50421 20.5146 2.30408 20.7562 2.11328 21.0054H7.18036C6.91119 21.9266 6.68488 22.9307 6.5058 23.9999H7.2406C7.42664 22.9172 7.66193 21.9127 7.93732 21.0054H15.9612C16.2368 21.9127 16.4719 22.9172 16.6579 23.9999H17.3927C17.2136 22.9307 16.9873 21.9266 16.7183 21.0054Z" fill="#E9E9EA"/>
<path d="M21.4927 20.6381C21.4918 20.6368 21.4905 20.6355 21.4896 20.6342C21.3903 20.5146 21.2891 20.3969 21.1856 20.281H19.6887C19.8975 20.5146 20.0972 20.7562 20.288 21.0054H21.7853C21.738 20.9437 21.6902 20.8823 21.6417 20.8215C21.6388 20.8179 21.6357 20.814 21.6326 20.8102C21.5864 20.7525 21.5399 20.695 21.4927 20.6381Z" fill="#C5C4CC"/>
<path d="M14.4709 16.4012C14.37 16.3803 14.2687 16.3609 14.1671 16.3424C14.1613 16.3413 14.1556 16.3404 14.1497 16.3393C13.9437 16.3023 13.7361 16.2704 13.5268 16.2439C13.522 16.2433 13.5173 16.2428 13.5127 16.2422C13.4085 16.2291 13.3041 16.2172 13.1992 16.2065C13.3398 16.3056 13.4786 16.4213 13.6156 16.5519C14.0593 16.6689 14.4929 16.8101 14.9156 16.9736C14.7706 16.7667 14.6223 16.5757 14.4709 16.4012Z" fill="#C5C4CC"/>
<path d="M18.8377 6.88814C18.8377 3.10171 15.7828 0.0288298 12.0033 -0.000283997C8.25606 -0.0290316 5.14839 2.97994 5.06252 6.72646C4.99367 9.73617 6.85567 12.3198 9.49605 13.3265C9.71138 13.4085 9.88112 13.579 9.96773 13.7925L11.3839 17.2896C11.5895 17.7976 12.3089 17.7976 12.5147 17.2896L13.931 13.7925C14.0178 13.5777 14.1894 13.4078 14.4057 13.3252C16.997 12.3359 18.8377 9.82717 18.8377 6.88814Z" fill="#ED5176"/>
<path d="M12.0033 0.000417099C11.7997 -0.00104775 11.5979 0.00682579 11.3983 0.022756C14.9412 0.307485 17.7277 3.27251 17.7277 6.88884C17.7277 9.82787 15.887 12.3366 13.2957 13.3259C13.0792 13.4085 12.9078 13.5784 12.8209 13.793L11.4047 17.2902C11.4014 17.2982 11.3978 17.3057 11.3943 17.3134C11.6124 17.7977 12.3122 17.7902 12.5147 17.2902L13.9308 13.793C14.0178 13.5784 14.1892 13.4085 14.4056 13.3259C16.9969 12.3366 18.8377 9.82787 18.8377 6.88884C18.8377 3.10241 15.7828 0.0295309 12.0033 0.000417099Z" fill="#BA365F"/>
<path d="M8.63013 4.47461V10.5187C8.63013 10.6964 8.77423 10.8405 8.95184 10.8405H14.9465C15.1243 10.8405 15.2682 10.6964 15.2682 10.5187V4.47461H8.63013Z" fill="#E9E9EA"/>
<path d="M13.2043 4.47461V5.48682C13.2043 6.18006 13.7663 6.74201 14.4594 6.74201C15.1526 6.74201 15.7145 6.18006 15.7145 5.48682V4.47461H13.2043Z" fill="#7FAB38"/>
<path d="M8.18396 4.47461V5.48682C8.18396 6.18006 8.74591 6.74201 9.43915 6.74201C10.1322 6.74201 10.6942 6.18006 10.6942 5.48682V4.47461H8.18396Z" fill="#7FAB38"/>
<path d="M10.6941 4.47461V5.48682C10.6941 6.18006 11.256 6.74201 11.9493 6.74201C12.6423 6.74201 13.2043 6.18006 13.2043 5.48682V4.47461H10.6941Z" fill="#C5C4CC"/>
<path d="M9.1601 2.70477L8.18396 4.47467H15.7145L14.7384 2.70477C14.6597 2.56195 14.5093 2.47314 14.3462 2.47314H9.55231C9.38916 2.47314 9.23883 2.56195 9.1601 2.70477Z" fill="#C9EA6E"/>
<path d="M13.2043 4.47461H10.6943L11.062 2.4729H12.8367L13.2043 4.47461Z" fill="#F0F0F2"/>
<path d="M10.8394 7.92432V10.8406H13.0591V7.92432C13.0591 7.87616 13.0201 7.83716 12.9722 7.83716H10.9263C10.8784 7.83716 10.8394 7.87616 10.8394 7.92432Z" fill="#8CBAFA"/>
<path d="M20.6101 10.3704C19.0383 10.3584 17.7348 11.6203 17.6989 13.1917C17.67 14.4541 18.4509 15.5379 19.5583 15.9599C19.6488 15.9943 19.72 16.0659 19.7563 16.1555L20.3503 17.6222C20.4365 17.8353 20.7383 17.8353 20.8245 17.6222L21.4185 16.1555C21.4549 16.0654 21.5269 15.9942 21.6175 15.9596C22.7044 15.5445 23.4766 14.4923 23.4766 13.2595C23.4766 11.6714 22.1952 10.3825 20.6101 10.3704ZM20.5874 14.0983C20.1247 14.0983 19.7495 13.7231 19.7495 13.2604C19.7495 12.7977 20.1247 12.4227 20.5874 12.4227C21.0499 12.4227 21.4251 12.7977 21.4251 13.2604C21.4251 13.7231 21.0501 14.0983 20.5874 14.0983Z" fill="#ED5176"/>
<path d="M3.49852 15.4066C1.92692 15.3945 0.623397 16.6566 0.587326 18.2281C0.558395 19.4904 1.33952 20.574 2.44694 20.9962C2.53721 21.0307 2.60844 21.1021 2.6447 21.1918L3.23869 22.6585C3.32511 22.8716 3.62669 22.8716 3.71312 22.6585L4.30711 21.1916C4.34355 21.1017 4.41551 21.0303 4.50614 20.9957C5.59306 20.5808 6.36503 19.5285 6.36503 18.2958C6.36503 16.7077 5.08384 15.4188 3.49852 15.4066ZM3.47581 19.1344C3.0131 19.1344 2.6381 18.7594 2.6381 18.2967C2.6381 17.834 3.01329 17.4588 3.47581 17.4588C3.93852 17.4588 4.3137 17.834 4.3137 18.2967C4.3137 18.7594 3.93852 19.1344 3.47581 19.1344Z" fill="#ED5176"/>
</g>
<defs>
<clipPath id="clip0">
<rect width="24" height="24" fill="white"/>
</clipPath>
</defs>
</svg>
