<svg width="24" height="24" viewBox="0 0 24 24" fill="none" xmlns="http://www.w3.org/2000/svg">
<path d="M11.9992 23.9991C18.6262 23.9991 23.9984 18.6269 23.9984 11.9999C23.9984 5.37296 18.6262 0.000732422 11.9992 0.000732422C5.37223 0.000732422 0 5.37296 0 11.9999C0 18.6269 5.37223 23.9991 11.9992 23.9991Z" fill="#65B1EF"/>
<path d="M6.16779 22.0688C6.16554 22.0734 6.16253 22.0764 6.16028 22.0809C6.1783 22.0854 6.19558 22.0914 6.2136 22.0951L6.16779 22.0688Z" fill="#E9EFF4"/>
<path d="M5.41295 5.15697L5.38892 5.10815C5.58945 5.07811 5.60297 4.93691 5.75544 4.88508C5.92894 4.828 5.8696 4.89034 6.0401 4.88508C6.1783 4.87907 6.26242 4.97972 6.42014 4.90611C6.38184 4.97371 6.3195 5.02027 6.25716 5.06609C6.12722 5.15847 5.99428 5.25311 5.83956 5.28916C5.68484 5.32446 5.50308 5.28691 5.41295 5.15697Z" fill="#E9EFF4"/>
<path d="M7.81341 15.8524C7.8104 15.9583 7.74806 16.0507 7.69399 16.14C7.45289 16.5336 7.30643 16.9895 7.27414 17.4514C7.24184 17.8938 7.26137 18.4391 6.87606 18.6569C6.656 18.7793 6.34656 18.7576 6.2001 18.9641C6.15428 19.0264 6.1325 19.1053 6.11072 19.1789C6.01608 19.5236 5.9207 19.8684 5.82606 20.2131C5.70363 20.2026 5.57896 20.1891 5.45728 20.1756C5.60149 20.2214 5.70138 20.4167 5.61501 20.5504C5.47681 20.4775 5.29505 20.5639 5.21844 20.7028C5.14558 20.841 5.1561 21.0093 5.19666 21.1617C5.32209 21.6124 5.70739 21.9759 6.16104 22.0841C6.08218 22.2335 5.84108 22.1682 5.69387 22.0683C4.64311 21.3578 3.84998 20.2755 3.48796 19.0595C3.36027 18.6306 3.27841 18.1747 3.0283 17.8059C2.8195 17.4942 2.50405 17.2659 2.29525 16.9542C2.00233 16.5066 1.9475 15.926 1.60801 15.5167C1.41799 15.2831 1.12432 14.9962 1.29256 14.7461C1.36016 14.6432 1.50436 14.5455 1.44728 14.4366C1.42851 14.4013 1.3902 14.3795 1.36016 14.3495C1.24599 14.2271 1.32486 14.0348 1.38194 13.8771C1.47657 13.6029 1.47657 13.31 1.43602 13.0171C1.15061 12.7617 0.925284 12.4448 0.784082 12.0887C0.699961 11.8717 0.58805 11.6005 0.355217 11.5975C0.295131 11.4293 0.232791 11.2611 0.172705 11.0928C0.150924 11.1529 0.0915888 11.1905 0.0262451 11.1987C0.206504 8.44902 1.31509 5.95395 3.04032 4.02067C3.07862 4.00415 3.11617 3.98237 3.15448 3.96059C3.56382 3.72175 3.88978 3.36348 4.2856 3.10286C4.36672 3.04878 4.4591 2.99696 4.55974 3.00747C4.65738 3.01573 4.74977 3.11563 4.71447 3.20801C4.70095 3.24631 4.66865 3.27636 4.6356 3.30039C4.17219 3.69471 3.66446 4.03945 3.12444 4.32486C3.05984 4.35716 2.9915 4.39546 2.9622 4.46081C2.90738 4.57196 2.99976 4.71016 3.11693 4.75072C3.23334 4.79128 3.36403 4.76724 3.48345 4.74021C3.38281 4.88366 3.35276 5.07669 3.40459 5.24493C3.51575 5.25544 3.55105 5.10373 3.5841 4.99783C3.71929 4.57722 4.39 4.40598 4.34644 3.96284C4.5282 4.05748 4.71296 3.84567 4.82412 3.67217C4.93528 3.49567 5.18239 3.32217 5.31833 3.4769C5.32584 3.56327 5.33636 3.65039 5.34462 3.73752C5.58346 3.67743 5.82531 3.61509 6.06415 3.55501C5.92821 3.65039 5.88239 3.85394 5.9605 4.0004C6.03937 4.14686 6.23465 4.22046 6.38937 4.16037C6.38711 4.28806 6.27295 4.3857 6.1693 4.46156C5.90642 4.65984 5.62402 4.86338 5.31758 4.96102L5.38818 5.10748C5.38067 5.11049 5.37241 5.11349 5.36415 5.11349C5.16887 5.13227 4.96232 4.99182 4.75352 5.01886C4.62584 5.03538 4.46886 5.03538 4.39526 5.16532C4.38474 5.18184 4.33893 5.40942 4.37122 5.39064C4.48539 5.32529 4.5988 5.25995 4.71071 5.19536C4.74526 5.28774 4.75352 5.39064 4.73475 5.49128C4.87294 5.47776 5.01715 5.50706 5.13958 5.58066C5.01189 5.87659 4.68367 6.07487 4.36071 6.05008C4.3577 5.95244 4.35245 5.8548 4.34944 5.75716C4.08356 5.73538 3.8665 5.96371 3.73356 6.19204C3.59837 6.42262 3.49547 6.68625 3.2724 6.83271C3.1372 6.92509 2.97122 6.96039 2.82476 7.03625C2.6813 7.11511 2.54836 7.26458 2.5784 7.42455C2.59192 7.50041 2.64074 7.57101 2.63849 7.64988C2.63023 7.79634 2.45973 7.86469 2.34557 7.95932C2.15029 8.1223 2.10147 8.42123 1.89267 8.56469C1.74095 8.67059 1.53966 8.66834 1.36316 8.72242C1.18666 8.77649 1.01016 8.953 1.08151 9.12424C0.994383 9.15428 0.888481 9.08894 0.880219 8.99656C0.568523 9.61019 0.362727 10.2779 0.278607 10.9621C0.433329 11.0703 0.590304 10.8232 0.620347 10.6362C0.652643 10.4491 0.815627 10.2043 0.967344 10.3154C0.932044 10.5843 0.896743 10.8502 0.862194 11.1191C0.853932 11.1709 0.848674 11.225 0.87346 11.2708C0.903503 11.3279 0.968095 11.3519 1.01767 11.3925C1.15586 11.5119 1.13709 11.7237 1.14535 11.9055C1.15361 12.1278 1.22722 12.3449 1.34363 12.5349C1.33237 12.4966 1.32486 12.459 1.31659 12.4207C1.5284 12.4478 1.74846 12.3794 1.90844 12.2382C1.99256 12.1623 2.06316 12.0647 2.16907 12.0264C2.27797 11.9858 2.39739 12.0151 2.50855 12.0452C2.8533 12.1398 3.21982 12.2457 3.4504 12.5169C3.56682 12.6551 3.64043 12.8293 3.77938 12.9427C4.09408 13.2086 4.62659 13.0914 4.91425 13.3874C5.14483 13.6262 5.10202 14.0115 5.03968 14.3397C4.88196 14.2533 4.6709 14.4704 4.76329 14.6251C4.84741 14.5327 4.94505 14.4351 5.06747 14.4351C5.19215 14.4321 5.30106 14.6033 5.20867 14.6822C5.42574 14.4051 5.9575 14.5192 6.04162 14.864C6.3458 14.8858 6.65224 14.9068 6.95643 14.9316C6.89785 15.3777 7.83219 15.404 7.81341 15.8524Z" fill="#E9EFF4"/>
<path d="M5.9635 3.2949C5.84633 3.35273 5.68485 3.28739 5.64128 3.16421C5.59697 3.04104 5.68034 2.88857 5.80802 2.85928C5.88839 2.8405 6.0003 2.84951 6.02509 2.77065C6.0326 2.74661 6.02809 2.72033 6.02809 2.69554C6.02509 2.54683 6.15803 2.42365 6.30148 2.3861C6.44494 2.3493 6.59666 2.37784 6.74236 2.40638C6.79419 2.51378 6.80921 2.63846 6.78442 2.75488C6.68453 2.75938 6.58464 2.76314 6.48474 2.76764C6.49376 2.93363 6.47723 3.14243 6.32326 3.20402C6.18506 3.25885 6.00481 3.1567 5.88989 3.24984" fill="#E9EFF4"/>
<path d="M7.51904 1.63733C7.79168 1.50664 8.02226 1.30084 8.29115 1.16265C8.75381 0.925306 9.29384 0.904276 9.81358 0.887752C10.9965 0.850949 12.1795 0.814147 13.3624 0.777344C13.0883 0.927559 12.8141 1.07853 12.5392 1.22874C12.3154 1.35192 12.0608 1.4781 11.8152 1.40825C11.8099 1.60578 11.9895 1.78904 12.1877 1.78754C11.7018 2.08797 11.0273 1.78078 10.5143 2.03314C10.2995 2.13905 10.126 2.33883 9.88944 2.37639C9.75275 2.39817 9.61079 2.36137 9.47485 2.39141C9.24727 2.44098 9.10382 2.65654 8.93558 2.81727C8.7418 3.00279 8.45714 3.12972 8.20403 3.04109C7.95091 2.95246 7.81872 2.57617 8.02151 2.40042C8.12141 2.31405 8.26411 2.29978 8.38203 2.23894C8.49995 2.17885 8.59308 2.01737 8.50446 1.91898C8.46615 1.87617 8.40306 1.85965 8.36776 1.81383C8.32946 1.76426 8.33321 1.69366 8.30167 1.63958C8.18149 1.42853 7.84726 1.71243 7.61969 1.62756" fill="#E9EFF4"/>
<path d="M11.1113 2.63555C11.2713 2.59875 11.4103 2.50411 11.5597 2.43501C11.7092 2.36591 11.8872 2.32536 12.0337 2.39821C12.0772 2.50712 11.9518 2.60626 11.8414 2.64531C11.6296 2.71967 11.3997 2.73995 11.1782 2.70315" fill="#E9EFF4"/>
<path d="M20.7829 3.82914C20.7394 3.8344 20.6936 3.83215 20.647 3.82088C20.4434 3.77732 20.2887 3.62034 20.1145 3.50618C19.7127 3.2403 19.1644 3.20575 18.7302 3.42281C18.8331 3.27335 18.885 3.08858 18.8737 2.90682L18.8114 2.9286C18.1001 2.51626 17.2664 2.08815 16.4905 2.36529C16.311 2.43064 16.1488 2.52828 15.967 2.59062C15.774 2.65821 15.5599 2.686 15.3947 2.80543C15.2265 2.92485 15.1371 3.18847 15.2813 3.33193C15.4037 3.45436 15.599 3.42131 15.7702 3.43783C15.9385 3.45436 16.1315 3.62185 16.0391 3.76605C15.2956 4.1138 14.5497 4.46455 13.8062 4.81531C14.1479 4.92647 14.374 5.31402 14.3004 5.66703C14.0503 5.71059 13.8092 5.55887 13.5568 5.54235C13.1903 5.52357 12.8403 5.84654 12.8328 6.21306C12.8223 6.57959 13.1588 6.91832 13.5253 6.91306C13.7994 6.91006 14.0683 6.74482 14.3342 6.81467C14.3447 6.56457 14.516 6.35276 14.6917 6.17401C15.0334 5.83151 15.5216 5.52207 15.9783 5.69031C16.1278 5.74439 16.2554 5.84503 16.3801 5.94493C16.6543 6.16199 16.9284 6.3813 17.2033 6.60137C17.2904 6.51199 17.3768 6.42186 17.4639 6.33549C17.6134 6.49321 17.7629 6.65019 17.9146 6.81017C17.9904 6.75834 18.0693 6.70952 18.1452 6.6577C18.1992 6.7989 18.2563 6.9371 18.3111 7.0783C18.3329 6.92358 18.3517 6.77186 18.3705 6.61939C18.55 6.62465 18.74 6.62991 18.9022 6.54879C19.0652 6.46993 19.1846 6.27465 19.1163 6.10641C19.081 6.01703 18.9969 5.94643 18.9804 5.85104C18.9451 5.66102 19.2162 5.53108 19.3927 5.61746C19.5662 5.70158 19.6533 5.89986 19.7269 6.08162C19.7675 5.89686 19.805 5.7151 19.8463 5.53033C20.0161 5.97647 20.2609 6.39407 20.5651 6.7606C20.0086 6.65469 19.422 6.71553 18.9015 6.92959C19.0675 7.16317 19.3521 7.30137 19.6375 7.29011C19.7652 7.2871 19.9064 7.25781 20.0041 7.33893C20.0777 7.40127 20.0965 7.50191 20.11 7.59429C20.1535 7.85491 20.1971 8.11253 20.2377 8.37015C19.944 8.12906 19.5211 8.1561 19.1381 8.14859C18.755 8.13807 18.3074 8.03217 18.1662 7.67691C18.0145 7.84816 17.9469 8.09226 17.9904 8.32058C17.5939 8.22595 17.138 8.07423 17.0238 7.68292C16.7144 7.79708 16.3291 7.59955 16.2449 7.28184C16.2149 7.17068 16.2066 7.03474 16.109 6.9754C16.0496 6.9401 15.973 6.94536 15.9024 6.95362C15.3136 7.02197 14.727 7.08731 14.1412 7.15566C13.8212 7.19397 13.49 7.23227 13.2076 7.38925C12.9252 7.54397 12.7006 7.84816 12.7329 8.16887C12.1929 8.48957 11.7347 8.95374 11.4253 9.49977C11.3276 9.66802 11.2435 9.86104 11.2818 10.0511C11.3089 10.1975 11.4065 10.3222 11.4365 10.4664C11.4884 10.7135 11.3472 10.9524 11.2878 11.1965C11.1196 11.8912 11.6468 12.5454 12.1358 13.0711C12.3664 13.3152 12.633 13.5811 12.9695 13.5946C13.1783 13.6029 13.3766 13.5105 13.5718 13.4339C14.1306 13.2138 14.739 13.1132 15.3384 13.1372C15.2024 13.2431 15.3436 13.4737 15.5126 13.509C15.6809 13.5443 15.8626 13.4895 16.0256 13.5466C16.3974 13.6795 16.3463 14.2248 16.1781 14.5808C16.2622 14.5643 16.3493 14.5478 16.4357 14.532C16.3899 14.6514 16.3433 14.7708 16.2975 14.8872C16.8075 14.9518 17.0005 15.6226 16.8818 16.1243C16.7654 16.6267 16.4672 17.0879 16.459 17.6039C16.4567 17.8863 16.5431 18.1604 16.6302 18.4286C16.848 19.1098 17.0651 19.791 17.2829 20.4745C17.8913 20.5474 18.2405 19.7738 18.8054 19.5319C19.0172 19.4395 19.2665 19.4207 19.4325 19.263C19.5925 19.1113 19.5407 18.7553 19.3349 18.7553C19.6143 18.7253 19.8531 18.4699 19.8614 18.1875C19.8644 18.1086 19.8531 18.0298 19.8636 17.9516C19.8824 17.8405 19.953 17.7428 20.0206 17.6475C20.4517 17.0286 20.7311 16.3196 21.0105 15.6195C21.0834 15.4318 21.157 15.2478 21.2298 15.06C21.5062 14.3622 21.7804 13.6675 22.0568 12.9697C22.1649 12.6956 22.2738 12.4245 22.382 12.1496C22.2325 12.3967 21.842 12.3644 21.6189 12.1796C21.3936 11.9956 21.2764 11.7155 21.0999 11.4849C20.9504 11.2866 20.7491 11.1108 20.6785 10.869C20.638 10.7308 20.6455 10.5813 20.6215 10.4371C20.5666 10.1247 20.3608 9.8648 20.2196 9.58239C20.0784 9.29999 20.0048 8.93421 20.2031 8.68636C20.7739 9.68229 21.2929 10.7075 21.7623 11.7583C21.8142 11.5953 21.9336 11.4541 22.0853 11.3752C22.1965 11.3151 22.3211 11.2911 22.4383 11.2423C22.7478 11.1063 22.9618 10.7781 22.9618 10.4416C22.9588 10.1051 22.7447 9.77692 22.4323 9.64398C22.2776 9.57864 22.1011 9.55761 21.9546 9.46748C21.8082 9.3811 21.7023 9.18282 21.7946 9.03861C21.881 8.90267 22.0906 8.90567 22.234 8.98153C22.3782 9.06039 22.4841 9.19333 22.6193 9.28271C22.717 9.34806 22.8311 9.39087 22.937 9.45095C23.5101 9.77917 23.6513 10.5257 23.7715 11.1769C23.8368 11.5269 23.9104 11.8747 23.9975 12.2164C24.0005 12.1428 23.9998 12.067 23.9998 11.9941C23.9968 8.83808 22.7763 5.96971 20.7829 3.82914ZM21.8818 7.7723C21.8029 7.76704 21.73 7.71522 21.667 7.6664C21.5641 7.58528 21.4604 7.48989 21.4304 7.36221C21.3951 7.21049 21.4679 7.03624 21.3868 6.90105C21.3485 6.8357 21.2809 6.79515 21.2238 6.74933C21.0744 6.62991 20.9654 6.45866 20.9249 6.27465C20.8896 6.11167 20.9407 5.8946 21.1066 5.86757C21.1855 5.85405 21.2719 5.89761 21.3072 5.97046L21.196 6.03055C21.383 6.05233 21.4702 6.33474 21.3267 6.45641C21.3079 6.47519 21.2832 6.49171 21.2832 6.51875C21.2832 6.53527 21.2937 6.55105 21.3079 6.56231C21.4244 6.68999 21.5986 6.73581 21.7503 6.81693C21.902 6.89579 22.0515 7.04225 22.0275 7.21049C21.9786 7.22927 21.9328 7.24579 21.884 7.26457C21.8322 7.31639 21.8735 7.40878 21.9276 7.45985C21.9817 7.51092 22.0523 7.56275 22.0553 7.6386C22.0553 7.72047 21.9629 7.77755 21.8818 7.7723Z" fill="#E9EFF4"/>
<path d="M21.9599 16.1226L21.7639 16.2615C21.8323 16.5019 21.6956 16.7835 21.4635 16.8774C21.3411 16.927 21.1781 16.9487 21.1368 17.0742C21.1022 17.1808 21.1848 17.289 21.1961 17.4001C21.2141 17.5849 21.0414 17.7231 20.9167 17.8606C20.792 17.998 20.7259 18.2564 20.8919 18.339C20.9302 18.3585 20.9745 18.3623 21.0173 18.366C21.1976 18.3818 21.3951 18.3871 21.5423 18.2819C21.9645 17.9807 21.5634 17.1636 21.9802 16.8541C22.0396 16.8105 22.1139 16.779 22.1462 16.7129C22.2446 16.5184 21.8818 16.3253 21.9599 16.1226Z" fill="#E9EFF4"/>
</svg>
