<svg width="40" height="35" viewBox="0 0 40 35" fill="none" xmlns="http://www.w3.org/2000/svg">
<path d="M34.7578 12.7876L39.0692 19.4123H30.4943L34.7578 12.7876Z" fill="#00EFD1"/>
<path d="M9.51214 15.0981L5.24862 21.7228L0.985107 15.0981H9.51214Z" fill="#00EFD1"/>
<path d="M23.596 14.1741H22.3984C22.3026 13.6606 22.1109 13.147 21.9194 13.147H23.5961C24.1252 13.147 24.5542 12.6871 24.5542 12.1199C24.5542 11.5526 24.1252 11.0928 23.5961 11.0928H16.4102C15.8811 11.0928 15.4521 11.5526 15.4521 12.1199C15.4521 12.6871 15.8811 13.147 16.4102 13.147H18.4701C19.2071 13.1629 19.8962 13.5417 20.3384 14.1741H16.4102C15.8811 14.1741 15.4521 14.6339 15.4521 15.2012C15.4521 15.7685 15.8811 16.2283 16.4102 16.2283H20.3384C20.2426 16.2283 20.1468 16.5364 19.9552 16.6905C19.5621 17.1043 19.0186 17.311 18.4701 17.2554H16.4102C16.0204 17.3041 15.6881 17.5812 15.548 17.9743C15.4069 18.3762 15.4802 18.8283 15.7396 19.1555L20.8654 24.3937C21.0423 24.5872 21.2833 24.6979 21.536 24.7018C21.8158 24.7142 22.0837 24.5802 22.2546 24.3424C22.6068 23.9291 22.5855 23.2897 22.2068 22.9044L18.8055 19.4636C19.7618 19.3901 20.6621 18.9531 21.3445 18.2311C21.8099 17.6402 22.1674 16.9608 22.3984 16.2283H23.596C24.1252 16.2283 24.5541 15.7685 24.5541 15.2012C24.5541 14.6339 24.1251 14.1741 23.596 14.1741Z" fill="#224099"/>
<path d="M39.8358 18.8473L35.5722 12.2226C35.3923 11.9294 35.0852 11.7552 34.7578 11.7604C34.4453 11.7631 34.1559 11.9376 33.9914 12.2226L29.7279 18.8473C29.5277 19.1316 29.5087 19.5178 29.68 19.8231C29.832 20.1527 30.1518 20.3543 30.4944 20.3366H33.5603C32.219 28.0398 25.6561 32.4563 19.9554 32.4563C15.8835 32.4563 11.5242 30.094 8.88938 26.4478C8.59349 26.0121 8.02417 25.9162 7.61779 26.2334C7.59358 26.2523 7.57038 26.2724 7.54801 26.2937C7.14007 26.6496 7.07598 27.2913 7.40433 27.7317C10.4121 31.9155 15.029 34.4091 19.9554 34.5105C26.5183 34.5105 34.183 29.0669 35.5244 20.3366H39.0693C39.4119 20.3543 39.7317 20.1526 39.8837 19.8231C40.0548 19.5178 40.0359 19.1316 39.8358 18.8473ZM32.3147 18.2824L34.7578 14.4822L37.201 18.2824H32.3147Z" fill="#224099"/>
<path d="M32.6021 6.7788C29.5943 2.59502 24.9774 0.101442 20.051 0C13.4881 0 5.82336 5.44364 4.48199 14.1739H0.937072C0.594509 14.1562 0.274686 14.3579 0.12266 14.6874C-0.0568738 15.0086 -0.0379852 15.4141 0.170523 15.7145L4.43404 22.2879C4.61403 22.581 4.92111 22.7553 5.24845 22.7501C5.56103 22.7473 5.85041 22.5728 6.01491 22.2879L10.2784 15.6631C10.4786 15.3788 10.4976 14.9926 10.3263 14.6873C10.1743 14.3577 9.85444 14.1561 9.51188 14.1738H6.44614C7.78751 6.47074 14.3504 2.05419 20.051 2.05419C24.1229 2.05419 28.4822 4.41655 31.117 8.06275C31.4129 8.4984 31.9822 8.59433 32.3886 8.27713C32.4128 8.25826 32.436 8.23811 32.4584 8.21678C32.8662 7.86094 32.9304 7.21927 32.6021 6.7788ZM5.24854 20.0283L2.8054 16.2281H7.69169L5.24854 20.0283Z" fill="#224099"/>
</svg>
