<svg width="34" height="50" viewBox="0 0 34 50" fill="none" xmlns="http://www.w3.org/2000/svg">
<path d="M32.3066 20.6998C32.1542 20.3572 32.1542 19.9481 32.3065 19.6056L32.8151 18.4627C33.5976 16.7041 33.1724 14.4878 31.826 13.3073L30.951 12.5401C30.6887 12.3101 30.5395 11.9416 30.5519 11.5545L30.5933 10.2621C30.6569 8.27392 29.4654 6.49657 27.8218 6.12788L26.7535 5.88827C26.4333 5.81643 26.1646 5.56146 26.0345 5.20612L25.6004 4.02045C24.9325 2.19632 23.2109 1.20973 21.5955 1.72612L20.5456 2.06167C20.2311 2.16213 19.8957 2.07118 19.649 1.81822L18.8255 0.973959C17.5585 -0.324653 15.6475 -0.324653 14.3804 0.973959L13.5568 1.81822C13.31 2.07118 12.9749 2.16213 12.6603 2.06167L11.6103 1.72612C9.99483 1.20992 8.27332 2.19632 7.60543 4.02045L7.17126 5.20621C7.0412 5.56145 6.77244 5.81643 6.45226 5.88827L5.38395 6.12788C3.74034 6.49657 2.54883 8.27392 2.61245 10.2621L2.65378 11.5545C2.66621 11.9417 2.51702 12.3102 2.25481 12.5401L1.37968 13.3074C0.0333272 14.4879 -0.391884 16.7042 0.390563 18.4628L0.899169 19.6057C1.05159 19.9482 1.05159 20.3572 0.899169 20.6998L0.390563 21.8427C-0.391884 23.6011 0.0333272 25.8175 1.37968 26.9981L2.25473 27.7653C2.51702 27.9953 2.66613 28.3637 2.6537 28.7511L2.61237 30.0434C2.54875 32.0317 3.74026 33.809 5.38387 34.1776L5.9443 34.3033L6.02705 37.3818L12.0012 40.9929L14.5924 39.5307C15.1867 40.0468 15.8946 40.3055 16.6028 40.3055C17.3003 40.3055 17.9976 40.0552 18.5861 39.5548L20.7201 41.2809L26.6942 37.6553L27.2265 34.3111L27.8219 34.1775C29.4655 33.8089 30.657 32.0316 30.5934 30.0432L30.552 28.751C30.5396 28.3637 30.6887 27.9952 30.951 27.7653L31.8261 26.9981C33.1725 25.8176 33.5977 23.6012 32.8152 21.8427L32.3066 20.6998Z" fill="url(#paint0_linear)"/>
<path d="M13.5567 38.487C13.31 38.2341 12.9748 38.1432 12.6601 38.2436L11.6102 38.579C9.99479 39.0954 8.2732 38.1088 7.60531 36.2847L7.17122 35.0991C7.04108 34.7437 6.77233 34.4888 6.45215 34.4169L5.94427 34.303L2.08451 42.5999C1.87017 43.0607 1.8843 43.6238 2.12124 44.0686C2.35819 44.5133 2.78057 44.7693 3.22201 44.735L6.76651 44.4631L8.34667 48.3432C8.54422 48.8283 8.95288 49.1415 9.40586 49.1553C9.41611 49.1556 9.42636 49.1558 9.43662 49.1558C9.87781 49.1558 10.2852 48.8699 10.4982 48.4081L14.5923 39.5305C14.5199 39.4677 14.449 39.4017 14.3802 39.3312L13.5567 38.487ZM31.0825 42.6L27.2265 34.3109L26.7535 34.4169C26.4334 34.4887 26.1646 34.7437 26.0346 35.099L25.6005 36.2847C25.052 37.7825 23.7928 38.7155 22.4657 38.7156C22.1766 38.7156 21.8846 38.6713 21.5955 38.579L20.5456 38.2436C20.2311 38.1431 19.8957 38.2341 19.6491 38.487L18.8255 39.3312C18.7481 39.4106 18.6681 39.4849 18.5862 39.5546L22.669 48.408C22.8821 48.87 23.2894 49.1558 23.7306 49.1558C23.7408 49.1558 23.7511 49.1557 23.7614 49.1553C24.2143 49.1416 24.623 48.8284 24.8205 48.3433L26.4007 44.4632L29.9452 44.7351C30.3857 44.7694 30.8089 44.5135 31.0459 44.0687C31.2827 43.6238 31.2968 43.0608 31.0825 42.6ZM27.5015 20.2487C27.5015 13.0998 22.6124 7.28369 16.6028 7.28369C10.5933 7.28369 5.70409 13.0998 5.70409 20.2487C5.70409 27.3976 10.5933 33.2136 16.6028 33.2136C22.6124 33.2136 27.5015 27.3976 27.5015 20.2487ZM12.9699 14.4865C13.6387 14.4865 14.1809 15.1314 14.1809 15.927C14.1809 16.7226 13.6387 17.3676 12.9699 17.3676C12.3011 17.3676 11.7589 16.7226 11.7589 15.927C11.7589 15.1314 12.3011 14.4865 12.9699 14.4865ZM14.0339 25.3418C13.5611 25.9043 12.7943 25.9044 12.3214 25.3418C11.8485 24.7792 11.8485 23.8671 12.3214 23.3046L19.1717 15.1555C19.6446 14.5931 20.4114 14.593 20.8843 15.1555C21.3572 15.7181 21.3572 16.6302 20.8843 17.1928L14.0339 25.3418ZM20.2357 26.0109C19.5669 26.0109 19.0247 25.3659 19.0247 24.5703C19.0247 23.7748 19.5669 23.1298 20.2357 23.1298C20.9045 23.1298 21.4467 23.7748 21.4467 24.5703C21.4467 25.3659 20.9046 26.0109 20.2357 26.0109Z" fill="url(#paint1_linear)"/>
<defs>
<linearGradient id="paint0_linear" x1="16.6027" y1="41.2808" x2="16.6027" y2="-4.92106e-05" gradientUnits="userSpaceOnUse">
<stop stop-color="#FD3A84"/>
<stop offset="1" stop-color="#FFA68D"/>
</linearGradient>
<linearGradient id="paint1_linear" x1="16.5835" y1="49.1558" x2="16.5835" y2="7.28369" gradientUnits="userSpaceOnUse">
<stop stop-color="#FFC2CC"/>
<stop offset="1" stop-color="#FFF2F4"/>
</linearGradient>
</defs>
</svg>
