<svg width="35" height="45" viewBox="0 0 35 45" fill="none" xmlns="http://www.w3.org/2000/svg">
<path d="M29.7499 3.88504C29.748 1.7403 28.3963 0.00240326 26.7282 0H8.2717C6.60357 0.00240326 5.25187 1.7403 5.25 3.88504V41.115C5.25187 43.2597 6.60357 44.9976 8.2717 45H32.6666C32.9887 45 33.2498 44.6642 33.2498 44.2498V38.595C33.9914 37.7446 34.416 36.5278 34.4165 35.25V26.9999C34.4165 25.7574 33.633 24.7501 32.6666 24.7501H32.0832C31.7817 24.7522 31.4861 24.8555 31.2252 25.0499C30.9061 24.3979 30.3494 24.0014 29.7499 24V3.88504ZM28.3085 24.3C27.9894 23.6477 27.4326 23.2515 26.8334 23.2502H26.2499C26.0507 23.2526 25.8534 23.2993 25.6665 23.3878V18.375C25.6652 17.9338 25.5784 17.5002 25.4133 17.1136C25.5784 16.6903 25.6649 16.2234 25.6665 15.7499C25.6841 14.1188 24.6718 12.7771 23.4032 12.75H12.1799C11.573 12.751 10.993 13.0727 10.5759 13.6395C10.151 14.206 9.91446 14.963 9.9166 15.7499C9.89897 17.3811 10.9113 18.7228 12.1799 18.7499H21.5834V35.25C21.5844 35.5013 21.602 35.7523 21.6357 36.0001H6.41665V7.49989H28.5832V24.138C28.4882 24.1816 28.3963 24.2358 28.3085 24.3ZM21.7892 17.2499H12.1799C11.5556 17.2235 11.0654 16.553 11.0832 15.7499C11.0819 15.3517 11.2013 14.9678 11.4157 14.6805C11.6138 14.4086 11.8902 14.253 12.1799 14.25H23.4032C24.0277 14.2764 24.518 14.9469 24.4998 15.7499C24.5001 15.8251 24.4961 15.9003 24.4878 15.9752C24.2833 15.8557 24.0638 15.7846 23.8397 15.765C23.7124 15.7276 23.5802 15.7304 23.4542 15.7726C22.735 15.8519 22.1019 16.4139 21.7892 17.2499ZM8.2717 1.49998H26.7282C27.7523 1.50169 28.5819 2.5684 28.5832 3.88504V5.99991H6.41665V3.88504C6.41798 2.5684 7.24764 1.50169 8.2717 1.49998ZM6.41665 41.115V37.5001H22.0571C22.2421 37.9094 22.476 38.2788 22.75 38.595V43.5H8.2717C7.24764 43.4983 6.41798 42.4316 6.41665 41.115ZM32.0832 43.5H23.9166V39.4876C24.291 39.66 24.6857 39.7485 25.0833 39.7499H30.9165C31.3144 39.7485 31.7088 39.66 32.0832 39.4876V43.5ZM30.3334 26.2501V27.7501C30.3334 28.1641 30.5945 28.4999 30.9165 28.4999C31.2388 28.4999 31.5 28.1641 31.5 27.7501V26.9999C31.5 26.5859 31.7612 26.2501 32.0832 26.2501H32.6666C32.9887 26.2501 33.2498 26.5859 33.2498 26.9999V35.25C33.2498 36.9069 32.2052 38.2499 30.9165 38.2499H25.0833C23.7946 38.2499 22.75 36.9069 22.75 35.25V18.375C22.7505 18.2994 22.7564 18.2243 22.7674 18.1501C22.8568 17.5836 23.2656 17.1964 23.7129 17.2547C24.1602 17.3127 24.5004 17.7972 24.4998 18.375V27.7501C24.4998 28.1641 24.761 28.4999 25.0833 28.4999C25.4053 28.4999 25.6665 28.1641 25.6665 27.7501V25.5C25.6665 25.0859 25.9279 24.7501 26.2499 24.7501H26.8334C27.1554 24.7501 27.4166 25.0859 27.4166 25.5V27.7501C27.4166 28.1641 27.6777 28.4999 28.0001 28.4999C28.3221 28.4999 28.5832 28.1641 28.5832 27.7501V26.2501C28.5832 25.8357 28.8444 25.5 29.1667 25.5H29.7499C30.0722 25.5 30.3334 25.8357 30.3334 26.2501Z" fill="#A10000"/>
<path d="M18.0834 38.25H16.9165C16.2722 38.25 15.7499 38.9215 15.7499 39.75V41.25C15.7499 42.0784 16.2722 42.7499 16.9165 42.7499H18.0834C18.7278 42.7499 19.2501 42.0784 19.2501 41.25V39.75C19.2501 38.9215 18.7278 38.25 18.0834 38.25ZM16.9165 41.25V39.75H18.0834V41.25H16.9165Z" fill="#A10000"/>
<path d="M9.3335 21.7498C9.3335 22.1642 9.59465 22.5 9.91669 22.5H11.6668C11.9888 22.5 12.25 22.1642 12.25 21.7498C12.25 21.3358 11.9888 21 11.6668 21H9.91669C9.59465 21 9.3335 21.3358 9.3335 21.7498Z" fill="#A10000"/>
<path d="M14.0001 22.5H19.8333C20.1556 22.5 20.4168 22.1642 20.4168 21.7498C20.4168 21.3358 20.1556 21 19.8333 21H14.0001C13.6778 21 13.4166 21.3358 13.4166 21.7498C13.4166 22.1642 13.6778 22.5 14.0001 22.5Z" fill="#A10000"/>
<path d="M11.6668 24H9.91669C9.59465 24 9.3335 24.3358 9.3335 24.7502C9.3335 25.1642 9.59465 25.5 9.91669 25.5H11.6668C11.9888 25.5 12.25 25.1642 12.25 24.7502C12.25 24.3358 11.9888 24 11.6668 24Z" fill="#A10000"/>
<path d="M14.0001 25.5H19.8333C20.1556 25.5 20.4168 25.1642 20.4168 24.7502C20.4168 24.3358 20.1556 24 19.8333 24H14.0001C13.6778 24 13.4166 24.3358 13.4166 24.7502C13.4166 25.1642 13.6778 25.5 14.0001 25.5Z" fill="#A10000"/>
<path d="M11.6668 27H9.91669C9.59465 27 9.3335 27.3358 9.3335 27.7502C9.3335 28.1642 9.59465 28.5 9.91669 28.5H11.6668C11.9888 28.5 12.25 28.1642 12.25 27.7502C12.25 27.3358 11.9888 27 11.6668 27Z" fill="#A10000"/>
<path d="M14.0001 28.5H19.8333C20.1556 28.5 20.4168 28.1642 20.4168 27.7502C20.4168 27.3358 20.1556 27 19.8333 27H14.0001C13.6778 27 13.4166 27.3358 13.4166 27.7502C13.4166 28.1642 13.6778 28.5 14.0001 28.5Z" fill="#A10000"/>
<path d="M11.6668 30H9.91669C9.59465 30 9.3335 30.3358 9.3335 30.7502C9.3335 31.1642 9.59465 31.5 9.91669 31.5H11.6668C11.9888 31.5 12.25 31.1642 12.25 30.7502C12.25 30.3358 11.9888 30 11.6668 30Z" fill="#A10000"/>
<path d="M14.0001 31.5H19.8333C20.1556 31.5 20.4168 31.1642 20.4168 30.7502C20.4168 30.3358 20.1556 30 19.8333 30H14.0001C13.6778 30 13.4166 30.3358 13.4166 30.7502C13.4166 31.1642 13.6778 31.5 14.0001 31.5Z" fill="#A10000"/>
<path d="M2.33331 3.75014C2.65562 3.75014 2.91677 3.41437 2.91677 2.99998V2.25016C2.91677 1.83577 2.65562 1.5 2.33331 1.5C2.01128 1.5 1.75012 1.83577 1.75012 2.25016V2.99998C1.75012 3.41437 2.01128 3.75014 2.33331 3.75014Z" fill="#A10000"/>
<path d="M1.75012 6.74998C1.75012 7.16402 2.01128 7.49979 2.33331 7.49979C2.65562 7.49979 2.91677 7.16402 2.91677 6.74998V5.99982C2.91677 5.58577 2.65562 5.25 2.33331 5.25C2.01128 5.25 1.75012 5.58577 1.75012 5.99982V6.74998Z" fill="#A10000"/>
<path d="M0.583458 5.24998H1.16665C1.48895 5.24998 1.75011 4.91421 1.75011 4.49982C1.75011 4.08577 1.48895 3.75 1.16665 3.75H0.583458C0.261154 3.75 0 4.08577 0 4.49982C0 4.91421 0.261154 5.24998 0.583458 5.24998Z" fill="#A10000"/>
<path d="M4.0834 3.75H3.49994C3.1779 3.75 2.91675 4.08577 2.91675 4.49982C2.91675 4.91421 3.1779 5.24998 3.49994 5.24998H4.0834C4.40543 5.24998 4.66659 4.91421 4.66659 4.49982C4.66659 4.08577 4.40543 3.75 4.0834 3.75Z" fill="#A10000"/>
<path d="M32.6667 10.4998C32.9887 10.4998 33.2499 10.164 33.2499 9.74998V8.99982C33.2499 8.58577 32.9887 8.25 32.6667 8.25C32.3444 8.25 32.0833 8.58577 32.0833 8.99982V9.74998C32.0833 10.164 32.3444 10.4998 32.6667 10.4998Z" fill="#A10000"/>
<path d="M32.0833 13.5002C32.0833 13.9143 32.3444 14.25 32.6667 14.25C32.9887 14.25 33.2499 13.9143 33.2499 13.5002V12.7501C33.2499 12.336 32.9887 12.0002 32.6667 12.0002C32.3444 12.0002 32.0833 12.336 32.0833 12.7501V13.5002Z" fill="#A10000"/>
<path d="M31.5 10.4998H30.9166C30.5945 10.4998 30.3334 10.8359 30.3334 11.2499C30.3334 11.664 30.5945 12.0001 30.9166 12.0001H31.5C31.8221 12.0001 32.0832 11.664 32.0832 11.2499C32.0832 10.8359 31.8221 10.4998 31.5 10.4998Z" fill="#A10000"/>
<path d="M34.4165 10.4998H33.8333C33.511 10.4998 33.2499 10.8359 33.2499 11.2499C33.2499 11.664 33.511 12.0001 33.8333 12.0001H34.4165C34.7388 12.0001 35 11.664 35 11.2499C35 10.8359 34.7388 10.4998 34.4165 10.4998Z" fill="#A10000"/>
<path d="M2.91677 32.9998C2.91677 32.5858 2.65562 32.25 2.33331 32.25C2.01128 32.25 1.75012 32.5858 1.75012 32.9998V33.75C1.75012 34.164 2.01128 34.5001 2.33331 34.5001C2.65562 34.5001 2.91677 34.164 2.91677 33.75V32.9998Z" fill="#A10000"/>
<path d="M2.33331 36.0002C2.01128 36.0002 1.75012 36.336 1.75012 36.7501V37.5002C1.75012 37.9143 2.01128 38.25 2.33331 38.25C2.65562 38.25 2.91677 37.9143 2.91677 37.5002V36.7501C2.91677 36.336 2.65562 36.0002 2.33331 36.0002Z" fill="#A10000"/>
<path d="M0.583458 36.0002H1.16665C1.48895 36.0002 1.75011 35.6645 1.75011 35.2501C1.75011 34.836 1.48895 34.5002 1.16665 34.5002H0.583458C0.261154 34.5002 0 34.836 0 35.2501C0 35.6645 0.261154 36.0002 0.583458 36.0002Z" fill="#A10000"/>
<path d="M3.49994 36.0002H4.0834C4.40543 36.0002 4.66659 35.6645 4.66659 35.2501C4.66659 34.836 4.40543 34.5002 4.0834 34.5002H3.49994C3.1779 34.5002 2.91675 34.836 2.91675 35.2501C2.91675 35.6645 3.1779 36.0002 3.49994 36.0002Z" fill="#A10000"/>
<path d="M8.16656 8.99976C7.84453 8.99976 7.58337 9.33553 7.58337 9.74992V10.4997C7.58337 10.9141 7.84453 11.2499 8.16656 11.2499C8.48887 11.2499 8.75002 10.9141 8.75002 10.4997V9.74992C8.75002 9.33553 8.48887 8.99976 8.16656 8.99976Z" fill="#A10000"/>
<path d="M8.16656 12.0002C7.84453 12.0002 7.58337 12.336 7.58337 12.7501V18.75C7.58337 19.1644 7.84453 19.5001 8.16656 19.5001C8.48887 19.5001 8.75002 19.1644 8.75002 18.75V12.7501C8.75002 12.336 8.48887 12.0002 8.16656 12.0002Z" fill="#A10000"/>
</svg>
