<svg width="30" height="30" viewBox="0 0 30 30" fill="none" xmlns="http://www.w3.org/2000/svg">
<g clip-path="url(#clip0)">
<path d="M0 14.9998C0 23.2711 6.72867 29.9997 15 29.9997C23.2713 29.9997 30 23.2711 30 14.9998C30.0036 13.0158 29.6113 11.0511 28.8456 9.22083C28.7172 8.9219 28.3719 8.78187 28.0717 8.90733C27.7714 9.03313 27.6281 9.37707 27.7509 9.67865C28.456 11.364 28.8172 13.1731 28.8135 14.9998C28.8135 22.6166 22.6168 28.8133 15 28.8133C7.38314 28.8133 1.18644 22.6166 1.18644 14.9998C1.18644 7.3829 7.38314 1.18621 15 1.18621C16.5479 1.18422 18.0853 1.44342 19.5471 1.95223C19.7474 2.0234 19.9708 1.98169 20.1321 1.84332C20.2933 1.70461 20.3681 1.4901 20.328 1.28121C20.288 1.07233 20.139 0.900851 19.9377 0.831995C18.3504 0.279162 16.681 -0.00221993 15 -0.000233698C6.72867 -0.000233698 0 6.72844 0 14.9998H0Z" fill="#FFBA15"/>
<path d="M19.7847 8.57027C19.7847 8.24254 19.5192 7.97705 19.1915 7.97705H10.8083C10.4806 7.97705 10.2151 8.24254 10.2151 8.57027C10.2151 8.898 10.4806 9.16349 10.8083 9.16349H13.207C14.6368 9.16515 15.8676 10.1728 16.1516 11.5741H10.8083C10.4806 11.5741 10.2151 11.8396 10.2151 12.1673C10.2151 12.4947 10.4806 12.7605 10.8083 12.7605H16.1516C15.8676 14.1615 14.6368 15.1688 13.207 15.1708H10.8083C10.5653 15.1708 10.3472 15.3191 10.2571 15.5446C10.1674 15.7703 10.2244 16.0279 10.4008 16.1951L16.3965 21.8608C16.5505 22.0071 16.771 22.0601 16.9745 21.9995C17.1778 21.9389 17.3337 21.774 17.3827 21.5675C17.4314 21.3609 17.3662 21.1437 17.2116 20.9984L12.2996 16.3569H13.207C15.2909 16.3543 17.057 14.8226 17.3546 12.7602H19.1915C19.5192 12.7602 19.7847 12.4944 19.7847 12.167C19.7847 11.8393 19.5192 11.5738 19.1915 11.5738H17.3546C17.2228 10.6561 16.7902 9.80802 16.1244 9.16316H19.1915C19.5192 9.16316 19.7847 8.89767 19.7847 8.57027Z" fill="#FFBA15"/>
<path d="M20.8809 3.85791C20.6492 3.62619 20.2734 3.62619 20.0417 3.85791C19.8103 4.08964 19.8103 4.46537 20.0417 4.69709L22.8022 7.45762C23.0303 7.6857 23.3984 7.68968 23.6315 7.46722L28.4981 2.81878C28.7351 2.59235 28.7437 2.21696 28.5176 1.97993C28.2912 1.74324 27.9158 1.73464 27.6788 1.96073L23.2313 6.20861L20.8809 3.85791Z" fill="#FFBA15"/>
</g>
<defs>
<clipPath id="clip0">
<rect width="30" height="30" fill="white"/>
</clipPath>
</defs>
</svg>
