<svg width="40" height="40" viewBox="0 0 40 40" fill="none" xmlns="http://www.w3.org/2000/svg">
<path d="M23.0798 9.16327C23.3402 9.16327 23.5509 8.95254 23.5509 8.69211C23.5509 8.43199 23.3402 8.22095 23.0798 8.22095H16.8884C16.6283 8.22095 16.4172 8.43199 16.4172 8.69211C16.4172 8.95254 16.6283 9.16327 16.8884 9.16327H18.6602C19.7034 9.16327 20.5776 9.87001 20.7939 10.8123H16.8884C16.6283 10.8123 16.4172 11.0234 16.4172 11.2835C16.4172 11.5439 16.6283 11.7547 16.8884 11.7547H20.7939C20.5874 12.7669 19.6933 13.4911 18.6602 13.4822H16.8884C16.6945 13.4856 16.5215 13.6056 16.4507 13.7862C16.3798 13.9669 16.4249 14.1724 16.5648 14.3068L20.993 18.4932C21.0835 18.5794 21.2046 18.6258 21.3298 18.6227C21.4546 18.6193 21.573 18.5666 21.6589 18.4758C21.8377 18.2837 21.8295 17.984 21.6402 17.8024L18.073 14.4246H18.6602C20.2059 14.4129 21.5153 13.2822 21.7522 11.7547H23.0798C23.3402 11.7547 23.5509 11.5439 23.5509 11.2835C23.5509 11.0234 23.3402 10.8123 23.0798 10.8123H21.7522C21.6519 10.1841 21.3427 9.5559 20.8948 9.16327H23.0798Z" fill="#F6641A"/>
<path d="M32.1487 11.087L31.6632 10.7232C31.2469 10.4137 31.1178 9.84743 31.3583 9.38823L31.6356 8.85418C31.9263 8.29437 31.9362 7.63058 31.6619 7.06248C31.3877 6.49439 30.8619 6.08887 30.2426 5.96832L29.657 5.85452C29.1469 5.75697 28.7837 5.30207 28.8015 4.78275L28.8205 4.1803C28.8399 3.54994 28.561 2.94719 28.0678 2.55424C27.5742 2.161 26.9246 2.02358 26.3144 2.18339L25.7332 2.33554C25.2313 2.46866 24.7074 2.21682 24.4982 1.74168L24.2525 1.18831C23.9964 0.611932 23.4835 0.189851 22.8682 0.0499746C22.2531 -0.0902082 21.608 0.0683793 21.1277 0.477271L20.67 0.866531C20.2752 1.20456 19.6933 1.20456 19.2986 0.866531L18.8409 0.477271C18.3605 0.0683793 17.7154 -0.0899014 17.1004 0.0499746C16.4854 0.190157 15.9725 0.611932 15.7164 1.18831L15.4707 1.74168C15.2615 2.21682 14.7373 2.46897 14.2354 2.33554L13.6544 2.18339C13.044 2.02358 12.394 2.161 11.9008 2.55424C11.4075 2.94749 11.1284 3.55055 11.1483 4.18092L11.167 4.78336C11.1848 5.30268 10.822 5.75759 10.3115 5.85513L9.72595 5.96894C9.10694 6.08949 8.58087 6.495 8.30664 7.0631C8.03272 7.63088 8.04222 8.29499 8.33302 8.8548L8.61032 9.38884C8.85081 9.84804 8.72167 10.4143 8.30572 10.7238L7.82014 11.0876C7.31616 11.4649 7.01923 12.0575 7.01892 12.6873C7.01831 13.3167 7.31432 13.91 7.81769 14.2882L8.30756 14.656C8.72259 14.9658 8.85111 15.5308 8.61124 15.9897L8.33302 16.525C8.04222 17.0848 8.03241 17.7489 8.30664 18.3167C8.58087 18.8848 9.10694 19.2903 9.72595 19.4108L10.3115 19.5246C10.822 19.6222 11.1851 20.0771 11.167 20.5964L11.1483 21.1989C11.1216 21.8283 11.3974 22.4329 11.89 22.8255C11.9946 22.909 12.1318 22.9798 12.2103 23.0399V39.5287C12.2152 39.7008 12.3109 39.8573 12.4618 39.9401C12.6127 40.0226 12.7962 40.0189 12.9437 39.9306L19.9817 35.6177L27.0184 39.9306C27.0927 39.976 27.1782 39.9999 27.2653 39.9999C27.3494 40.0002 27.4322 39.9793 27.5065 39.9401C27.658 39.8579 27.754 39.7011 27.7583 39.5287V23.0393C27.8368 22.9795 27.9742 22.9083 28.0785 22.8252C28.5727 22.4329 28.8503 21.8286 28.8258 21.1982L28.8043 20.5958C28.7859 20.0768 29.1488 19.6219 29.6589 19.5243L30.2435 19.4102C30.8626 19.2897 31.3886 18.8841 31.6625 18.3164C31.9368 17.7483 31.927 17.0842 31.6362 16.5247L31.3579 15.9894C31.1181 15.5305 31.2466 14.9652 31.6613 14.6554L32.1512 14.2876C32.6546 13.9097 32.9506 13.3164 32.9503 12.687C32.9496 12.0572 32.653 11.4646 32.149 11.087H32.1487ZM13.1523 23.2617C13.3182 23.259 13.483 23.2369 13.6434 23.1961L14.2195 23.0436C14.6477 22.9271 15.1026 23.0958 15.351 23.4632V37.3395L13.1523 38.6873V23.2617ZM19.7274 34.6631L16.2934 36.7619V24.958C16.5299 25.1365 16.801 25.2629 17.0897 25.3292C17.2394 25.3632 17.3924 25.3801 17.5458 25.3804C18.0197 25.3801 18.4783 25.2105 18.8381 24.9022L19.2973 24.5129C19.6921 24.1746 20.2746 24.1746 20.6694 24.5129L21.1274 24.9022C21.6105 25.3135 22.2599 25.4721 22.8783 25.3292C23.1672 25.2629 23.4387 25.1365 23.6749 24.958V36.7619L20.2357 34.6631C20.0786 34.5708 19.8841 34.5708 19.7274 34.6631ZM26.816 38.6873L24.6172 37.3395V23.4639C24.8635 23.0964 25.3172 22.9277 25.7436 23.0442L26.3304 23.1964C26.489 23.2372 26.6522 23.2596 26.816 23.2623V38.6873ZM31.5849 13.5342L31.0951 13.902C30.311 14.4879 30.0678 15.5563 30.5215 16.4237L30.7994 16.959C30.9534 17.255 30.9583 17.6062 30.8132 17.9069C30.6684 18.2072 30.3902 18.4216 30.0626 18.4854L29.477 18.5992C28.5123 18.7835 27.8255 19.6437 27.8595 20.6252L27.8782 21.228C27.8887 21.5614 27.7411 21.8804 27.4801 22.0884C27.219 22.2964 26.8755 22.3691 26.5525 22.2844L25.9715 22.1323C25.0227 21.8804 24.0323 22.3568 23.6366 23.255L23.3905 23.8083C23.2553 24.1132 22.9838 24.3365 22.6586 24.4105C22.3332 24.4847 21.9921 24.401 21.7381 24.1847L21.2804 23.7951C20.5344 23.1559 19.4335 23.1559 18.6875 23.7951L18.2299 24.1847C17.9759 24.401 17.6348 24.4847 17.3093 24.4105C16.9842 24.3365 16.7127 24.1132 16.5774 23.8083L16.3314 23.2553C16.0133 22.5326 15.2986 22.066 14.509 22.0657C14.336 22.066 14.1639 22.0884 13.9968 22.1323L13.4155 22.2844C13.0928 22.3691 12.7489 22.2964 12.4879 22.0884C12.2272 21.8804 12.0796 21.5614 12.09 21.2277L12.1087 20.6252C12.1428 19.6437 11.4563 18.7838 10.4916 18.5995L9.90601 18.4854C9.57841 18.4216 9.30019 18.2072 9.1554 17.9069C9.01031 17.6062 9.01553 17.255 9.16921 16.959L9.44712 16.4237C9.9008 15.5563 9.65785 14.4879 8.8735 13.902L8.38363 13.5342C8.11738 13.3342 7.96094 13.0204 7.96094 12.6876C7.96124 12.3545 8.1183 12.041 8.38486 11.8413L8.87044 11.4775C9.65663 10.8922 9.9008 9.82258 9.44651 8.95418L9.16921 8.42045C9.01522 8.12413 9.01001 7.77291 9.1551 7.4726C9.30019 7.17199 9.57841 6.95758 9.90601 6.89377L10.4916 6.77966C11.4563 6.59562 12.1431 5.7355 12.1091 4.75361L12.0903 4.15116C12.0799 3.81773 12.2275 3.49871 12.4885 3.29074C12.7492 3.08277 13.0931 3.01007 13.4161 3.09473L13.9971 3.24688C14.9458 3.49871 15.9363 3.02234 16.332 2.12419L16.5777 1.57051C16.7133 1.26591 16.9848 1.0426 17.3099 0.968677C17.6351 0.894752 17.9765 0.978186 18.2305 1.19444L18.6881 1.58401C19.4341 2.22327 20.5347 2.22327 21.2811 1.58401L21.7384 1.19444C21.9927 0.978186 22.3338 0.894752 22.659 0.968677C22.9844 1.0426 23.2556 1.26591 23.3912 1.57082L23.6372 2.12388C24.0329 3.02203 25.0233 3.49841 25.9718 3.24688L26.5531 3.09473C26.8758 3.01007 27.2196 3.08277 27.4807 3.29074C27.7417 3.49902 27.8893 3.81804 27.8785 4.15147L27.8598 4.75392C27.8258 5.73581 28.5126 6.59592 29.4776 6.77997L30.0632 6.89408C30.3905 6.95788 30.6687 7.1723 30.8138 7.4726C30.9589 7.77321 30.9537 8.12444 30.8 8.42045L30.5224 8.95449C30.0684 9.82258 30.3126 10.8922 31.0984 11.4775L31.5843 11.8413C31.8509 12.041 32.0076 12.3545 32.0079 12.6876C32.0082 13.0207 31.8515 13.3342 31.5852 13.5342H31.5849Z" fill="#F6641A"/>
<path d="M19.9841 4.63916C15.5379 4.63916 11.9336 8.24342 11.9336 12.6897C11.9336 17.136 15.5382 20.7405 19.9844 20.7402C24.4307 20.7402 28.035 17.136 28.035 12.6897C28.0298 8.24557 24.4283 4.64407 19.9841 4.63916ZM19.9841 19.7979C16.0584 19.7979 12.8759 16.6154 12.8759 12.6897C12.8759 8.76397 16.0584 5.58118 19.9841 5.58118C23.9102 5.58118 27.0927 8.76397 27.0927 12.6897C27.088 16.6136 23.9083 19.7936 19.9841 19.7979Z" fill="#F6641A"/>
</svg>
