<svg width="37" height="40" viewBox="0 0 37 40" fill="none" xmlns="http://www.w3.org/2000/svg">
<path d="M33.6443 32.473C34.2355 31.8871 34.6129 31.0553 34.6129 30.1252V28.8433C34.6129 27.0763 33.2742 25.6386 31.629 25.6386C30.1884 25.6386 28.9829 26.7418 28.7052 28.2023H26.745C26.4979 27.4581 25.8414 26.9205 25.0645 26.9205C24.2874 26.9205 23.6309 27.4581 23.3838 28.2023H21.4236C21.1855 26.9486 20.2638 25.959 19.0968 25.7034V24.2656C20.1236 23.9792 20.8871 22.9843 20.8871 21.7929H21.4839C21.8137 21.7929 22.0806 21.5065 22.0806 21.152V19.2291H23.2742V17.9472H22.0806V17.9404C22.0806 16.7142 22.6218 15.509 23.5653 14.6361C25.2764 13.051 26.2581 10.7538 26.2581 8.3331C26.2581 6.04379 25.411 3.9094 23.8733 2.323C22.3365 0.736607 20.3052 -0.0914871 18.18 0.00803438C14.1518 0.182353 10.8151 3.849 10.7431 8.18131C10.7017 10.6334 11.6645 12.969 13.3843 14.5895C14.3307 15.4802 14.8809 16.6988 14.9132 17.9472H13.7258V19.2291H14.9194V21.152C14.9194 21.5065 15.186 21.7929 15.5161 21.7929H16.1129C16.1129 22.9843 16.8761 23.9792 17.9032 24.2656V25.7034C16.7359 25.959 15.8145 26.9486 15.5762 28.2023H13.616C13.3688 27.4581 12.7123 26.9205 11.9355 26.9205C11.1583 26.9205 10.5018 27.4581 10.2547 28.2023H8.29452C8.01682 26.7418 6.81191 25.6386 5.37097 25.6386C3.72547 25.6386 2.3871 27.0763 2.3871 28.8433V30.1252C2.3871 31.0553 2.76416 31.8871 3.3554 32.473C1.39024 33.3311 0 35.4014 0 37.8165V39.0984C0 39.453 0.266625 39.7393 0.596774 39.7393H10.1452C10.475 39.7393 10.7419 39.453 10.7419 39.0984V37.8165C10.7419 35.4014 9.35141 33.3311 7.38625 32.473C7.97748 31.8871 8.35484 31.0553 8.35484 30.1252V29.4842H10.2547C10.5018 30.2284 11.1583 30.7661 11.9355 30.7661C12.7123 30.7661 13.3688 30.2284 13.616 29.4842H15.5161V30.1252C15.5161 31.0553 15.8932 31.8871 16.4844 32.473C14.5193 33.3311 13.129 35.4014 13.129 37.8165V39.0984C13.129 39.453 13.3957 39.7393 13.7258 39.7393H23.2742C23.6041 39.7393 23.871 39.453 23.871 39.0984V37.8165C23.871 35.4014 22.4804 33.3311 20.5153 32.473C21.1065 31.8871 21.4839 31.0553 21.4839 30.1252V29.4842H23.3838C23.6309 30.2284 24.2874 30.7661 25.0645 30.7661C25.8414 30.7661 26.4979 30.2284 26.745 29.4842H28.6452V30.1252C28.6452 31.0553 29.0222 31.8871 29.6135 32.473C27.6483 33.3311 26.2581 35.4014 26.2581 37.8165V39.0984C26.2581 39.453 26.5247 39.7393 26.8548 39.7393H36.4032C36.7331 39.7393 37 39.453 37 39.0984V37.8165C37 35.4014 35.6095 33.3311 33.6443 32.473ZM9.54839 37.8165V38.4574H8.35484V37.1755H7.16129V38.4574H3.58065V37.1755H2.3871V38.4574H1.19355V37.8165C1.19355 35.3432 3.06779 33.3299 5.37097 33.3299C7.67385 33.3299 9.54839 35.3432 9.54839 37.8165ZM3.58065 30.1252V28.8433C3.58065 27.7833 4.38373 26.9205 5.37097 26.9205C6.35792 26.9205 7.16129 27.7833 7.16129 28.8433V30.1252C7.16129 31.1852 6.35792 32.048 5.37097 32.048C4.38373 32.048 3.58065 31.1852 3.58065 30.1252ZM11.9355 29.4842C11.6059 29.4842 11.3387 29.1972 11.3387 28.8433C11.3387 28.4896 11.6059 28.2023 11.9355 28.2023C12.2648 28.2023 12.5323 28.4896 12.5323 28.8433C12.5323 29.1972 12.2648 29.4842 11.9355 29.4842ZM14.1708 13.6253C12.7158 12.2545 11.9014 10.2785 11.9367 8.20353C11.9981 4.53814 14.8203 1.43607 18.2278 1.28836C20.0485 1.21731 21.7464 1.90645 23.046 3.2478C24.3477 4.58946 25.0645 6.39619 25.0645 8.3331C25.0645 10.3808 24.2338 12.3243 22.7858 13.6644C21.5792 14.7823 20.8871 16.3405 20.8871 17.9404V17.9472H16.1068C16.0744 16.3302 15.3763 14.7597 14.1708 13.6253ZM20.8871 19.2291V20.511H16.1129V19.2291H20.8871ZM17.3065 21.7929H19.6936C19.6936 22.4999 19.158 23.0748 18.5 23.0748C17.8417 23.0748 17.3065 22.4999 17.3065 21.7929ZM22.6774 37.8165V38.4574H21.4839V37.1755H20.2903V38.4574H16.7097V37.1755H15.5161V38.4574H14.3226V37.8165C14.3226 35.3432 16.1968 33.3299 18.5 33.3299C20.8029 33.3299 22.6774 35.3432 22.6774 37.8165ZM16.7097 30.1252V28.8433C16.7097 27.7833 17.5128 26.9205 18.5 26.9205C19.487 26.9205 20.2903 27.7833 20.2903 28.8433V30.1252C20.2903 31.1852 19.487 32.048 18.5 32.048C17.5128 32.048 16.7097 31.1852 16.7097 30.1252ZM25.0645 29.4842C24.735 29.4842 24.4677 29.1972 24.4677 28.8433C24.4677 28.4896 24.735 28.2023 25.0645 28.2023C25.3938 28.2023 25.6613 28.4896 25.6613 28.8433C25.6613 29.1972 25.3938 29.4842 25.0645 29.4842ZM29.8387 30.1252V28.8433C29.8387 27.7833 30.6418 26.9205 31.629 26.9205C32.616 26.9205 33.4194 27.7833 33.4194 28.8433V30.1252C33.4194 31.1852 32.616 32.048 31.629 32.048C30.6418 32.048 29.8387 31.1852 29.8387 30.1252ZM35.8065 38.4574H34.6129V37.1755H33.4194V38.4574H29.8387V37.1755H28.6452V38.4574H27.4516V37.8165C27.4516 35.3432 29.3259 33.3299 31.629 33.3299C33.9319 33.3299 35.8065 35.3432 35.8065 37.8165V38.4574Z" fill="#E44C8B"/>
</svg>
