<svg width="24" height="24" viewBox="0 0 24 24" fill="none" xmlns="http://www.w3.org/2000/svg">
<path d="M12 8.90625C11.5703 8.90625 11.168 8.98438 10.793 9.14062C10.418 9.29688 10.0898 9.51953 9.80859 9.80859C9.52734 10.0977 9.30859 10.4258 9.15234 10.793C8.99609 11.1602 8.91406 11.5625 8.90625 12C8.90625 12.4844 9.01172 12.9375 9.22266 13.3594C9.43359 13.7812 9.73438 14.1406 10.125 14.4375V15.9727C9.74219 15.793 9.39453 15.5664 9.08203 15.293C8.76953 15.0195 8.50391 14.707 8.28516 14.3555C8.06641 14.0039 7.89844 13.6289 7.78125 13.2305C7.66406 12.832 7.60156 12.4219 7.59375 12C7.59375 11.3906 7.70703 10.8203 7.93359 10.2891C8.16016 9.75781 8.47656 9.28906 8.88281 8.88281C9.28906 8.47656 9.75391 8.16406 10.2773 7.94531C10.8008 7.72656 11.375 7.60938 12 7.59375C12.3906 7.59375 12.7695 7.64453 13.1367 7.74609C13.5039 7.84766 13.8555 7.99219 14.1914 8.17969C14.5273 8.36719 14.8281 8.60156 15.0938 8.88281C15.3594 9.16406 15.5938 9.46875 15.7969 9.79688C15.5938 9.86719 15.3906 9.94922 15.1875 10.043C14.9844 10.1367 14.793 10.2422 14.6133 10.3594C14.332 9.91406 13.9609 9.5625 13.5 9.30469C13.0391 9.04688 12.5391 8.91406 12 8.90625ZM9.16406 22.2891L10.875 19.5469C10.9766 19.7812 11.0859 20.0078 11.2031 20.2266C11.3203 20.4453 11.4531 20.668 11.6016 20.8945H11.5781L9.69141 23.9297L5.20312 22.0664L6 18.5859C5.79688 18.3984 5.60156 18.2031 5.41406 18L1.93359 18.7969L0.0703125 14.3086L3.10547 12.4219V12.2109C3.10547 12.1406 3.10156 12.0703 3.09375 12V11.7891C3.09375 11.7188 3.09766 11.6484 3.10547 11.5781L0.0703125 9.69141L1.93359 5.20312L5.41406 6C5.60156 5.79688 5.79688 5.60156 6 5.41406L5.20312 1.93359L9.69141 0.0703125L11.5781 3.10547H11.7891C11.8594 3.10547 11.9297 3.10156 12 3.09375H12.2109C12.2812 3.09375 12.3516 3.09766 12.4219 3.10547L14.3086 0.0703125L18.7969 1.93359L18 5.41406C18.2031 5.60156 18.3984 5.79688 18.5859 6L22.0664 5.20312L23.9297 9.69141L22.582 10.5352H22.5C22.3281 10.5352 22.1602 10.5234 21.9961 10.5C21.832 10.4766 21.668 10.457 21.5039 10.4414C21.3945 10.3711 21.2852 10.3086 21.1758 10.2539C21.0664 10.1992 20.957 10.1367 20.8477 10.0664L22.2891 9.16406L21.2812 6.72656L18.1055 7.46484C17.8633 7.16797 17.6172 6.89453 17.3672 6.64453C17.1172 6.39453 16.8398 6.14453 16.5352 5.89453L17.2734 2.71875L14.8359 1.71094L13.1016 4.47656C12.9219 4.46094 12.7383 4.44531 12.5508 4.42969C12.3633 4.41406 12.1797 4.40625 12 4.40625C11.8125 4.40625 11.6289 4.41406 11.4492 4.42969C11.2695 4.44531 11.082 4.46094 10.8867 4.47656L9.16406 1.71094L6.72656 2.71875L7.46484 5.89453C7.16797 6.13672 6.89453 6.38281 6.64453 6.63281C6.39453 6.88281 6.14453 7.16016 5.89453 7.46484L2.71875 6.72656L1.71094 9.16406L4.47656 10.8984C4.46094 11.0859 4.44531 11.2695 4.42969 11.4492C4.41406 11.6289 4.40625 11.8164 4.40625 12.0117C4.40625 12.1914 4.41406 12.375 4.42969 12.5625C4.44531 12.75 4.46094 12.9336 4.47656 13.1133L1.71094 14.8359L2.71875 17.2734L5.89453 16.5352C6.13672 16.832 6.38281 17.1055 6.63281 17.3555C6.88281 17.6055 7.16016 17.8555 7.46484 18.1055L6.72656 21.2812L9.16406 22.2891ZM24 12.4102V16.2188C24 17.0391 23.8516 17.8125 23.5547 18.5391C23.2578 19.2656 22.8633 19.9414 22.3711 20.5664C21.8789 21.1914 21.3125 21.7539 20.6719 22.2539C20.0312 22.7539 19.3711 23.1836 18.6914 23.543L18 23.9062L17.2969 23.543C16.6172 23.1914 15.9609 22.7656 15.3281 22.2656C14.6953 21.7656 14.1289 21.1992 13.6289 20.5664C13.1289 19.9336 12.7344 19.2578 12.4453 18.5391C12.1562 17.8203 12.0078 17.0469 12 16.2188V12.4102C12.1875 12.4102 12.3828 12.4141 12.5859 12.4219C12.7891 12.4297 12.9961 12.4336 13.207 12.4336C13.6289 12.4336 14.0469 12.4062 14.4609 12.3516C14.875 12.2969 15.25 12.168 15.5859 11.9648C15.9766 11.7383 16.3633 11.5742 16.7461 11.4727C17.1289 11.3711 17.5469 11.3164 18 11.3086C18.4609 11.3086 18.8828 11.3633 19.2656 11.4727C19.6484 11.582 20.0391 11.75 20.4375 11.9766C20.7656 12.1719 21.1406 12.293 21.5625 12.3398C21.9844 12.3867 22.4062 12.4141 22.8281 12.4219H23.4258C23.6211 12.4219 23.8125 12.418 24 12.4102ZM22.5 16.2188V13.9102C21.9844 13.9102 21.4883 13.8633 21.0117 13.7695C20.5352 13.6758 20.0742 13.5 19.6289 13.2422C19.3633 13.0859 19.1055 12.9766 18.8555 12.9141C18.6055 12.8516 18.3203 12.8164 18 12.8086C17.7031 12.8086 17.4258 12.8398 17.168 12.9023C16.9102 12.9648 16.6523 13.0742 16.3945 13.2305C15.9414 13.4883 15.4766 13.6641 15 13.7578C14.5234 13.8516 14.0234 13.9023 13.5 13.9102V16.2188C13.5 16.8906 13.6289 17.5234 13.8867 18.1172C14.1445 18.7109 14.4883 19.2656 14.918 19.7812C15.3477 20.2969 15.8281 20.7578 16.3594 21.1641C16.8906 21.5703 17.4375 21.9219 18 22.2188C18.5469 21.9297 19.0898 21.582 19.6289 21.1758C20.168 20.7695 20.6484 20.3086 21.0703 19.793C21.4922 19.2773 21.8359 18.7227 22.1016 18.1289C22.3672 17.5352 22.5 16.8984 22.5 16.2188Z" fill="#CE375C"/>
</svg>
